if (_typeface_js && _typeface_js.loadFace) _typeface_js.loadFace({"glyphs":{"¦":{"x_min":92.921875,"x_max":618.546875,"ha":665,"o":"m 269 253 l 373 253 l 193 -362 q 140 -406 181 -406 q 106 -393 120 -406 q 92 -367 92 -381 q 95 -345 92 -353 l 269 253 m 448 528 l 345 528 l 517 1115 q 571 1159 530 1159 q 604 1147 591 1159 q 618 1120 618 1134 q 615 1098 618 1106 l 448 528 "},"Ő":{"x_min":91.5625,"x_max":1487.34375,"ha":1389,"o":"m 706 737 q 534 465 593 645 q 503 267 503 367 q 617 91 503 91 q 738 139 676 91 q 850 264 800 187 q 932 447 900 341 q 965 659 965 553 q 912 871 965 808 q 734 934 859 934 q 585 919 665 934 q 450 886 505 904 q 350 853 394 868 q 299 838 306 838 q 274 859 274 838 q 308 901 274 875 q 401 956 341 927 q 533 1010 461 985 q 864 1068 702 1068 q 1302 888 1174 1068 q 1377 625 1377 781 q 1336 402 1377 506 q 1220 220 1294 298 q 1047 86 1146 142 q 590 -27 845 -27 q 91 314 91 -27 q 132 497 91 409 q 241 650 174 585 q 393 763 309 714 q 736 861 564 861 q 775 851 763 861 q 787 831 787 841 q 784 814 787 821 q 772 797 781 807 q 756 781 763 788 q 706 737 739 766 m 739 1089 q 712 1118 712 1089 q 943 1367 712 1190 q 1006 1390 973 1390 q 1069 1370 1039 1390 q 1100 1319 1100 1350 q 1022 1224 1100 1273 q 898 1158 957 1184 q 800 1110 839 1131 q 739 1089 761 1089 m 1076 1075 q 1048 1101 1048 1075 q 1120 1217 1048 1142 q 1321 1364 1192 1292 q 1375 1374 1339 1374 q 1449 1350 1410 1374 q 1487 1292 1487 1325 q 1414 1211 1487 1247 q 1277 1156 1359 1184 q 1146 1101 1195 1127 q 1076 1075 1098 1075 "},"Ž":{"x_min":-15.59375,"x_max":1289.296875,"ha":1273,"o":"m 1150 309 q 1196 271 1196 309 q 1166 155 1196 229 q 1112 43 1136 80 q 1045 -10 1089 6 q 907 -27 1000 -27 q 691 -4 815 -27 q 474 59 567 18 q 388 -6 421 12 q 314 -25 355 -25 q 178 0 273 -25 q 44 44 83 25 q -5 73 4 63 q -15 102 -15 84 q 273 402 -15 170 q 523 603 396 501 q 888 965 834 853 q 988 1049 927 1049 q 1166 990 1049 1049 q 1252 928 1216 964 q 1289 858 1289 891 q 1222 727 1283 807 q 1077 567 1162 649 q 848 363 992 486 q 560 144 704 241 q 784 174 672 147 q 966 230 896 200 q 1089 284 1035 260 q 1150 309 1142 309 m 775 950 q 751 904 775 921 q 659 873 727 888 q 511 827 592 858 q 387 770 430 795 q 242 709 281 709 q 205 769 205 709 q 222 863 205 811 q 271 958 238 914 q 343 1009 304 1001 q 504 1023 411 1023 q 775 950 775 1023 m 910 1279 q 1229 1384 1184 1384 q 1252 1376 1243 1384 q 1262 1354 1262 1368 q 1188 1269 1262 1325 q 980 1127 1115 1212 q 932 1104 952 1110 q 878 1098 912 1098 q 824 1108 845 1098 q 785 1138 804 1119 q 650 1281 695 1227 q 604 1362 604 1335 q 637 1389 604 1389 q 725 1367 669 1389 q 910 1279 820 1328 "},"Á":{"x_min":-23.0625,"x_max":1357.125,"ha":1275,"o":"m 802 -27 q 576 122 576 -27 q 684 464 576 208 q 792 819 792 720 q 751 898 792 874 q 632 921 710 921 q 474 908 554 921 q 372 894 394 894 q 349 914 349 894 q 444 984 349 941 q 849 1068 628 1068 q 1111 1005 1024 1068 q 1199 800 1199 942 q 1169 590 1199 716 q 1109 352 1139 463 q 1080 200 1080 241 q 1096 142 1080 158 q 1171 122 1115 122 q 1210 114 1206 122 q 1215 99 1215 107 q 1186 48 1215 67 q 802 -27 1079 -27 m 407 463 l 581 467 q 628 440 628 467 q 606 408 628 420 q 335 358 527 368 q 280 167 280 249 q 289 100 280 130 q 299 55 299 69 q 253 7 299 19 q 120 -5 208 -5 q 4 10 32 -5 q -23 67 -23 26 q 21 234 -23 143 q 134 409 65 326 q 288 574 204 493 q 451 713 372 655 q 691 844 628 844 q 720 826 720 844 q 692 787 720 809 q 548 653 632 743 q 398 463 463 562 l 407 463 m 1092 1365 q 1213 1390 1159 1390 q 1312 1356 1268 1390 q 1357 1279 1357 1323 q 1338 1229 1357 1252 q 1280 1201 1320 1207 q 1235 1195 1274 1201 q 1175 1187 1195 1190 q 1112 1178 1154 1184 q 1040 1167 1070 1172 q 972 1154 1010 1161 q 901 1138 935 1146 q 839 1121 868 1130 q 788 1112 811 1112 q 766 1139 766 1112 q 864 1247 766 1178 q 1092 1365 963 1316 "},"ĥ":{"x_min":8.8125,"x_max":1406.640625,"ha":1275,"o":"m 354 1004 l 664 1006 q 690 996 680 1006 q 699 964 699 986 q 672 833 699 942 q 609 619 644 724 q 806 688 698 657 q 1000 719 914 719 q 1119 683 1065 719 q 1178 562 1178 643 q 1115 344 1178 481 q 1052 169 1052 207 q 1106 113 1052 113 q 1345 182 1211 113 q 1378 193 1365 193 q 1406 168 1406 193 q 1375 124 1406 143 q 1298 83 1344 105 q 1180 34 1251 61 q 828 -27 1015 -27 q 641 65 641 -27 q 709 278 641 124 q 777 485 777 432 q 683 550 777 550 q 580 533 631 550 q 419 18 468 205 q 404 0 416 6 q 383 -6 392 -6 l 34 -13 q 17 -4 27 -13 q 8 18 8 4 q 52 154 8 31 q 148 421 96 277 q 245 720 201 564 q 288 951 288 875 l 288 970 q 354 1004 288 1004 m 612 1207 q 293 1102 338 1102 q 270 1110 280 1102 q 261 1132 261 1118 q 334 1217 261 1161 q 543 1359 407 1274 q 590 1382 570 1376 q 644 1388 610 1388 q 698 1378 678 1388 q 737 1348 718 1367 q 872 1206 826 1260 q 918 1124 918 1151 q 886 1097 918 1097 q 798 1119 853 1097 q 612 1207 702 1158 "},"Î":{"x_min":48.828125,"x_max":1062.09375,"ha":926,"o":"m 316 402 q 151 666 151 504 q 187 800 151 737 q 282 906 223 862 q 416 980 341 949 q 729 1041 564 1041 q 869 998 832 1041 q 902 897 902 959 q 872 736 902 835 q 779 459 843 636 q 683 180 716 282 q 581 32 651 79 q 388 -13 512 -13 q 157 17 265 -13 q 48 88 48 48 q 94 123 48 118 q 191 153 161 131 q 248 230 221 174 q 316 402 274 286 m 439 828 q 429 854 439 844 q 404 864 419 864 q 373 853 389 864 q 337 819 356 842 q 292 667 292 764 q 344 486 292 570 q 439 828 439 768 m 756 1208 q 437 1103 482 1103 q 414 1111 423 1103 q 404 1133 404 1119 q 478 1219 404 1162 q 687 1361 551 1275 q 734 1383 714 1378 q 788 1389 754 1389 q 842 1379 822 1389 q 881 1350 862 1369 q 1016 1207 970 1262 q 1062 1125 1062 1152 q 1029 1098 1062 1098 q 942 1121 997 1098 q 756 1208 846 1159 "},"\u0007":{"x_min":0,"x_max":0,"ha":0},"e":{"x_min":39.34375,"x_max":1174,"ha":1042,"o":"m 1150 193 q 1174 171 1174 193 q 1141 130 1174 149 q 1062 90 1109 111 q 931 40 1014 69 q 497 -27 739 -27 q 39 255 39 -27 q 126 499 39 392 q 360 662 213 606 q 679 719 506 719 q 932 666 852 719 q 1013 518 1013 612 q 936 361 1013 422 q 731 270 859 300 q 438 228 603 240 q 588 97 448 123 q 664 91 624 91 q 1122 187 823 91 q 1150 193 1140 193 m 438 303 q 625 402 556 335 q 693 564 693 470 q 677 604 693 590 q 628 619 661 619 q 559 591 595 619 q 499 516 524 562 q 438 303 448 421 "},"»":{"x_min":171.59375,"x_max":1410.03125,"ha":1567,"o":"m 421 744 q 452 724 427 744 q 569 634 478 705 q 852 423 758 489 q 867 384 867 413 q 840 308 867 355 q 785 250 813 261 q 429 100 642 193 q 210 7 215 7 q 183 20 194 7 q 171 53 171 33 q 217 121 171 90 q 324 198 246 141 q 594 374 468 301 q 508 467 537 432 q 436 553 478 503 q 375 626 394 603 q 355 677 355 649 q 374 724 355 704 q 421 744 394 744 m 963 744 q 995 724 969 744 q 1111 634 1020 705 q 1395 423 1300 489 q 1410 384 1410 413 q 1382 308 1410 355 q 1327 250 1355 261 q 971 100 1185 193 q 753 7 758 7 q 725 20 737 7 q 714 53 714 33 q 760 121 714 90 q 867 198 789 141 q 1137 374 1011 301 q 1050 467 1080 432 q 979 553 1021 503 q 917 626 937 603 q 897 677 897 649 q 917 724 897 704 q 963 744 936 744 "},"∆":{"x_min":87.484375,"x_max":1040.390625,"ha":1273,"o":"m 484 2 l 173 -4 l 171 -4 q 117 25 147 -2 q 87 72 87 53 q 90 84 87 78 q 400 579 180 223 q 702 1072 621 935 q 779 1133 738 1133 q 823 1125 802 1133 q 847 1105 844 1117 q 961 527 881 948 q 1040 82 1040 106 q 1012 26 1040 57 q 957 -4 985 -4 l 484 2 m 745 906 q 303 141 526 535 q 528 137 415 137 q 707 138 640 137 q 824 141 775 139 q 874 143 874 143 q 745 906 791 657 "},"ļ":{"x_min":11.53125,"x_max":825.390625,"ha":694,"o":"m 360 999 l 693 1006 q 719 995 710 1006 q 728 972 728 985 q 598 561 728 901 q 468 161 468 221 q 478 123 468 136 q 514 111 489 111 q 765 185 595 111 q 797 193 781 193 q 825 171 825 193 q 797 133 825 153 q 720 90 769 113 q 602 38 672 66 q 443 -8 532 10 q 258 -27 355 -27 q 103 -1 161 -27 q 44 94 44 25 q 170 478 44 143 q 256 737 217 602 q 295 939 295 872 l 295 965 q 360 999 295 999 m 278 -274 q 192 -281 249 -281 q 11 -197 11 -281 q 91 -109 11 -145 q 294 -73 171 -73 q 402 -93 360 -73 q 479 -201 479 -128 q 448 -293 479 -252 q 363 -358 417 -333 q 99 -406 252 -406 q 41 -379 41 -406 q 90 -337 41 -351 q 141 -324 107 -333 q 191 -311 175 -316 q 278 -274 236 -298 "},"Ĕ":{"x_min":40.6875,"x_max":1319.140625,"ha":1273,"o":"m 940 623 q 965 583 965 623 q 940 515 965 543 q 884 484 914 486 q 821 478 853 482 q 748 464 789 473 q 673 442 707 456 q 610 408 639 427 q 546 297 546 368 q 570 216 546 250 q 631 162 593 181 q 793 125 704 125 q 1142 183 929 125 q 1163 187 1154 187 q 1188 161 1188 187 q 1092 69 1188 113 q 856 -1 995 24 q 593 -27 717 -27 q 372 -11 470 -27 q 199 35 274 4 q 82 119 124 67 q 40 240 40 172 q 81 363 40 309 q 189 454 122 418 q 345 514 257 489 q 715 558 513 558 q 500 583 571 566 q 388 616 430 600 q 320 652 347 632 q 256 767 256 698 q 308 895 256 836 q 445 991 360 954 q 856 1068 622 1068 q 1293 997 1174 1068 q 1319 951 1319 982 q 1274 852 1319 921 q 1202 756 1230 783 q 1151 730 1175 730 q 1109 747 1128 730 q 1079 789 1090 764 q 851 955 1005 955 q 700 907 762 955 q 639 789 639 858 q 710 669 639 719 q 883 619 781 619 l 940 623 m 628 1341 q 675 1386 628 1386 q 758 1355 701 1386 q 971 1296 868 1296 q 1204 1355 1105 1296 q 1279 1387 1258 1387 q 1313 1361 1313 1387 q 1296 1310 1313 1335 q 1246 1253 1279 1285 q 940 1115 1108 1115 q 654 1266 751 1115 q 628 1341 628 1305 "},"ò":{"x_min":42.734375,"x_max":1405.953125,"ha":1158,"o":"m 170 45 q 42 278 42 122 q 76 431 42 359 q 168 554 109 502 q 305 644 227 607 q 662 719 461 719 q 1090 468 1058 719 q 1188 453 1138 453 q 1273 460 1239 453 q 1337 482 1306 467 q 1380 497 1367 497 q 1405 472 1405 497 q 1365 420 1405 447 q 1166 368 1290 368 q 1090 373 1119 368 q 914 89 1068 202 q 732 4 840 35 q 510 -27 625 -27 q 313 -9 395 -27 q 170 45 231 8 m 416 218 q 507 92 416 92 q 616 156 566 92 q 695 314 667 220 q 723 506 723 408 q 655 604 723 604 q 539 548 595 604 q 450 402 483 492 q 416 218 416 312 m 576 1163 q 738 1046 657 1118 q 864 915 818 974 q 911 836 911 855 q 902 809 911 817 q 886 801 894 801 q 769 848 878 801 q 506 947 661 894 q 417 1035 417 977 q 463 1124 417 1080 q 551 1168 508 1168 q 576 1163 568 1168 "},"ţ":{"x_min":11.53125,"x_max":943.40625,"ha":812,"o":"m 674 690 l 852 713 q 902 674 902 713 q 855 624 902 634 q 640 598 807 615 q 571 431 617 538 q 477 167 477 211 q 537 119 477 119 q 883 183 729 119 q 918 193 905 193 q 943 170 943 193 q 910 126 943 148 q 610 16 811 61 q 240 -27 409 -27 q 92 3 143 -27 q 42 86 42 33 q 112 286 42 139 q 226 574 191 450 q 168 572 184 572 q 128 604 128 572 q 141 636 128 628 q 167 648 153 644 q 191 652 181 651 q 219 655 201 653 q 244 657 236 656 q 253 754 253 708 l 252 779 q 330 821 252 810 q 492 855 356 824 q 659 885 628 885 q 708 851 708 885 q 674 690 708 793 m 278 -274 q 192 -281 249 -281 q 11 -197 11 -281 q 91 -109 11 -145 q 294 -73 171 -73 q 402 -93 360 -73 q 479 -201 479 -128 q 448 -293 479 -252 q 363 -358 417 -333 q 99 -406 252 -406 q 41 -379 41 -406 q 90 -337 41 -351 q 141 -324 107 -333 q 191 -311 175 -316 q 278 -274 236 -298 "},"^":{"x_min":107.84375,"x_max":836.921875,"ha":1003,"o":"m 683 48 q 548 509 612 304 q 252 51 353 236 q 193 23 236 23 q 139 51 170 23 q 107 99 107 80 q 111 111 107 105 q 483 653 323 402 q 560 714 522 714 q 603 706 582 714 q 628 686 623 698 q 769 294 702 472 q 836 112 836 115 q 796 54 836 86 q 733 23 756 23 q 683 48 691 23 "},"«":{"x_min":232.625,"x_max":1471.0625,"ha":1567,"o":"m 678 7 q 647 26 672 7 q 531 116 621 46 q 247 328 341 262 q 232 367 232 338 q 259 442 232 396 q 314 500 286 489 q 670 651 457 558 q 889 744 884 744 q 916 731 905 744 q 928 697 928 718 q 889 634 928 661 q 774 553 850 608 q 504 377 631 451 q 591 283 557 324 q 661 199 625 242 q 721 128 698 155 q 744 74 744 101 q 725 27 744 46 q 678 7 706 7 m 1221 7 q 1189 26 1215 7 q 1073 116 1164 46 q 790 328 884 262 q 775 367 775 338 q 802 442 775 396 q 857 500 829 489 q 1213 651 999 558 q 1431 744 1426 744 q 1459 731 1448 744 q 1471 697 1471 718 q 1432 634 1471 661 q 1317 553 1393 608 q 1047 377 1174 451 q 1133 283 1100 324 q 1204 199 1167 242 q 1264 128 1241 155 q 1287 74 1287 101 q 1267 27 1287 46 q 1221 7 1248 7 "},"í":{"x_min":45.4375,"x_max":841.671875,"ha":697,"o":"m 522 114 q 648 136 569 114 q 763 176 727 158 q 813 193 798 193 q 841 164 841 193 q 820 135 841 151 q 571 28 751 84 q 250 -27 392 -27 q 104 0 163 -27 q 45 85 45 28 q 104 255 45 120 q 215 640 215 510 l 215 666 q 280 699 215 699 l 615 707 q 642 696 633 707 q 651 673 651 686 q 608 519 651 626 q 522 307 565 411 q 480 159 480 204 q 522 114 480 114 m 577 1161 q 611 1168 591 1168 q 709 1130 659 1168 q 758 1051 758 1093 q 682 973 758 1001 q 295 814 453 890 q 249 801 268 801 q 221 826 221 801 q 269 910 221 851 q 402 1040 316 968 q 577 1161 487 1112 "},"ˆ":{"x_min":74.609375,"x_max":758.9375,"ha":834,"o":"m 564 1131 q 758 841 758 902 q 729 812 758 812 q 662 837 699 812 q 446 976 557 909 q 168 837 331 925 q 112 817 131 817 q 74 849 74 817 q 166 971 74 881 q 377 1142 259 1062 q 423 1165 402 1160 q 487 1171 443 1171 q 564 1131 532 1171 "},"ū":{"x_min":68.5,"x_max":1406.640625,"ha":1275,"o":"m 274 697 l 581 705 q 607 694 598 705 q 616 663 616 684 q 578 556 616 642 q 503 372 541 470 q 465 230 465 275 q 554 146 465 146 q 648 157 597 146 q 702 309 664 215 q 818 672 798 548 q 854 697 822 697 q 1061 701 952 697 q 1186 705 1169 705 q 1212 696 1203 705 q 1221 678 1221 687 q 1179 541 1221 646 q 1095 323 1137 436 q 1053 160 1053 211 q 1099 108 1053 108 q 1225 133 1144 108 q 1339 175 1306 158 q 1380 193 1371 193 q 1406 168 1406 193 q 1370 122 1406 144 q 1282 77 1334 100 q 1159 29 1231 54 q 822 -27 994 -27 q 629 65 651 -27 q 521 22 563 37 q 404 -9 479 7 q 267 -27 330 -27 q 68 135 68 -27 q 90 272 68 191 q 138 417 111 352 q 208 632 208 590 q 220 686 208 674 q 274 697 232 697 m 493 884 q 462 928 462 884 q 482 996 462 971 q 526 1020 502 1020 l 788 1007 q 923 1013 839 1007 q 1041 1020 1007 1020 q 1065 977 1065 1020 q 1046 909 1065 933 q 994 884 1026 884 q 881 891 962 884 q 746 897 799 897 q 611 891 693 897 q 493 884 529 884 "},"Ẅ":{"x_min":76.640625,"x_max":2054.34375,"ha":1966,"o":"m 1757 1027 l 2031 1034 q 2054 1021 2054 1034 q 2034 921 2054 988 q 1852 539 1978 724 q 1450 128 1689 299 q 1237 8 1341 50 q 1049 -33 1133 -33 q 874 155 924 -33 q 652 16 760 67 q 460 -33 543 -33 q 301 37 376 -33 q 180 226 225 109 q 135 467 135 342 q 181 689 135 570 q 211 763 197 730 q 225 808 225 796 q 217 828 225 819 q 191 843 209 837 q 133 857 166 852 q 76 897 76 866 q 143 959 76 925 q 327 1016 210 992 q 549 1041 444 1041 q 702 1028 654 1041 q 751 979 751 1015 q 740 944 751 963 q 569 598 614 735 q 524 301 524 462 q 539 196 524 248 q 577 143 554 143 q 657 188 608 143 q 762 315 706 233 q 873 497 819 396 q 1049 968 996 725 q 1097 1013 1056 1008 l 1384 1021 q 1407 1005 1407 1021 q 1279 666 1376 859 q 1204 518 1241 590 q 1122 269 1122 353 q 1144 153 1122 177 q 1178 143 1154 143 q 1250 179 1201 143 q 1361 289 1300 215 q 1483 461 1422 362 q 1709 982 1623 686 q 1757 1027 1723 1027 m 1192 1186 q 1103 1131 1157 1150 q 986 1112 1049 1112 q 877 1141 923 1112 q 832 1215 832 1170 q 867 1295 832 1259 q 955 1350 902 1330 q 1073 1370 1009 1370 q 1182 1340 1136 1370 q 1227 1265 1227 1310 q 1192 1186 1227 1221 m 1729 1262 q 1656 1156 1729 1200 q 1504 1112 1584 1112 q 1379 1141 1425 1112 q 1334 1215 1334 1170 q 1368 1295 1334 1259 q 1457 1350 1403 1330 q 1575 1370 1511 1370 q 1684 1340 1638 1370 q 1729 1262 1729 1310 "},"ȷ":{"x_min":-210.921875,"x_max":826.75,"ha":695,"o":"m 796 193 q 826 165 826 193 q 654 70 826 127 q 430 14 547 34 q 387 -122 414 -42 q 270 -293 348 -241 q 57 -345 192 -345 q -158 -311 -78 -345 q -210 -259 -210 -290 q -175 -228 -210 -228 l -129 -231 q -27 -124 -78 -231 q 50 91 2 -59 q 206 662 148 395 q 220 691 210 682 q 257 699 229 699 l 587 707 q 616 698 604 707 q 627 675 627 689 q 613 624 627 660 q 584 549 598 588 q 555 466 569 510 q 533 396 541 423 q 510 320 524 369 q 493 255 497 270 q 474 183 489 240 q 457 119 459 126 q 728 172 613 128 q 796 193 783 193 "},"ņ":{"x_min":10.171875,"x_max":1406.640625,"ha":1275,"o":"m 1381 193 q 1406 169 1406 193 q 1381 128 1406 146 q 1308 88 1357 111 q 1189 38 1260 65 q 1023 -7 1117 11 q 844 -27 929 -27 q 642 65 642 -27 q 711 278 642 124 q 779 485 779 432 q 685 545 779 545 q 588 535 642 545 q 496 246 562 444 q 421 21 430 48 q 385 -6 413 -6 l 35 -13 q 19 -4 28 -13 q 10 17 10 4 q 39 106 10 29 q 102 270 67 182 q 166 463 137 358 q 195 638 195 569 l 194 663 q 260 697 194 697 l 581 705 q 608 694 599 705 q 617 669 617 684 q 609 619 617 653 q 1001 719 848 719 q 1120 683 1066 719 q 1180 562 1180 643 q 1117 343 1180 478 q 1053 177 1053 208 q 1104 113 1053 113 q 1213 138 1136 113 q 1326 177 1289 162 q 1381 193 1363 193 m 542 -274 q 457 -281 514 -281 q 276 -197 276 -281 q 356 -109 276 -145 q 558 -73 436 -73 q 666 -93 624 -73 q 744 -201 744 -128 q 712 -293 744 -252 q 628 -358 681 -333 q 363 -406 517 -406 q 305 -379 305 -406 q 355 -337 305 -351 q 405 -324 371 -333 q 455 -311 440 -316 q 542 -274 501 -298 "},"µ":{"x_min":-44.078125,"x_max":942.734375,"ha":1003,"o":"m 883 705 q 909 675 909 705 q 874 542 909 646 q 803 328 838 439 q 768 180 768 218 q 813 107 768 107 q 876 124 845 107 q 916 141 907 141 q 942 116 942 141 q 901 42 942 83 q 738 -27 832 -27 q 589 86 613 -27 q 476 4 547 35 q 323 -26 405 -26 q 215 48 241 -26 q 118 -303 195 -16 q 71 -327 111 -326 l -16 -337 q -37 -331 -31 -337 q -44 -301 -44 -325 q -30 -231 -44 -277 q 48 29 -17 -185 q 201 642 201 517 q 211 685 201 672 q 247 697 221 697 l 357 705 q 383 694 375 705 q 392 658 392 684 q 363 538 392 633 q 306 345 335 442 q 277 207 277 248 q 304 145 277 167 q 383 124 331 124 q 603 225 503 124 q 663 424 613 261 q 733 672 712 586 q 769 697 739 697 l 883 705 "},"ỳ":{"x_min":0,"x_max":1404.59375,"ha":1273,"o":"m 1379 193 q 1404 170 1404 193 q 1230 52 1404 124 q 992 -21 1122 6 q 963 -101 975 -66 q 915 -179 950 -136 q 835 -252 881 -223 q 735 -301 788 -281 q 615 -332 682 -321 q 334 -352 495 -352 q 86 -316 173 -352 q 0 -212 0 -280 q 33 -141 0 -173 q 122 -88 67 -109 q 261 -48 177 -66 q 624 0 406 -19 q 651 100 642 59 q 288 27 453 27 q 68 172 68 27 q 129 426 68 275 q 191 638 191 577 l 190 663 q 256 697 190 697 l 414 695 l 557 705 q 583 694 575 705 q 592 658 592 684 q 572 567 592 632 q 529 446 552 502 q 464 242 464 295 q 486 197 464 212 q 543 181 507 181 q 682 223 617 181 q 815 659 754 419 q 851 684 822 684 q 1062 694 950 684 q 1191 705 1175 705 q 1218 697 1208 705 q 1227 681 1227 689 q 1024 70 1227 652 q 1211 127 1125 94 q 1329 176 1298 160 q 1379 193 1361 193 m 566 -171 q 600 -78 585 -122 q 295 -219 295 -116 q 322 -268 295 -245 q 377 -292 349 -292 q 493 -260 439 -292 q 566 -171 546 -229 m 606 1163 q 768 1046 687 1118 q 894 915 848 974 q 941 836 941 855 q 932 809 941 817 q 916 801 924 801 q 799 848 908 801 q 536 947 691 894 q 447 1035 447 977 q 493 1124 447 1080 q 581 1168 538 1168 q 606 1163 598 1168 "},"č":{"x_min":49.515625,"x_max":1174,"ha":1042,"o":"m 469 442 q 438 289 438 359 q 452 185 438 219 q 495 132 466 151 q 878 126 592 71 q 1077 172 1015 151 q 1150 193 1139 193 q 1174 170 1174 193 q 1138 123 1174 147 q 870 17 1043 61 q 483 -27 697 -27 q 160 48 270 -27 q 49 259 49 124 q 84 416 49 342 q 180 544 119 490 q 321 639 240 599 q 687 719 482 719 q 1022 664 926 719 q 1033 631 1033 655 q 1012 552 1033 607 q 957 448 991 496 q 894 401 923 401 q 849 432 866 401 q 820 481 832 462 q 788 527 809 501 q 750 567 768 554 q 706 591 732 581 q 643 601 680 601 q 570 579 607 601 q 509 522 533 557 q 469 442 485 487 m 608 851 q 414 1142 414 1081 q 444 1171 414 1171 q 510 1146 473 1171 q 727 1007 616 1074 q 1004 1146 841 1058 q 1060 1166 1041 1166 q 1098 1134 1098 1166 q 1006 1012 1098 1102 q 796 841 914 921 q 750 817 770 823 q 685 812 730 812 q 608 851 641 812 "},"’":{"x_min":208.890625,"x_max":588.015625,"ha":555,"o":"m 242 595 q 208 625 208 595 q 253 706 208 647 q 338 851 338 820 q 309 926 338 881 q 281 994 281 971 q 338 1105 281 1053 q 460 1157 395 1157 q 556 1124 524 1157 q 588 1032 588 1091 q 528 854 588 944 q 363 663 468 763 q 242 595 292 595 "},"Ḟ":{"x_min":-26.453125,"x_max":1418.84375,"ha":1273,"o":"m 995 571 q 1093 526 1093 571 q 1060 424 1093 498 q 1006 318 1028 349 q 963 286 984 286 q 913 303 942 286 q 854 341 884 320 q 777 381 824 362 q 685 402 730 400 q 609 134 617 160 q 585 82 601 108 q 548 38 570 55 q 504 10 526 21 q 448 -5 481 0 q 150 6 295 -29 q 21 54 69 25 q -26 110 -26 83 q -11 135 -24 126 q 17 144 0 144 q 109 164 80 144 q 165 238 139 184 q 215 358 191 292 q 258 480 238 425 q 303 594 278 536 q 447 760 360 718 q 712 802 535 802 q 818 767 818 802 q 805 728 818 753 q 712 494 754 632 q 846 548 769 524 q 995 571 923 571 m 1202 712 q 962 852 1104 798 q 677 905 821 905 q 470 882 591 905 q 290 833 348 859 q 213 807 231 807 q 191 829 191 807 q 228 881 191 850 q 337 944 265 911 q 499 1005 408 976 q 950 1068 705 1068 q 1218 1055 1110 1068 q 1418 979 1418 1031 q 1391 887 1416 951 q 1332 764 1366 822 q 1275 698 1297 705 q 1242 694 1260 694 q 1202 712 1224 694 m 775 1315 q 986 1386 853 1386 q 1108 1355 1062 1386 q 1155 1278 1155 1325 q 1117 1196 1155 1230 q 1023 1144 1080 1162 q 898 1126 967 1126 q 784 1156 830 1126 q 737 1234 737 1186 q 775 1315 737 1281 "},"-":{"x_min":165.484375,"x_max":877.625,"ha":1003,"o":"m 200 322 q 165 362 165 322 q 176 438 165 421 q 232 472 198 468 q 319 476 266 476 l 602 470 l 843 476 q 877 436 877 476 q 866 360 877 377 q 810 326 845 330 q 723 322 776 322 l 440 328 l 200 322 "},"Q":{"x_min":91.5625,"x_max":1434.4375,"ha":1389,"o":"m 467 101 q 1102 -61 680 -61 q 1353 -21 1240 -61 q 1398 -12 1381 -12 q 1434 -46 1434 -12 q 1393 -137 1434 -73 q 1081 -345 1256 -345 q 910 -307 992 -345 q 658 -134 791 -254 q 467 101 525 -14 m 706 737 q 534 465 593 645 q 503 267 503 367 q 617 91 503 91 q 738 139 676 91 q 850 264 800 187 q 932 447 900 341 q 965 659 965 553 q 912 871 965 808 q 734 934 859 934 q 585 919 665 934 q 450 886 505 904 q 350 853 394 868 q 299 838 306 838 q 274 859 274 838 q 308 901 274 875 q 401 956 341 927 q 533 1010 461 985 q 864 1068 702 1068 q 1302 888 1174 1068 q 1377 625 1377 781 q 1336 402 1377 506 q 1220 220 1294 298 q 1047 86 1146 142 q 590 -27 845 -27 q 91 314 91 -27 q 132 497 91 409 q 241 650 174 585 q 393 763 309 714 q 736 861 564 861 q 775 851 763 861 q 787 831 787 841 q 784 814 787 821 q 772 797 781 807 q 756 781 763 788 q 706 737 739 766 "},"M":{"x_min":87.484375,"x_max":2031.28125,"ha":2084,"o":"m 301 832 l 221 815 q 198 819 206 815 q 191 839 191 824 q 252 917 191 864 q 423 1012 313 970 q 619 1055 534 1055 q 735 1020 704 1055 q 767 906 767 985 q 764 871 767 895 q 1216 1069 1010 1069 q 1363 1025 1313 1069 q 1414 900 1414 981 l 1414 894 q 1815 1069 1638 1069 q 1973 1022 1915 1069 q 2031 895 2031 975 q 1996 712 2031 815 q 1920 528 1961 609 q 1808 238 1808 309 q 1835 166 1808 192 q 1892 135 1863 140 q 1931 127 1922 130 q 1952 120 1941 125 q 1974 92 1974 112 q 1869 8 1974 44 q 1611 -27 1764 -27 q 1407 124 1407 -27 q 1441 291 1407 191 q 1516 478 1475 392 q 1624 786 1624 708 q 1607 832 1624 814 q 1555 849 1591 849 q 1399 800 1494 849 q 1296 517 1372 697 q 1188 228 1220 336 q 1151 44 1155 121 q 1139 6 1150 21 q 1110 -8 1127 -8 l 834 -12 q 746 12 762 -12 q 738 46 738 23 q 754 133 738 68 q 814 315 769 198 q 900 517 859 431 q 1002 788 1002 735 q 927 850 1002 850 q 748 792 853 850 q 662 551 725 704 q 553 271 600 397 q 507 82 507 145 l 509 37 q 486 4 509 16 q 438 -8 463 -8 l 186 -12 q 94 13 111 -12 q 87 53 87 26 q 99 130 87 80 q 172 326 110 180 q 285 598 234 472 q 337 764 337 723 q 328 818 337 805 q 301 832 319 832 "},"œ":{"x_min":42.734375,"x_max":1792.546875,"ha":1665,"o":"m 1768 193 q 1792 171 1792 193 q 1760 130 1792 149 q 1680 90 1728 111 q 1549 40 1633 69 q 1131 -27 1357 -27 q 807 33 906 -27 q 497 -27 674 -27 q 170 45 290 -27 q 42 278 42 122 q 76 431 42 359 q 168 554 109 502 q 305 644 227 607 q 664 719 461 719 q 965 648 867 719 q 1291 719 1112 719 q 1551 666 1471 719 q 1631 518 1631 612 q 1554 361 1631 422 q 1350 270 1477 300 q 1056 228 1222 240 q 1207 97 1067 123 q 1283 91 1243 91 q 1741 187 1441 91 q 1768 193 1759 193 m 416 218 q 507 92 416 92 q 616 156 566 92 q 695 314 667 220 q 723 506 723 408 q 655 604 723 604 q 539 548 595 604 q 450 402 483 492 q 416 218 416 312 m 1057 303 q 1243 402 1175 335 q 1312 564 1312 470 q 1296 604 1312 590 q 1246 619 1279 619 q 1178 591 1214 619 q 1118 516 1142 562 q 1057 303 1066 421 "},"ě":{"x_min":39.34375,"x_max":1174,"ha":1042,"o":"m 1150 193 q 1174 171 1174 193 q 1141 130 1174 149 q 1062 90 1109 111 q 931 40 1014 69 q 497 -27 739 -27 q 39 255 39 -27 q 126 499 39 392 q 360 662 213 606 q 679 719 506 719 q 932 666 852 719 q 1013 518 1013 612 q 936 361 1013 422 q 731 270 859 300 q 438 228 603 240 q 588 97 448 123 q 664 91 624 91 q 1122 187 823 91 q 1150 193 1140 193 m 438 303 q 625 402 556 335 q 693 564 693 470 q 677 604 693 590 q 628 619 661 619 q 559 591 595 619 q 499 516 524 562 q 438 303 448 421 m 553 851 q 359 1142 359 1081 q 388 1171 359 1171 q 455 1146 418 1171 q 672 1007 560 1074 q 949 1146 786 1058 q 1005 1166 986 1166 q 1043 1134 1043 1166 q 951 1012 1043 1102 q 741 841 859 921 q 695 817 715 823 q 630 812 675 812 q 553 851 585 812 "},"ũ":{"x_min":68.5,"x_max":1406.640625,"ha":1275,"o":"m 274 697 l 581 705 q 607 694 598 705 q 616 663 616 684 q 578 556 616 642 q 503 372 541 470 q 465 230 465 275 q 554 146 465 146 q 648 157 597 146 q 702 309 664 215 q 818 672 798 548 q 854 697 822 697 q 1061 701 952 697 q 1186 705 1169 705 q 1212 696 1203 705 q 1221 678 1221 687 q 1179 541 1221 646 q 1095 323 1137 436 q 1053 160 1053 211 q 1099 108 1053 108 q 1225 133 1144 108 q 1339 175 1306 158 q 1380 193 1371 193 q 1406 168 1406 193 q 1370 122 1406 144 q 1282 77 1334 100 q 1159 29 1231 54 q 822 -27 994 -27 q 629 65 651 -27 q 521 22 563 37 q 404 -9 479 7 q 267 -27 330 -27 q 68 135 68 -27 q 90 272 68 191 q 138 417 111 352 q 208 632 208 590 q 220 686 208 674 q 274 697 232 697 m 460 875 q 413 908 413 875 q 430 950 413 930 q 464 988 447 971 q 670 1105 571 1105 q 826 1063 741 1105 q 959 1020 911 1020 q 1034 1049 978 1020 q 1113 1079 1091 1079 q 1163 1045 1163 1079 q 1112 965 1163 1020 q 905 848 1006 848 q 803 869 858 848 q 700 912 749 891 q 624 933 651 933 q 541 904 598 933 q 460 875 485 875 "},"ŭ":{"x_min":68.5,"x_max":1406.640625,"ha":1275,"o":"m 274 697 l 581 705 q 607 694 598 705 q 616 663 616 684 q 578 556 616 642 q 503 372 541 470 q 465 230 465 275 q 554 146 465 146 q 648 157 597 146 q 702 309 664 215 q 818 672 798 548 q 854 697 822 697 q 1061 701 952 697 q 1186 705 1169 705 q 1212 696 1203 705 q 1221 678 1221 687 q 1179 541 1221 646 q 1095 323 1137 436 q 1053 160 1053 211 q 1099 108 1053 108 q 1225 133 1144 108 q 1339 175 1306 158 q 1380 193 1371 193 q 1406 168 1406 193 q 1370 122 1406 144 q 1282 77 1334 100 q 1159 29 1231 54 q 822 -27 994 -27 q 629 65 651 -27 q 521 22 563 37 q 404 -9 479 7 q 267 -27 330 -27 q 68 135 68 -27 q 90 272 68 191 q 138 417 111 352 q 208 632 208 590 q 220 686 208 674 q 274 697 232 697 m 526 931 q 479 992 503 956 q 456 1072 456 1028 q 503 1116 456 1116 q 587 1082 529 1116 q 798 1018 696 1018 q 1032 1082 933 1018 q 1106 1117 1086 1117 q 1140 1089 1140 1117 q 1074 975 1140 1042 q 768 838 936 838 q 526 931 616 838 "},"{":{"x_min":153.28125,"x_max":955.609375,"ha":809,"o":"m 578 -156 l 356 -149 q 216 -127 259 -149 q 172 -58 172 -105 q 204 83 172 -11 q 267 276 236 179 q 299 408 299 373 q 282 451 299 444 q 223 458 265 458 q 167 465 181 458 q 153 496 153 473 q 162 534 153 519 q 201 555 171 548 q 262 563 231 561 q 322 580 293 566 q 358 623 350 595 q 412 838 395 764 q 442 959 429 912 q 463 1029 455 1006 q 485 1077 471 1051 q 513 1113 499 1103 q 548 1133 526 1123 q 655 1148 579 1148 l 931 1150 q 955 1104 955 1150 q 891 1034 955 1034 l 794 1048 q 686 984 714 1048 q 600 632 657 919 q 596 609 597 617 q 343 516 577 520 q 453 499 402 514 q 550 419 550 470 q 489 210 550 390 q 427 5 427 29 q 508 -60 427 -60 l 619 -40 q 642 -86 642 -40 q 578 -156 642 -156 "},"¼":{"x_min":312.65625,"x_max":1878,"ha":2040,"o":"m 1756 215 l 1855 219 q 1878 206 1878 219 q 1871 162 1878 172 q 1842 149 1864 151 q 1740 143 1820 147 q 1727 66 1728 88 q 1724 32 1726 44 q 1722 16 1722 20 q 1705 0 1722 6 q 1669 -4 1688 -4 l 1424 -6 q 1366 20 1366 -6 q 1376 59 1366 40 q 1418 132 1385 78 q 1096 124 1182 124 q 978 130 1010 124 q 893 185 893 145 q 937 245 893 206 q 1141 488 1031 327 q 1169 514 1154 507 q 1214 522 1184 522 q 1496 527 1214 522 q 1537 510 1537 527 q 1531 495 1537 503 q 1440 421 1525 487 q 1193 212 1193 227 q 1292 206 1193 204 q 1402 208 1390 208 q 1437 209 1415 208 q 1469 210 1459 210 q 1541 328 1534 309 q 1589 348 1549 348 l 1706 347 q 1758 339 1743 347 q 1774 310 1774 330 q 1756 215 1774 290 m 538 925 l 409 907 q 379 931 379 907 q 417 966 379 951 q 815 1066 664 1066 q 923 1007 923 1066 q 880 855 923 953 q 821 716 836 756 q 792 628 806 676 q 778 567 778 580 q 767 543 778 553 q 739 534 756 534 l 506 529 q 436 538 446 529 q 427 562 427 548 q 442 608 427 576 q 499 727 457 639 q 577 906 577 885 q 538 925 577 925 m 1566 1007 q 1521 935 1566 973 l 418 22 q 360 -6 383 -6 q 324 5 336 -6 q 312 36 312 17 q 358 106 312 68 l 1460 1020 q 1519 1048 1495 1048 q 1554 1036 1542 1048 q 1566 1007 1566 1024 "},"#":{"x_min":178.375,"x_max":1001.734375,"ha":1003,"o":"m 283 636 q 248 676 248 636 q 260 745 248 732 q 315 773 281 769 q 402 777 349 777 l 417 777 l 428 819 q 459 949 439 862 q 484 1053 480 1037 q 516 1078 491 1078 q 573 1063 548 1078 q 603 1035 597 1047 q 609 1006 609 1022 q 607 975 609 990 q 603 953 604 961 q 596 927 601 945 q 589 902 591 909 q 553 773 584 883 q 670 771 620 771 q 741 771 720 771 l 754 819 q 785 949 765 862 q 809 1053 805 1037 q 842 1078 816 1078 q 898 1063 874 1078 q 928 1035 923 1047 q 934 1006 934 1022 q 932 975 934 990 q 928 953 930 961 q 922 927 927 945 q 914 902 916 909 q 879 775 912 894 q 967 777 940 777 q 1001 737 1001 777 q 990 669 1001 682 q 934 641 969 644 q 847 637 900 637 l 841 637 l 800 490 q 896 493 887 493 q 931 453 931 493 q 919 384 931 397 q 864 356 898 360 q 777 352 830 352 l 762 352 q 684 36 746 297 q 651 10 677 10 q 618 18 641 10 q 583 34 596 26 q 558 85 558 50 q 573 169 558 120 q 625 355 587 219 q 453 358 524 358 l 438 358 q 425 310 434 341 q 409 252 416 279 q 382 136 402 225 q 358 36 361 47 q 326 10 352 10 q 293 18 316 10 q 257 34 270 26 q 233 85 233 50 q 248 171 233 120 q 299 354 263 223 q 212 352 223 352 q 178 392 178 352 q 189 460 178 447 q 245 488 210 484 q 332 492 279 492 l 338 492 l 379 639 q 283 636 296 636 m 615 486 l 661 486 l 704 640 q 523 643 547 643 l 517 643 l 474 489 q 615 486 569 486 "},"\u0018":{"x_min":0,"x_max":0,"ha":0},"Ĳ":{"x_min":48.828125,"x_max":1828.484375,"ha":1853,"o":"m 316 402 q 151 666 151 504 q 187 800 151 737 q 282 906 223 862 q 416 980 341 949 q 729 1041 564 1041 q 869 998 832 1041 q 902 897 902 959 q 872 736 902 835 q 779 459 843 636 q 683 180 716 282 q 581 32 651 79 q 388 -13 512 -13 q 157 17 265 -13 q 48 88 48 48 q 94 123 48 118 q 191 153 161 131 q 248 230 221 174 q 316 402 274 286 m 439 828 q 429 854 439 844 q 404 864 419 864 q 373 853 389 864 q 337 819 356 842 q 292 667 292 764 q 344 486 292 570 q 439 828 439 768 m 1388 -230 q 1069 -345 1270 -345 q 909 -298 972 -345 q 846 -169 846 -250 q 875 -21 846 -87 q 955 96 904 44 q 1200 261 1053 196 q 1266 453 1216 311 q 1367 795 1367 735 q 1359 826 1367 817 q 1324 835 1352 835 q 1182 786 1296 835 q 1120 773 1150 773 q 1089 800 1089 773 q 1111 839 1089 819 q 1357 982 1207 923 q 1625 1041 1506 1041 q 1786 1015 1743 1041 q 1828 925 1828 990 q 1790 733 1828 861 q 1677 395 1752 605 q 1572 93 1602 185 q 1495 -85 1541 0 q 1388 -230 1449 -170 m 1014 -248 q 1052 -193 1031 -248 q 1169 162 1083 -112 q 1034 8 1090 96 q 979 -164 979 -79 q 1014 -248 979 -248 "},"Ê":{"x_min":40.6875,"x_max":1319.140625,"ha":1273,"o":"m 940 623 q 965 583 965 623 q 940 515 965 543 q 884 484 914 486 q 821 478 853 482 q 748 464 789 473 q 673 442 707 456 q 610 408 639 427 q 546 297 546 368 q 570 216 546 250 q 631 162 593 181 q 793 125 704 125 q 1142 183 929 125 q 1163 187 1154 187 q 1188 161 1188 187 q 1092 69 1188 113 q 856 -1 995 24 q 593 -27 717 -27 q 372 -11 470 -27 q 199 35 274 4 q 82 119 124 67 q 40 240 40 172 q 81 363 40 309 q 189 454 122 418 q 345 514 257 489 q 715 558 513 558 q 500 583 571 566 q 388 616 430 600 q 320 652 347 632 q 256 767 256 698 q 308 895 256 836 q 445 991 360 954 q 856 1068 622 1068 q 1293 997 1174 1068 q 1319 951 1319 982 q 1274 852 1319 921 q 1202 756 1230 783 q 1151 730 1175 730 q 1109 747 1128 730 q 1079 789 1090 764 q 851 955 1005 955 q 700 907 762 955 q 639 789 639 858 q 710 669 639 719 q 883 619 781 619 l 940 623 m 921 1208 q 602 1103 647 1103 q 579 1111 588 1103 q 569 1133 569 1119 q 642 1219 569 1162 q 851 1361 716 1275 q 898 1383 878 1378 q 952 1389 918 1389 q 1007 1379 986 1389 q 1046 1350 1027 1369 q 1181 1207 1135 1262 q 1226 1125 1226 1152 q 1194 1098 1226 1098 q 1106 1121 1162 1098 q 921 1208 1011 1159 "},")":{"x_min":-88.171875,"x_max":668.046875,"ha":809,"o":"m -5 -131 q 306 200 175 -8 q 408 424 370 301 q 446 668 446 546 q 348 1040 446 865 q 303 1103 335 1064 q 271 1150 271 1142 q 294 1171 271 1171 q 367 1145 316 1171 q 668 657 668 990 q 307 -40 668 224 q 53 -193 197 -122 q -57 -232 -26 -232 q -88 -212 -88 -232 q -41 -155 -88 -189 q -5 -131 -17 -139 "},"ș":{"x_min":-23.0625,"x_max":1171.96875,"ha":1040,"o":"m 492 -26 q 442 -27 475 -27 q 148 2 286 -27 q -14 69 10 31 q -23 100 -23 82 q 20 159 -23 118 q 80 199 63 199 q 113 187 96 199 q 151 158 130 175 q 198 124 172 141 q 347 84 260 84 q 403 101 381 84 q 424 146 424 119 q 406 192 424 172 q 359 226 388 212 q 296 256 330 241 q 226 287 261 270 q 162 325 191 305 q 98 438 98 370 q 139 555 98 505 q 242 634 180 604 q 383 685 305 664 q 645 719 522 719 q 874 707 768 719 q 1020 670 980 694 q 1031 637 1031 663 q 1013 563 1031 611 q 966 473 994 514 q 916 432 938 432 q 901 440 907 432 q 776 559 836 517 q 644 600 715 600 q 566 578 590 600 q 543 533 543 556 q 569 487 543 509 q 634 448 595 465 q 719 407 673 430 q 804 359 765 383 q 869 299 843 335 q 895 208 895 263 q 855 101 895 153 q 1118 184 1023 134 q 1146 193 1134 193 q 1171 167 1171 193 q 1145 127 1171 145 q 1058 84 1119 109 q 912 33 996 59 q 492 -26 716 -26 m 477 -274 q 392 -281 448 -281 q 210 -197 210 -281 q 290 -109 210 -145 q 493 -73 370 -73 q 601 -93 559 -73 q 678 -201 678 -128 q 647 -293 678 -252 q 562 -358 616 -333 q 298 -406 452 -406 q 240 -379 240 -406 q 290 -337 240 -351 q 340 -324 306 -333 q 390 -311 375 -316 q 477 -274 436 -298 "},"Å":{"x_min":-23.0625,"x_max":1227.578125,"ha":1275,"o":"m 802 -27 q 576 122 576 -27 q 684 464 576 208 q 792 819 792 720 q 751 898 792 874 q 632 921 710 921 q 474 908 554 921 q 372 894 394 894 q 349 914 349 894 q 444 984 349 941 q 849 1068 628 1068 q 1111 1005 1024 1068 q 1199 800 1199 942 q 1169 590 1199 716 q 1109 352 1139 463 q 1080 200 1080 241 q 1096 142 1080 158 q 1171 122 1115 122 q 1210 114 1206 122 q 1215 99 1215 107 q 1186 48 1215 67 q 802 -27 1079 -27 m 407 463 l 581 467 q 628 440 628 467 q 606 408 628 420 q 335 358 527 368 q 280 167 280 249 q 289 100 280 130 q 299 55 299 69 q 253 7 299 19 q 120 -5 208 -5 q 4 10 32 -5 q -23 67 -23 26 q 21 234 -23 143 q 134 409 65 326 q 288 574 204 493 q 451 713 372 655 q 691 844 628 844 q 720 826 720 844 q 692 787 720 809 q 548 653 632 743 q 398 463 463 562 l 407 463 m 965 1287 q 875 1272 910 1287 q 827 1239 841 1257 q 813 1190 813 1220 q 843 1143 813 1161 q 924 1125 873 1125 q 1016 1148 975 1125 q 1058 1211 1058 1171 q 965 1287 1058 1287 m 645 1181 q 737 1327 645 1271 q 965 1383 830 1383 q 1227 1238 1227 1383 q 1133 1097 1227 1152 q 907 1041 1040 1041 q 645 1181 645 1041 "},"¸":{"x_min":145.8125,"x_max":687.046875,"ha":834,"o":"m 520 -75 q 641 -116 596 -75 q 687 -221 687 -156 q 656 -328 687 -286 q 464 -406 597 -406 q 215 -338 331 -406 q 163 -298 180 -317 q 145 -260 145 -280 q 181 -220 145 -220 q 225 -237 196 -220 q 312 -272 254 -254 q 409 -291 370 -291 q 469 -274 448 -291 q 489 -229 489 -257 q 470 -184 489 -201 q 405 -168 450 -168 q 337 -161 361 -168 q 314 -128 314 -153 q 346 -36 314 -103 q 418 67 378 29 l 467 44 l 428 -86 q 520 -75 480 -75 "},"a":{"x_min":54.9375,"x_max":1404.59375,"ha":1273,"o":"m 533 145 q 746 340 661 145 q 786 485 786 430 q 767 562 786 541 q 694 583 748 583 q 576 532 639 583 q 474 405 512 482 q 435 267 435 328 q 462 175 435 206 q 533 145 489 145 m 886 719 l 1197 705 q 1223 694 1214 705 q 1232 671 1232 684 q 1191 513 1232 621 q 1109 299 1150 405 q 1068 159 1068 193 q 1078 115 1068 124 q 1119 105 1089 105 q 1227 134 1148 105 q 1335 178 1306 163 q 1378 193 1363 193 q 1404 169 1404 193 q 1201 37 1404 119 q 1035 -8 1132 10 q 839 -27 939 -27 q 639 78 673 -27 q 354 -27 533 -27 q 147 31 231 -27 q 54 234 54 96 q 141 503 54 380 q 393 691 235 639 q 581 719 480 719 q 820 643 735 719 q 821 656 821 647 l 820 685 q 886 719 820 719 "},"Ę":{"x_min":40.6875,"x_max":1319.140625,"ha":1273,"o":"m 906 -260 l 976 -254 q 1005 -280 1005 -254 q 924 -341 1005 -315 q 740 -367 843 -367 q 592 -336 638 -367 q 545 -250 545 -305 q 608 -130 545 -196 q 764 -14 671 -65 q 954 65 856 35 l 1061 56 q 1014 38 1049 51 q 954 13 980 25 q 851 -68 900 -10 q 803 -181 803 -125 q 906 -260 803 -260 m 940 623 q 965 583 965 623 q 940 515 965 543 q 884 484 914 486 q 821 478 853 482 q 748 464 789 473 q 673 442 707 456 q 610 408 639 427 q 546 297 546 368 q 570 216 546 250 q 631 162 593 181 q 793 125 704 125 q 1142 183 929 125 q 1163 187 1154 187 q 1188 161 1188 187 q 1092 69 1188 113 q 856 -1 995 24 q 593 -27 717 -27 q 372 -11 470 -27 q 199 35 274 4 q 82 119 124 67 q 40 240 40 172 q 81 363 40 309 q 189 454 122 418 q 345 514 257 489 q 715 558 513 558 q 500 583 571 566 q 388 616 430 600 q 320 652 347 632 q 256 767 256 698 q 308 895 256 836 q 445 991 360 954 q 856 1068 622 1068 q 1293 997 1174 1068 q 1319 951 1319 982 q 1274 852 1319 921 q 1202 756 1230 783 q 1151 730 1175 730 q 1109 747 1128 730 q 1079 789 1090 764 q 851 955 1005 955 q 700 907 762 955 q 639 789 639 858 q 710 669 639 719 q 883 619 781 619 l 940 623 "},"=":{"x_min":146.5,"x_max":929.171875,"ha":1003,"o":"m 181 186 q 146 226 146 186 q 157 302 146 286 q 213 336 179 333 q 300 340 247 340 l 583 334 l 824 341 q 858 301 858 341 q 847 225 858 241 q 791 190 826 194 q 704 187 757 187 l 421 193 l 181 186 m 251 498 q 217 538 217 498 q 227 614 217 598 q 283 648 249 644 q 370 652 318 652 l 654 646 l 894 653 q 929 613 929 653 q 918 537 929 553 q 862 502 896 506 q 775 499 828 499 l 491 505 l 251 498 "},"˚":{"x_min":132.25,"x_max":700.609375,"ha":834,"o":"m 531 973 q 507 1023 531 1005 q 445 1041 483 1041 q 376 1033 407 1041 q 323 1001 345 1024 q 300 942 300 978 q 328 886 300 906 q 404 866 356 866 q 492 893 453 866 q 531 973 531 921 m 446 1137 q 700 985 700 1137 q 609 839 700 898 q 387 781 518 781 q 132 928 132 781 q 222 1078 132 1019 q 446 1137 311 1137 "},"ú":{"x_min":68.5,"x_max":1406.640625,"ha":1275,"o":"m 274 697 l 581 705 q 607 694 598 705 q 616 663 616 684 q 578 556 616 642 q 503 372 541 470 q 465 230 465 275 q 554 146 465 146 q 648 157 597 146 q 702 309 664 215 q 818 672 798 548 q 854 697 822 697 q 1061 701 952 697 q 1186 705 1169 705 q 1212 696 1203 705 q 1221 678 1221 687 q 1179 541 1221 646 q 1095 323 1137 436 q 1053 160 1053 211 q 1099 108 1053 108 q 1225 133 1144 108 q 1339 175 1306 158 q 1380 193 1371 193 q 1406 168 1406 193 q 1370 122 1406 144 q 1282 77 1334 100 q 1159 29 1231 54 q 822 -27 994 -27 q 629 65 651 -27 q 521 22 563 37 q 404 -9 479 7 q 267 -27 330 -27 q 68 135 68 -27 q 90 272 68 191 q 138 417 111 352 q 208 632 208 590 q 220 686 208 674 q 274 697 232 697 m 867 1161 q 902 1168 881 1168 q 999 1130 950 1168 q 1048 1051 1048 1093 q 972 973 1048 1001 q 585 814 744 890 q 539 801 558 801 q 512 826 512 801 q 559 910 512 851 q 692 1040 607 968 q 867 1161 777 1112 "},"¯":{"x_min":115.296875,"x_max":718.234375,"ha":834,"o":"m 145 884 q 115 928 115 884 q 135 996 115 971 q 179 1020 155 1020 l 441 1007 q 576 1013 492 1007 q 694 1020 660 1020 q 718 977 718 1020 q 698 909 718 933 q 647 884 679 884 q 533 891 615 884 q 399 897 452 897 q 264 891 346 897 q 145 884 182 884 "},"Z":{"x_min":-15.59375,"x_max":1289.296875,"ha":1273,"o":"m 1150 309 q 1196 271 1196 309 q 1166 155 1196 229 q 1112 43 1136 80 q 1045 -10 1089 6 q 907 -27 1000 -27 q 691 -4 815 -27 q 474 59 567 18 q 388 -6 421 12 q 314 -25 355 -25 q 178 0 273 -25 q 44 44 83 25 q -5 73 4 63 q -15 102 -15 84 q 273 402 -15 170 q 523 603 396 501 q 888 965 834 853 q 987 1049 927 1049 q 1166 990 1049 1049 q 1252 928 1216 964 q 1289 858 1289 891 q 1288 851 1288 858 q 1222 726 1281 804 q 1077 567 1162 649 q 893 401 992 486 q 560 144 704 241 q 784 174 672 147 q 966 230 896 200 q 1089 284 1035 260 q 1150 309 1142 309 m 504 1023 q 775 950 775 1023 q 751 904 775 921 q 659 873 727 888 q 511 827 592 858 q 387 770 430 795 q 243 709 281 709 q 205 769 205 709 q 222 863 205 811 q 271 958 238 914 q 343 1009 304 1001 q 504 1023 411 1023 "},"u":{"x_min":68.5,"x_max":1406.640625,"ha":1275,"o":"m 274 697 l 581 705 q 607 694 598 705 q 616 663 616 684 q 578 556 616 642 q 503 372 541 470 q 465 230 465 275 q 554 146 465 146 q 648 157 597 146 q 702 309 664 215 q 818 672 798 548 q 854 697 822 697 q 1061 701 952 697 q 1186 705 1169 705 q 1212 696 1203 705 q 1221 678 1221 687 q 1179 541 1221 646 q 1095 323 1137 436 q 1053 160 1053 211 q 1099 108 1053 108 q 1225 133 1144 108 q 1339 175 1306 158 q 1380 193 1371 193 q 1406 168 1406 193 q 1370 122 1406 144 q 1282 77 1334 100 q 1159 29 1231 54 q 822 -27 994 -27 q 629 65 651 -27 q 521 22 563 37 q 404 -9 479 7 q 267 -27 330 -27 q 68 135 68 -27 q 90 272 68 191 q 138 417 111 352 q 208 632 208 590 q 220 686 208 674 q 274 697 232 697 "},"k":{"x_min":8.8125,"x_max":1287.265625,"ha":1156,"o":"m 857 699 l 1122 707 q 1148 696 1140 707 q 1157 673 1157 686 q 1125 578 1157 624 q 1043 498 1093 533 q 925 434 992 463 q 663 351 805 380 q 832 365 760 365 q 1004 257 1004 365 q 995 207 1004 240 q 986 153 986 173 q 1030 109 986 109 q 1122 133 1062 109 q 1214 174 1182 156 q 1258 193 1247 193 q 1278 186 1269 193 q 1287 161 1287 179 q 1258 122 1287 143 q 1020 12 1159 52 q 772 -27 882 -27 q 624 -5 663 -27 q 585 67 585 16 q 600 146 585 93 q 614 231 614 200 q 506 330 614 321 q 419 18 425 108 q 383 -6 418 -6 l 34 -13 q 17 -4 27 -13 q 8 18 8 4 q 52 154 8 31 q 148 421 96 277 q 245 720 201 564 q 288 951 288 875 l 288 970 q 354 1004 288 1004 l 664 1006 q 690 996 680 1006 q 699 975 699 986 q 641 727 699 916 q 530 395 583 538 q 722 495 652 427 q 792 640 792 564 l 791 666 q 857 699 791 699 "},"Ù":{"x_min":146.5,"x_max":1466.3125,"ha":1508,"o":"m 1154 1035 l 1367 1032 q 1435 1010 1405 1032 q 1466 954 1466 988 q 1449 881 1466 921 q 1301 501 1363 688 q 1239 233 1239 314 q 1254 180 1239 200 q 1293 151 1270 159 q 1338 138 1315 143 q 1391 103 1391 126 q 1315 35 1391 67 q 1145 -11 1238 4 q 983 -27 1052 -27 q 790 129 790 -27 q 791 150 790 143 q 619 25 725 77 q 415 -27 514 -27 q 161 121 211 -27 q 146 229 146 165 q 172 381 146 293 q 230 534 198 468 q 299 676 261 600 q 354 809 354 786 q 271 867 354 853 q 238 881 250 870 q 225 908 225 891 q 246 943 225 924 q 308 979 267 962 q 405 1010 349 996 q 695 1041 529 1041 q 819 965 819 1041 q 779 866 819 952 q 690 678 738 780 q 600 457 641 577 q 560 277 560 337 q 583 199 560 217 q 638 181 607 181 q 687 184 669 181 q 724 191 706 186 q 753 199 741 196 q 781 208 764 202 q 800 215 798 215 q 946 636 831 363 q 1053 959 1053 893 q 1154 1035 1053 1035 m 1204 1135 q 1177 1109 1204 1109 q 1075 1132 1150 1109 q 764 1190 942 1172 q 699 1220 725 1193 q 674 1291 674 1246 q 710 1362 674 1335 q 806 1390 747 1390 q 940 1357 866 1390 q 1071 1281 1015 1325 q 1166 1196 1127 1238 q 1204 1135 1204 1155 "},"Ů":{"x_min":146.5,"x_max":1466.3125,"ha":1508,"o":"m 1154 1035 l 1367 1032 q 1435 1010 1405 1032 q 1466 954 1466 988 q 1449 881 1466 921 q 1301 501 1363 688 q 1239 233 1239 314 q 1254 180 1239 200 q 1293 151 1270 159 q 1338 138 1315 143 q 1391 103 1391 126 q 1315 35 1391 67 q 1145 -11 1238 4 q 983 -27 1052 -27 q 790 129 790 -27 q 791 150 790 143 q 619 25 725 77 q 415 -27 514 -27 q 161 121 211 -27 q 146 229 146 165 q 172 381 146 293 q 230 534 198 468 q 299 676 261 600 q 354 809 354 786 q 271 867 354 853 q 238 881 250 870 q 225 908 225 891 q 246 943 225 924 q 308 979 267 962 q 405 1010 349 996 q 695 1041 529 1041 q 819 965 819 1041 q 779 866 819 952 q 690 678 738 780 q 600 457 641 577 q 560 277 560 337 q 583 199 560 217 q 638 181 607 181 q 687 184 669 181 q 724 191 706 186 q 753 199 741 196 q 781 208 764 202 q 800 215 798 215 q 946 636 831 363 q 1053 959 1053 893 q 1154 1035 1053 1035 m 1122 1211 q 1030 1287 1122 1287 q 940 1272 973 1287 q 892 1239 906 1257 q 878 1190 878 1220 q 908 1143 878 1161 q 988 1125 937 1125 q 1081 1148 1039 1125 q 1122 1211 1122 1171 m 1030 1383 q 1292 1238 1292 1383 q 1198 1097 1292 1152 q 971 1041 1104 1041 q 710 1181 710 1041 q 802 1327 710 1271 q 1030 1383 894 1383 "},"¢":{"x_min":95.625,"x_max":1079.734375,"ha":1183,"o":"m 731 809 q 784 849 752 849 q 822 806 822 849 q 803 718 822 788 q 1058 668 959 711 q 1079 642 1079 659 q 1051 499 1079 570 q 1002 429 1023 429 q 982 440 990 429 q 770 591 896 558 q 631 79 714 381 q 786 149 699 86 q 942 273 859 201 q 967 282 953 282 q 995 258 995 282 q 978 128 995 229 q 942 16 961 27 q 602 -26 876 -23 l 567 -151 q 530 -192 556 -192 q 497 -150 497 -192 q 518 -26 497 -128 q 119 145 198 -18 q 95 259 95 196 q 145 444 95 359 q 279 588 195 530 q 697 718 455 709 q 731 809 718 784 m 545 103 q 663 598 601 370 q 580 553 617 588 q 523 471 543 518 q 492 372 502 423 q 481 270 481 320 q 497 174 481 219 q 545 103 514 129 "},"ḃ":{"x_min":31.875,"x_max":1404.59375,"ha":1273,"o":"m 406 52 q 153 -14 208 -14 q 65 8 99 -14 q 31 65 31 31 q 120 337 31 90 q 288 944 288 807 l 288 970 q 354 1004 288 1004 l 531 1004 l 667 1006 q 693 995 685 1006 q 702 972 702 985 q 577 577 702 909 l 578 578 q 721 682 637 645 q 902 719 805 719 q 1184 455 1184 719 q 1134 259 1184 353 q 998 94 1084 164 q 1346 183 1220 114 q 1378 193 1364 193 q 1404 171 1404 193 q 1380 132 1404 150 q 1106 23 1292 71 q 709 -24 921 -23 q 634 -27 675 -27 q 522 -5 594 -27 q 406 52 451 15 m 712 547 q 499 352 584 547 q 459 206 459 262 q 478 130 459 151 q 551 109 497 109 q 669 159 606 109 q 771 286 733 210 q 810 424 810 363 q 783 516 810 486 q 712 547 756 547 m 1248 996 q 1174 879 1248 929 q 1018 830 1100 830 q 890 863 936 830 q 845 945 845 897 q 880 1032 845 992 q 971 1094 915 1072 q 1092 1117 1026 1117 q 1203 1082 1158 1117 q 1248 996 1248 1047 "},"Ş":{"x_min":63.078125,"x_max":1360.953125,"ha":1273,"o":"m 1041 427 q 954 505 1002 467 q 859 577 907 543 q 773 640 812 611 q 709 699 733 670 q 684 746 684 727 q 694 787 684 764 q 704 822 704 811 q 690 843 704 834 q 647 851 676 851 q 441 819 541 851 q 342 775 385 801 q 270 706 298 748 q 242 610 242 663 q 325 457 242 535 q 406 387 362 422 q 496 322 451 353 q 578 263 541 291 q 638 209 615 236 q 661 163 661 183 q 639 122 661 142 q 567 101 617 101 q 359 165 466 101 q 277 217 315 191 q 211 262 240 244 q 169 281 183 281 q 104 197 145 281 q 63 86 63 112 q 80 52 63 61 q 286 0 128 27 q 576 -27 444 -27 q 799 -13 708 -27 q 967 31 891 0 q 1087 117 1044 61 q 1130 256 1130 172 q 1041 427 1130 339 m 1203 716 q 983 874 1114 822 q 709 926 851 926 q 206 828 448 926 q 160 815 173 815 q 132 841 132 815 q 169 891 132 862 q 273 951 205 920 q 427 1008 341 982 q 849 1068 624 1068 q 1352 975 1182 1068 q 1360 943 1361 969 q 1336 860 1359 916 q 1278 757 1312 805 q 1221 710 1245 710 q 1203 716 1215 716 m 652 -75 q 773 -116 728 -75 q 818 -221 818 -156 q 788 -328 818 -286 q 596 -406 729 -406 q 347 -338 463 -406 q 294 -298 311 -317 q 277 -260 277 -280 q 313 -220 277 -220 q 357 -237 328 -220 q 444 -272 385 -254 q 541 -291 502 -291 q 600 -274 580 -291 q 621 -229 621 -257 q 601 -184 621 -201 q 537 -168 581 -168 q 469 -161 493 -168 q 445 -128 445 -153 q 477 -36 445 -103 q 550 67 510 29 l 598 44 l 560 -86 q 652 -75 611 -75 "},"é":{"x_min":39.34375,"x_max":1174,"ha":1042,"o":"m 1150 193 q 1174 171 1174 193 q 1141 130 1174 149 q 1062 90 1109 111 q 931 40 1014 69 q 497 -27 739 -27 q 39 255 39 -27 q 126 499 39 392 q 360 662 213 606 q 679 719 506 719 q 932 666 852 719 q 1013 518 1013 612 q 936 361 1013 422 q 731 270 859 300 q 438 228 603 240 q 588 97 448 123 q 664 91 624 91 q 1122 187 823 91 q 1150 193 1140 193 m 438 303 q 625 402 556 335 q 693 564 693 470 q 677 604 693 590 q 628 619 661 619 q 559 591 595 619 q 499 516 524 562 q 438 303 448 421 m 779 1161 q 814 1168 794 1168 q 911 1130 862 1168 q 961 1051 961 1093 q 885 973 961 1001 q 497 814 656 890 q 452 801 471 801 q 424 826 424 801 q 472 910 424 851 q 604 1040 519 968 q 779 1161 690 1112 "},"B":{"x_min":-53.578125,"x_max":1401.890625,"ha":1388,"o":"m 872 -27 q 507 43 674 -27 q 422 -2 473 8 q 285 -13 370 -13 q 120 6 200 -13 q -6 54 40 25 q -53 109 -53 82 q -40 134 -53 125 q -8 144 -26 144 q 83 164 53 144 q 142 238 113 184 q 196 363 170 293 q 245 496 223 434 q 297 621 268 558 q 455 804 360 758 q 573 837 500 826 q 688 849 647 849 q 743 848 730 849 q 768 844 755 847 q 794 815 794 837 q 788 788 794 800 q 757 735 782 775 q 691 564 732 694 q 944 633 856 575 q 1031 784 1031 692 q 821 925 1031 908 q 696 928 778 928 q 514 909 614 928 q 357 866 413 889 q 255 824 300 843 q 196 805 209 805 q 161 828 161 805 q 205 884 161 851 q 327 948 249 916 q 499 1007 404 980 q 939 1068 712 1068 q 1284 998 1166 1068 q 1401 810 1401 927 q 1284 616 1401 693 q 963 531 1167 539 q 1204 467 1094 529 q 1290 391 1257 438 q 1323 281 1323 343 q 1297 164 1323 219 q 1228 74 1271 109 q 1125 16 1185 39 q 872 -27 1016 -27 m 672 505 q 621 332 659 462 q 568 159 583 202 q 552 113 553 115 q 622 111 574 111 q 729 124 670 111 q 835 164 788 137 q 909 238 883 191 q 936 349 936 284 q 859 459 936 415 q 672 505 783 502 "},"…":{"x_min":146.5,"x_max":2100.453125,"ha":2236,"o":"m 569 57 q 466 -12 530 13 q 326 -37 402 -37 q 198 0 250 -37 q 146 94 146 39 q 186 194 146 149 q 290 265 227 239 q 430 290 354 290 q 557 251 505 290 q 609 157 609 211 q 569 57 609 102 m 1315 57 q 1211 -12 1275 13 q 1071 -37 1147 -37 q 944 0 996 -37 q 891 94 891 39 q 932 194 891 149 q 1036 265 972 239 q 1175 290 1100 290 q 1303 251 1251 290 q 1355 157 1355 211 q 1315 57 1355 102 m 2060 57 q 1957 -12 2021 13 q 1817 -37 1892 -37 q 1689 0 1741 -37 q 1637 94 1637 39 q 1677 194 1637 149 q 1781 265 1717 239 q 1921 290 1845 290 q 2048 251 1996 290 q 2100 157 2100 211 q 2060 57 2100 102 "},"ē":{"x_min":39.34375,"x_max":1174,"ha":1042,"o":"m 1150 193 q 1174 171 1174 193 q 1141 130 1174 149 q 1062 90 1109 111 q 931 40 1014 69 q 497 -27 739 -27 q 39 255 39 -27 q 126 499 39 392 q 360 662 213 606 q 679 719 506 719 q 932 666 852 719 q 1013 518 1013 612 q 936 361 1013 422 q 731 270 859 300 q 438 228 603 240 q 588 97 448 123 q 664 91 624 91 q 1122 187 823 91 q 1150 193 1140 193 m 438 303 q 625 402 556 335 q 693 564 693 470 q 677 604 693 590 q 628 619 661 619 q 559 591 595 619 q 499 516 524 562 q 438 303 448 421 m 405 884 q 375 928 375 884 q 395 996 375 971 q 439 1020 415 1020 l 701 1007 q 836 1013 752 1007 q 954 1020 920 1020 q 978 977 978 1020 q 958 909 978 933 q 907 884 939 884 q 793 891 874 884 q 659 897 712 897 q 524 891 606 897 q 405 884 442 884 "},"H":{"x_min":80.703125,"x_max":1412.0625,"ha":1388,"o":"m 294 832 l 214 815 q 191 819 199 815 q 184 836 184 824 q 246 918 184 867 q 419 1012 309 969 q 617 1055 529 1055 q 743 1024 705 1055 q 780 918 780 994 q 749 746 780 843 q 659 507 718 650 l 777 511 q 825 483 825 511 q 803 452 825 463 q 619 407 744 422 q 546 210 571 288 q 520 82 520 131 l 522 37 q 499 4 522 16 q 451 -8 476 -8 l 179 -12 q 88 13 104 -12 q 80 53 80 26 q 92 129 80 80 q 165 325 103 179 q 279 598 227 472 q 330 764 330 724 q 321 818 330 805 q 294 832 312 832 m 1112 -8 l 860 -12 q 769 13 785 -12 q 761 46 761 26 q 811 270 761 109 q 918 609 860 430 q 986 847 976 787 q 995 952 995 906 q 1016 1011 995 999 q 1097 1024 1037 1024 q 1241 1030 1157 1024 q 1355 1036 1326 1036 q 1398 1020 1384 1036 q 1412 980 1412 1004 q 1330 638 1412 860 q 1262 451 1296 545 q 1180 80 1180 226 l 1183 37 q 1160 4 1183 16 q 1112 -8 1137 -8 "},"î":{"x_min":45.4375,"x_max":841.671875,"ha":697,"o":"m 522 114 q 648 136 569 114 q 763 176 727 158 q 813 193 798 193 q 841 164 841 193 q 820 135 841 151 q 571 28 751 84 q 250 -27 392 -27 q 104 0 163 -27 q 45 85 45 28 q 104 255 45 120 q 215 640 215 510 l 215 666 q 280 699 215 699 l 615 707 q 642 696 633 707 q 651 673 651 686 q 608 519 651 626 q 522 307 565 411 q 480 159 480 204 q 522 114 480 114 m 626 1131 q 820 841 820 902 q 791 812 820 812 q 724 837 761 812 q 507 976 619 909 q 230 837 393 925 q 174 817 193 817 q 136 849 136 817 q 228 971 136 881 q 438 1142 320 1062 q 484 1165 464 1160 q 549 1171 504 1171 q 626 1131 594 1171 "},"−":{"x_min":165.484375,"x_max":877.625,"ha":1003,"o":"m 200 322 q 165 362 165 322 q 176 438 165 421 q 232 472 198 468 q 319 476 266 476 l 602 470 l 843 476 q 877 436 877 476 q 866 360 877 377 q 810 326 845 330 q 723 322 776 322 l 440 328 l 200 322 "},"≠":{"x_min":193.96875,"x_max":976.640625,"ha":1003,"o":"m 874 710 l 356 61 q 310 31 332 31 q 278 43 289 31 q 267 72 267 54 q 283 111 267 91 l 801 760 q 846 790 825 790 q 878 779 868 790 q 889 749 889 768 q 874 710 889 731 m 228 186 q 193 226 193 186 q 204 302 193 286 q 260 336 226 333 q 347 340 295 340 l 631 334 l 871 341 q 906 301 906 341 q 895 225 906 241 q 839 190 873 194 q 752 187 805 187 l 468 193 l 228 186 m 299 498 q 264 538 264 498 q 275 614 264 598 q 331 648 297 644 q 418 652 365 652 l 701 646 l 942 653 q 976 613 976 653 q 965 537 976 553 q 909 502 944 506 q 822 499 875 499 l 539 505 l 299 498 "},"¥":{"x_min":198.71875,"x_max":1401.890625,"ha":1389,"o":"m 756 -8 l 505 -12 q 413 13 430 -12 q 406 51 406 26 q 421 138 406 77 q 245 130 297 130 q 215 172 215 130 q 279 240 215 240 q 446 233 311 240 q 472 326 464 295 q 297 319 348 319 q 267 360 267 319 q 331 428 267 428 q 477 422 370 428 q 400 645 445 535 q 335 794 356 754 q 296 848 314 834 q 250 866 279 862 q 198 906 198 874 q 293 996 198 955 q 605 1041 397 1041 q 689 1023 660 1041 q 729 967 718 1005 q 784 756 752 891 q 829 514 815 621 q 936 745 895 639 q 1011 984 977 851 q 1031 1019 1018 1010 q 1070 1028 1043 1028 l 1338 1034 q 1401 969 1401 1034 q 1275 744 1401 872 q 1089 573 1215 684 q 929 423 964 462 q 1089 428 1064 428 q 1114 389 1114 428 q 1049 319 1114 319 q 861 325 998 319 q 841 233 849 278 q 1038 240 1003 240 q 1062 200 1062 240 q 997 130 1062 130 q 828 136 938 130 q 825 73 825 107 l 828 37 q 805 4 828 16 q 756 -8 781 -8 "},"Ĥ":{"x_min":80.703125,"x_max":1412.0625,"ha":1388,"o":"m 294 832 l 214 815 q 191 819 199 815 q 184 836 184 824 q 246 918 184 867 q 419 1012 309 969 q 617 1055 529 1055 q 743 1024 705 1055 q 780 918 780 994 q 749 746 780 843 q 659 507 718 650 l 777 511 q 825 483 825 511 q 803 452 825 463 q 619 407 744 422 q 546 210 571 288 q 520 82 520 131 l 522 37 q 499 4 522 16 q 451 -8 476 -8 l 179 -12 q 88 13 104 -12 q 80 53 80 26 q 92 129 80 80 q 165 325 103 179 q 279 598 227 472 q 330 764 330 724 q 321 818 330 805 q 294 832 312 832 m 1112 -8 l 860 -12 q 769 13 785 -12 q 761 46 761 26 q 811 270 761 109 q 918 609 860 430 q 986 847 976 787 q 995 952 995 906 q 1016 1011 995 999 q 1097 1024 1037 1024 q 1241 1030 1157 1024 q 1355 1036 1326 1036 q 1398 1020 1384 1036 q 1412 980 1412 1004 q 1330 638 1412 860 q 1262 451 1296 545 q 1180 80 1180 226 l 1183 37 q 1160 4 1183 16 q 1112 -8 1137 -8 m 941 1208 q 622 1103 667 1103 q 599 1111 609 1103 q 590 1133 590 1119 q 663 1219 590 1162 q 872 1361 736 1275 q 919 1383 899 1378 q 973 1389 939 1389 q 1027 1379 1007 1389 q 1066 1350 1047 1369 q 1201 1207 1155 1262 q 1247 1125 1247 1152 q 1215 1098 1247 1098 q 1127 1121 1182 1098 q 941 1208 1031 1159 "},"U":{"x_min":146.5,"x_max":1466.3125,"ha":1508,"o":"m 1154 1035 l 1367 1032 q 1435 1010 1405 1032 q 1466 954 1466 988 q 1449 881 1466 921 q 1301 501 1363 688 q 1239 233 1239 314 q 1254 180 1239 200 q 1293 151 1270 159 q 1338 138 1315 143 q 1391 103 1391 126 q 1315 35 1391 67 q 1145 -11 1238 4 q 983 -27 1052 -27 q 790 129 790 -27 q 791 150 790 143 q 619 25 725 77 q 415 -27 514 -27 q 161 121 211 -27 q 146 229 146 165 q 172 381 146 293 q 230 534 198 468 q 299 676 261 600 q 354 809 354 786 q 271 867 354 853 q 238 881 250 870 q 225 908 225 891 q 246 943 225 924 q 308 979 267 962 q 405 1010 349 996 q 695 1041 529 1041 q 819 965 819 1041 q 779 866 819 952 q 690 678 738 780 q 600 457 641 577 q 560 277 560 337 q 583 199 560 217 q 638 181 607 181 q 687 184 669 181 q 724 191 706 186 q 753 199 741 196 q 781 208 764 202 q 800 215 798 215 q 946 636 831 363 q 1053 959 1053 893 q 1154 1035 1053 1035 "},"Ñ":{"x_min":87.484375,"x_max":1451.390625,"ha":1504,"o":"m 301 832 l 221 815 q 198 819 206 815 q 191 836 191 824 q 254 918 191 868 q 426 1012 317 969 q 624 1055 536 1055 q 749 1024 712 1055 q 787 906 787 994 l 785 875 q 1027 1024 920 980 q 1237 1069 1134 1069 q 1395 1026 1340 1069 q 1451 902 1451 983 q 1372 634 1451 818 q 1307 484 1340 558 q 1228 247 1228 302 q 1325 132 1228 149 q 1386 113 1378 124 q 1394 92 1394 103 q 1289 8 1394 44 q 1055 -27 1184 -27 q 800 124 800 -27 q 873 402 800 229 q 934 544 904 475 q 1007 776 1007 710 q 905 843 1007 843 q 771 800 845 843 q 628 411 737 670 q 527 82 527 177 q 529 37 527 82 q 506 4 529 16 q 458 -8 483 -8 l 186 -12 q 94 13 111 -12 q 87 53 87 26 q 99 129 87 80 q 172 325 110 179 q 285 598 234 472 q 337 764 337 724 q 328 818 337 805 q 301 832 319 832 m 677 1156 q 630 1189 630 1156 q 648 1231 630 1211 q 681 1269 665 1252 q 894 1372 775 1372 q 1043 1338 964 1372 q 1156 1304 1123 1304 q 1251 1325 1189 1304 q 1333 1346 1313 1346 q 1367 1337 1354 1346 q 1380 1307 1380 1328 q 1330 1233 1380 1287 q 1116 1129 1235 1129 q 1017 1146 1068 1129 q 921 1181 966 1163 q 848 1198 875 1198 q 760 1177 822 1198 q 677 1156 698 1156 "},"F":{"x_min":-26.453125,"x_max":1418.84375,"ha":1273,"o":"m 995 571 q 1093 526 1093 571 q 1060 424 1093 498 q 1006 318 1028 349 q 963 286 984 286 q 913 303 942 286 q 854 341 884 320 q 777 381 824 362 q 685 402 730 400 q 609 134 617 160 q 585 82 601 108 q 548 38 570 55 q 504 10 526 21 q 448 -5 481 0 q 150 6 295 -29 q 21 54 69 25 q -26 110 -26 83 q -11 135 -24 126 q 17 144 0 144 q 109 164 80 144 q 165 238 139 184 q 215 358 191 292 q 258 480 238 425 q 303 594 278 536 q 447 760 360 718 q 712 802 535 802 q 818 767 818 802 q 805 728 818 753 q 712 494 754 632 q 846 548 769 524 q 995 571 923 571 m 1202 712 q 962 852 1104 798 q 677 905 821 905 q 470 882 591 905 q 290 833 348 859 q 213 807 231 807 q 191 829 191 807 q 228 881 191 850 q 337 944 265 911 q 499 1005 408 976 q 950 1068 705 1068 q 1218 1055 1110 1068 q 1418 979 1418 1031 q 1391 887 1416 951 q 1332 764 1366 822 q 1275 698 1297 705 q 1242 694 1260 694 q 1202 712 1224 694 "},"ĵ":{"x_min":-210.921875,"x_max":826.75,"ha":695,"o":"m 796 193 q 826 165 826 193 q 654 70 826 127 q 430 14 547 34 q 387 -122 414 -42 q 270 -293 348 -241 q 57 -345 192 -345 q -158 -311 -78 -345 q -210 -259 -210 -290 q -175 -228 -210 -228 l -129 -231 q -27 -124 -78 -231 q 50 91 2 -59 q 206 662 148 395 q 220 691 210 682 q 257 699 229 699 l 587 707 q 616 698 604 707 q 627 675 627 689 q 613 624 627 660 q 584 549 598 588 q 555 466 569 510 q 533 396 541 423 q 510 320 524 369 q 493 255 497 270 q 474 183 489 240 q 457 119 459 126 q 728 172 613 128 q 796 193 783 193 m 596 1131 q 790 841 790 902 q 761 812 790 812 q 694 837 731 812 q 478 976 589 909 q 200 837 363 925 q 144 817 163 817 q 106 849 106 817 q 198 971 106 881 q 408 1142 290 1062 q 454 1165 434 1160 q 519 1171 474 1171 q 596 1131 564 1171 "},"ā":{"x_min":54.9375,"x_max":1404.59375,"ha":1273,"o":"m 533 145 q 746 340 661 145 q 786 485 786 430 q 767 562 786 541 q 694 583 748 583 q 576 532 639 583 q 474 405 512 482 q 435 267 435 328 q 462 175 435 206 q 533 145 489 145 m 886 719 l 1197 705 q 1223 694 1214 705 q 1232 671 1232 684 q 1191 513 1232 621 q 1109 299 1150 405 q 1068 159 1068 193 q 1078 115 1068 124 q 1119 105 1089 105 q 1227 134 1148 105 q 1335 178 1306 163 q 1378 193 1363 193 q 1404 169 1404 193 q 1201 37 1404 119 q 1035 -8 1132 10 q 839 -27 939 -27 q 639 78 673 -27 q 354 -27 533 -27 q 147 31 231 -27 q 54 234 54 96 q 141 503 54 380 q 393 691 235 639 q 581 719 480 719 q 820 643 735 719 q 821 656 821 647 l 820 685 q 886 719 820 719 m 520 884 q 490 928 490 884 q 510 996 490 971 q 554 1020 530 1020 l 816 1007 q 951 1013 867 1007 q 1069 1020 1035 1020 q 1093 977 1093 1020 q 1073 909 1093 933 q 1022 884 1054 884 q 908 891 990 884 q 774 897 827 897 q 639 891 721 897 q 520 884 557 884 "},"Ĩ":{"x_min":48.828125,"x_max":1136.703125,"ha":926,"o":"m 316 402 q 151 666 151 504 q 187 800 151 737 q 282 906 223 862 q 416 980 341 949 q 729 1041 564 1041 q 869 998 832 1041 q 902 897 902 959 q 872 736 902 835 q 779 459 843 636 q 683 180 716 282 q 581 32 651 79 q 388 -13 512 -13 q 157 17 265 -13 q 48 88 48 48 q 94 123 48 118 q 191 153 161 131 q 248 230 221 174 q 316 402 274 286 m 439 828 q 429 854 439 844 q 404 864 419 864 q 373 853 389 864 q 337 819 356 842 q 292 667 292 764 q 344 486 292 570 q 439 828 439 768 m 433 1156 q 386 1189 386 1156 q 403 1231 386 1211 q 437 1269 421 1252 q 650 1372 531 1372 q 799 1338 720 1372 q 912 1304 878 1304 q 1007 1325 945 1304 q 1089 1346 1068 1346 q 1123 1337 1110 1346 q 1136 1307 1136 1328 q 1085 1233 1136 1287 q 872 1129 991 1129 q 773 1146 824 1129 q 676 1181 722 1163 q 604 1198 631 1198 q 516 1177 577 1198 q 433 1156 454 1156 "},"ă":{"x_min":54.9375,"x_max":1404.59375,"ha":1273,"o":"m 533 145 q 746 340 661 145 q 786 485 786 430 q 767 562 786 541 q 694 583 748 583 q 576 532 639 583 q 474 405 512 482 q 435 267 435 328 q 462 175 435 206 q 533 145 489 145 m 886 719 l 1197 705 q 1223 694 1214 705 q 1232 671 1232 684 q 1191 513 1232 621 q 1109 299 1150 405 q 1068 159 1068 193 q 1078 115 1068 124 q 1119 105 1089 105 q 1227 134 1148 105 q 1335 178 1306 163 q 1378 193 1363 193 q 1404 169 1404 193 q 1201 37 1404 119 q 1035 -8 1132 10 q 839 -27 939 -27 q 639 78 673 -27 q 354 -27 533 -27 q 147 31 231 -27 q 54 234 54 96 q 141 503 54 380 q 393 691 235 639 q 581 719 480 719 q 820 643 735 719 q 821 656 821 647 l 820 685 q 886 719 820 719 m 555 931 q 508 992 531 956 q 484 1072 484 1028 q 531 1116 484 1116 q 615 1082 557 1116 q 827 1018 724 1018 q 1059 1082 961 1018 q 1135 1117 1114 1117 q 1168 1089 1168 1117 q 1102 975 1168 1042 q 796 838 964 838 q 555 931 644 838 "},"*":{"x_min":208.890625,"x_max":946.796875,"ha":892,"o":"m 223 851 q 208 887 208 865 q 240 948 208 908 q 300 987 271 987 q 346 975 328 987 q 393 935 365 964 q 443 883 420 906 q 493 837 466 861 q 526 807 519 813 q 550 962 529 875 q 602 1104 572 1048 q 648 1135 620 1135 q 716 1106 675 1135 q 756 1049 756 1077 q 706 940 756 1020 q 675 889 691 914 q 647 839 660 864 q 627 806 633 815 q 756 845 684 830 q 865 861 829 861 q 908 860 900 861 q 946 822 946 858 q 912 730 946 773 q 838 687 877 687 q 716 700 798 687 q 617 716 634 714 q 689 584 655 663 q 722 469 722 505 q 691 417 722 434 q 630 400 659 400 q 589 402 600 400 q 566 410 578 404 q 548 430 554 417 q 535 524 535 461 q 531 676 535 586 q 421 557 489 619 q 275 456 314 456 q 240 488 256 456 q 224 555 224 520 q 247 614 224 590 q 312 660 269 638 q 461 738 355 682 q 328 784 397 752 q 223 851 259 816 "},"†":{"x_min":254.328125,"x_max":862.015625,"ha":1002,"o":"m 320 541 q 285 581 285 541 q 297 657 285 640 q 352 691 318 687 q 427 695 386 695 q 523 692 467 695 l 645 1115 q 721 1161 658 1161 q 766 1146 747 1161 q 786 1117 786 1130 q 784 1098 786 1104 l 666 689 l 827 695 q 862 655 862 695 q 850 579 862 596 q 795 545 829 549 q 713 541 760 541 q 624 543 666 541 l 396 -248 q 317 -294 383 -294 q 275 -282 295 -294 q 254 -247 254 -269 q 257 -231 254 -242 l 481 548 l 320 541 "},"°":{"x_min":284.171875,"x_max":866.09375,"ha":798,"o":"m 727 1117 q 691 1217 727 1180 q 592 1254 655 1254 q 476 1201 530 1254 q 423 1086 423 1149 q 459 988 423 1024 q 557 952 495 952 q 674 1004 620 952 q 727 1117 727 1056 m 284 1058 q 312 1192 284 1129 q 386 1298 340 1255 q 619 1390 486 1390 q 796 1320 726 1390 q 866 1153 866 1250 q 820 980 866 1056 q 697 858 774 903 q 522 814 620 814 q 354 884 424 814 q 284 1058 284 954 "},"å":{"x_min":54.9375,"x_max":1404.59375,"ha":1273,"o":"m 533 145 q 746 340 661 145 q 786 485 786 430 q 767 562 786 541 q 694 583 748 583 q 576 532 639 583 q 474 405 512 482 q 435 267 435 328 q 462 175 435 206 q 533 145 489 145 m 886 719 l 1197 705 q 1223 694 1214 705 q 1232 671 1232 684 q 1191 513 1232 621 q 1109 299 1150 405 q 1068 159 1068 193 q 1078 115 1068 124 q 1119 105 1089 105 q 1227 134 1148 105 q 1335 178 1306 163 q 1378 193 1363 193 q 1404 169 1404 193 q 1201 37 1404 119 q 1035 -8 1132 10 q 839 -27 939 -27 q 639 78 673 -27 q 354 -27 533 -27 q 147 31 231 -27 q 54 234 54 96 q 141 503 54 380 q 393 691 235 639 q 581 719 480 719 q 820 643 735 719 q 821 656 821 647 l 820 685 q 886 719 820 719 m 952 973 q 928 1023 952 1005 q 866 1041 904 1041 q 797 1033 828 1041 q 744 1001 766 1024 q 721 942 721 978 q 749 886 721 906 q 825 866 777 866 q 913 893 874 866 q 952 973 952 921 m 867 1137 q 1121 985 1121 1137 q 1030 839 1121 898 q 808 781 939 781 q 553 928 553 781 q 643 1078 553 1019 q 867 1137 732 1137 "},"0":{"x_min":134.96875,"x_max":1229.625,"ha":1273,"o":"m 617 887 q 660 860 660 887 q 621 797 660 842 q 502 559 544 706 q 459 260 459 413 q 562 64 459 64 q 701 165 634 64 q 808 432 767 265 q 848 781 848 599 q 802 929 848 878 q 690 979 755 979 q 588 963 654 979 q 514 948 522 948 q 482 975 482 948 q 509 1016 482 993 q 580 1059 536 1039 q 805 1108 685 1108 q 1002 1075 925 1108 q 1128 983 1079 1042 q 1229 680 1229 863 q 1194 439 1229 552 q 1098 239 1159 325 q 954 90 1036 153 q 578 -35 788 -35 q 247 75 362 -35 q 134 366 134 184 q 172 583 134 484 q 274 748 209 681 q 427 851 339 814 q 617 887 516 887 "},"ō":{"x_min":42.734375,"x_max":1405.953125,"ha":1158,"o":"m 170 45 q 42 278 42 122 q 76 431 42 359 q 168 554 109 502 q 305 644 227 607 q 662 719 461 719 q 1090 468 1058 719 q 1188 453 1138 453 q 1273 460 1239 453 q 1337 482 1306 467 q 1380 497 1367 497 q 1405 472 1405 497 q 1365 420 1405 447 q 1166 368 1290 368 q 1090 373 1119 368 q 914 89 1068 202 q 732 4 840 35 q 510 -27 625 -27 q 313 -9 395 -27 q 170 45 231 8 m 416 218 q 507 92 416 92 q 616 156 566 92 q 695 314 667 220 q 723 506 723 408 q 655 604 723 604 q 539 548 595 604 q 450 402 483 492 q 416 218 416 312 m 437 884 q 407 928 407 884 q 427 996 407 971 q 471 1020 447 1020 l 733 1007 q 868 1013 784 1007 q 986 1020 952 1020 q 1010 977 1010 1020 q 990 909 1010 933 q 939 884 971 884 q 825 891 907 884 q 691 897 744 897 q 556 891 638 897 q 437 884 474 884 "},"”":{"x_min":208.890625,"x_max":994.953125,"ha":965,"o":"m 242 595 q 208 625 208 595 q 253 706 208 647 q 338 851 338 820 q 309 926 338 881 q 281 994 281 971 q 338 1105 281 1053 q 460 1157 395 1157 q 556 1124 524 1157 q 588 1032 588 1091 q 528 854 588 944 q 363 663 468 763 q 242 595 292 595 m 649 595 q 615 625 615 595 q 660 706 615 647 q 745 851 745 820 q 716 926 745 881 q 688 994 688 971 q 745 1105 688 1053 q 867 1157 802 1157 q 963 1124 931 1157 q 994 1032 994 1091 q 935 854 994 944 q 770 663 875 763 q 649 595 699 595 "},"\u0013":{"x_min":0,"x_max":0,"ha":0},"ŵ":{"x_min":76.640625,"x_max":1970.921875,"ha":1705,"o":"m 239 697 l 598 705 q 624 678 624 705 q 608 642 624 663 q 510 476 550 569 q 470 287 470 383 q 502 160 470 186 q 537 149 516 149 q 620 184 581 149 q 686 271 659 219 q 736 394 714 324 q 790 652 773 513 q 802 683 792 668 q 836 697 813 697 l 1195 705 q 1221 682 1221 705 q 1205 642 1221 665 q 1067 273 1067 451 q 1136 156 1067 156 q 1233 200 1188 156 q 1306 316 1277 244 q 1369 652 1369 467 q 1414 697 1369 691 q 1539 702 1429 699 q 1679 705 1648 705 q 1711 676 1711 705 q 1654 472 1711 575 q 1717 465 1686 465 q 1911 514 1824 465 q 1943 525 1930 525 q 1970 500 1970 525 q 1941 453 1970 476 q 1678 379 1844 379 q 1599 385 1634 379 l 1569 344 q 1376 149 1490 239 q 1145 7 1262 59 q 935 -44 1027 -44 q 820 7 876 -44 q 729 138 763 59 q 518 1 625 52 q 332 -50 412 -50 q 148 46 220 -50 q 76 299 76 143 q 104 479 76 366 q 170 655 132 592 q 200 689 186 680 q 239 697 213 697 m 1165 1131 q 1359 841 1359 902 q 1330 812 1359 812 q 1263 837 1300 812 q 1047 976 1158 909 q 769 837 932 925 q 713 817 732 817 q 675 849 675 817 q 767 971 675 881 q 978 1142 860 1062 q 1024 1165 1003 1160 q 1088 1171 1044 1171 q 1165 1131 1133 1171 "},"Ķ":{"x_min":80.703125,"x_max":1487.34375,"ha":1503,"o":"m 314 832 l 234 815 q 212 819 219 815 q 204 839 204 824 q 222 876 204 854 q 260 912 239 897 q 445 1011 338 968 q 639 1055 552 1055 q 763 1024 725 1055 q 800 906 800 994 q 701 579 800 805 q 619 392 660 484 q 520 82 520 167 l 522 37 q 499 4 522 16 q 451 -8 476 -8 l 179 -12 q 88 13 104 -12 q 80 53 80 26 q 90 123 80 80 q 145 270 100 166 q 234 465 189 374 q 350 769 350 701 q 341 818 350 805 q 314 832 333 832 m 1180 1028 l 1456 1043 q 1487 1017 1487 1043 q 1452 878 1487 990 q 1381 710 1418 767 q 1302 617 1345 654 q 1199 556 1259 581 q 940 493 1100 513 q 996 494 959 494 q 1064 492 1034 494 q 1127 486 1094 491 q 1182 473 1159 482 q 1223 450 1204 464 q 1260 366 1260 423 q 1254 316 1260 352 q 1248 244 1248 280 q 1256 185 1248 208 q 1279 150 1264 162 q 1357 131 1306 131 q 1407 97 1407 131 q 1326 14 1407 52 q 1047 -27 1237 -27 q 817 39 868 -27 q 796 118 796 69 q 822 262 796 166 q 848 382 848 358 q 841 424 848 406 q 823 451 834 442 q 797 466 811 461 q 770 475 784 472 q 744 480 756 478 q 719 499 719 485 q 762 545 719 529 q 1009 709 931 604 q 1073 823 1049 763 q 1115 969 1097 883 q 1180 1028 1127 1028 m 655 -274 q 570 -281 627 -281 q 389 -197 389 -281 q 469 -109 389 -145 q 672 -73 549 -73 q 779 -93 737 -73 q 857 -201 857 -128 q 826 -293 857 -252 q 740 -358 794 -333 q 476 -406 630 -406 q 419 -379 419 -406 q 468 -337 419 -351 q 519 -324 484 -333 q 569 -311 553 -316 q 655 -274 614 -298 "},"ö":{"x_min":42.734375,"x_max":1405.953125,"ha":1158,"o":"m 170 45 q 42 278 42 122 q 76 431 42 359 q 168 554 109 502 q 305 644 227 607 q 662 719 461 719 q 1090 468 1058 719 q 1188 453 1138 453 q 1273 460 1239 453 q 1337 482 1306 467 q 1380 497 1367 497 q 1405 472 1405 497 q 1365 420 1405 447 q 1166 368 1290 368 q 1090 373 1119 368 q 914 89 1068 202 q 732 4 840 35 q 510 -27 625 -27 q 313 -9 395 -27 q 170 45 231 8 m 416 218 q 507 92 416 92 q 616 156 566 92 q 695 314 667 220 q 723 506 723 408 q 655 604 723 604 q 539 548 595 604 q 450 402 483 492 q 416 218 416 312 m 685 981 q 615 871 685 918 q 467 824 545 824 q 346 856 389 824 q 303 933 303 887 q 336 1015 303 978 q 422 1073 370 1052 q 537 1095 475 1095 q 642 1062 599 1095 q 685 981 685 1029 m 1140 902 q 1055 845 1108 866 q 940 824 1002 824 q 835 856 878 824 q 792 933 792 887 q 825 1015 792 978 q 911 1073 858 1052 q 1025 1095 963 1095 q 1130 1062 1087 1095 q 1173 984 1173 1029 q 1140 902 1173 939 "},"ǽ":{"x_min":54.9375,"x_max":1859.6875,"ha":1732,"o":"m 841 680 l 841 706 q 906 739 841 739 q 1034 719 936 739 q 1177 698 1133 699 q 1370 719 1270 719 q 1618 666 1538 719 q 1698 518 1698 612 q 1621 361 1698 422 q 1417 270 1544 300 q 1123 228 1289 240 q 1275 97 1134 123 q 1350 91 1310 91 q 1808 187 1509 91 q 1835 193 1826 193 q 1859 170 1859 193 q 1827 130 1859 149 q 1747 90 1795 111 q 1616 40 1700 69 q 1183 -27 1424 -27 q 833 65 924 -27 q 776 176 790 108 q 589 14 680 57 q 387 -27 501 -27 q 157 24 232 -27 q 54 245 54 94 q 97 418 54 336 q 216 563 140 501 q 402 662 291 625 q 643 699 514 699 q 737 689 711 699 q 763 660 763 679 q 746 629 763 641 q 672 593 730 617 q 505 457 575 552 q 435 255 435 363 q 462 175 435 206 q 533 145 489 145 q 680 219 609 145 q 796 418 752 293 q 841 680 841 543 m 1124 303 q 1311 402 1242 335 q 1379 564 1379 470 q 1363 604 1379 590 q 1314 619 1346 619 q 1245 591 1281 619 q 1185 516 1209 562 q 1124 303 1133 421 m 1157 1161 q 1192 1168 1172 1168 q 1289 1130 1240 1168 q 1339 1051 1339 1093 q 1263 973 1339 1001 q 875 814 1034 890 q 830 801 849 801 q 802 826 802 801 q 850 910 802 851 q 982 1040 897 968 q 1157 1161 1068 1112 "},"Ļ":{"x_min":8.140625,"x_max":1225.546875,"ha":1273,"o":"m 345 -5 l 75 -12 q 8 33 8 -12 q 26 70 8 54 q 73 106 44 86 q 126 159 102 126 q 178 270 149 191 q 225 423 207 348 q 309 731 284 659 q 348 835 335 803 q 377 896 361 868 q 408 945 393 924 q 443 983 423 966 q 482 1010 463 999 q 528 1030 501 1022 q 580 1043 555 1039 q 642 1051 605 1048 q 792 1055 699 1055 q 931 1046 886 1055 q 977 1009 977 1037 q 925 954 977 986 q 822 837 866 918 q 746 672 773 749 q 703 548 719 595 q 666 433 688 501 q 628 319 643 364 q 453 88 564 137 q 736 149 624 97 q 841 201 797 177 q 939 274 885 225 q 1066 395 1010 337 q 1126 458 1121 453 q 1169 476 1144 476 q 1209 464 1194 476 q 1225 432 1225 452 q 1175 193 1225 354 q 1140 102 1157 137 q 1094 39 1122 67 q 924 -13 1041 -13 l 345 -5 m 592 -274 q 507 -281 564 -281 q 326 -197 326 -281 q 406 -109 326 -145 q 609 -73 486 -73 q 716 -93 674 -73 q 794 -201 794 -128 q 763 -293 794 -252 q 678 -358 731 -333 q 413 -406 567 -406 q 356 -379 356 -406 q 405 -337 356 -351 q 456 -324 421 -333 q 505 -311 490 -316 q 592 -274 551 -298 "},"Õ":{"x_min":91.5625,"x_max":1377.46875,"ha":1389,"o":"m 706 737 q 534 465 593 645 q 503 267 503 367 q 617 91 503 91 q 738 139 676 91 q 850 264 800 187 q 932 447 900 341 q 965 659 965 553 q 912 871 965 808 q 734 934 859 934 q 585 919 665 934 q 450 886 505 904 q 350 853 394 868 q 299 838 306 838 q 274 859 274 838 q 308 901 274 875 q 401 956 341 927 q 533 1010 461 985 q 864 1068 702 1068 q 1302 888 1174 1068 q 1377 625 1377 781 q 1336 402 1377 506 q 1220 220 1294 298 q 1047 86 1146 142 q 590 -27 845 -27 q 91 314 91 -27 q 132 497 91 409 q 241 650 174 585 q 393 763 309 714 q 736 861 564 861 q 775 851 763 861 q 787 831 787 841 q 784 814 787 821 q 772 797 781 807 q 756 781 763 788 q 706 737 739 766 m 661 1156 q 615 1189 615 1156 q 632 1231 615 1211 q 666 1269 649 1252 q 878 1372 760 1372 q 1028 1338 948 1372 q 1140 1304 1107 1304 q 1235 1325 1174 1304 q 1318 1346 1297 1346 q 1352 1337 1338 1346 q 1365 1307 1365 1328 q 1314 1233 1365 1287 q 1100 1129 1220 1129 q 1002 1146 1053 1129 q 905 1181 950 1163 q 833 1198 859 1198 q 744 1177 806 1198 q 661 1156 682 1156 "},"ć":{"x_min":49.515625,"x_max":1174,"ha":1042,"o":"m 469 442 q 438 289 438 359 q 452 185 438 219 q 495 132 466 151 q 878 126 592 71 q 1077 172 1015 151 q 1150 193 1139 193 q 1174 170 1174 193 q 1138 123 1174 147 q 870 17 1043 61 q 483 -27 697 -27 q 160 48 270 -27 q 49 259 49 124 q 84 416 49 342 q 180 544 119 490 q 321 639 240 599 q 687 719 482 719 q 1022 664 926 719 q 1033 631 1033 655 q 1012 552 1033 607 q 957 448 991 496 q 894 401 923 401 q 849 432 866 401 q 820 481 832 462 q 788 527 809 501 q 750 567 768 554 q 706 591 732 581 q 643 601 680 601 q 570 579 607 601 q 509 522 533 557 q 469 442 485 487 m 834 1161 q 869 1168 849 1168 q 966 1130 917 1168 q 1016 1051 1016 1093 q 940 973 1016 1001 q 552 814 711 890 q 507 801 526 801 q 479 826 479 801 q 527 910 479 851 q 659 1040 574 968 q 834 1161 745 1112 "},"þ":{"x_min":-71.890625,"x_max":1404.59375,"ha":1273,"o":"m 531 1004 l 667 1006 q 693 995 685 1006 q 702 965 702 985 q 682 877 702 945 q 577 577 657 792 q 912 719 704 719 q 1111 654 1039 719 q 1184 471 1184 590 q 1003 94 1184 240 q 1326 172 1214 109 q 1381 193 1363 193 q 1404 168 1404 193 q 1379 132 1404 150 q 1082 12 1264 51 q 692 -25 901 -25 q 653 -27 666 -27 q 515 -6 584 -27 q 397 50 446 13 q 387 46 389 47 q 343 -274 343 -94 l 344 -294 q 278 -328 344 -328 l -36 -336 q -62 -326 -52 -336 q -71 -304 -71 -316 q -21 -85 -71 -244 q 112 302 28 73 q 222 606 196 531 q 293 902 293 809 l 288 970 q 354 1004 288 1004 l 531 1004 m 712 547 q 499 352 584 547 q 459 206 459 262 q 478 130 459 151 q 551 109 497 109 q 669 159 606 109 q 771 286 733 210 q 810 424 810 363 q 783 516 810 486 q 712 547 756 547 "},"]":{"x_min":-1.359375,"x_max":848.453125,"ha":808,"o":"m 822 1150 q 848 1106 848 1150 q 776 766 848 1018 q 622 249 705 514 q 525 -86 539 -15 q 455 -156 512 -156 l 248 -149 l 22 -156 q -1 -110 -1 -156 q 63 -40 -1 -40 q 170 -47 108 -40 q 250 -54 231 -54 l 291 -53 q 443 444 347 94 q 600 1047 539 793 q 536 1048 570 1048 q 436 1041 503 1048 q 335 1034 368 1034 q 311 1081 311 1034 q 375 1150 311 1150 q 597 1144 375 1150 l 822 1150 "},"\u0004":{"x_min":0,"x_max":0,"ha":0},"ẁ":{"x_min":76.640625,"x_max":1970.921875,"ha":1705,"o":"m 239 697 l 598 705 q 624 678 624 705 q 608 642 624 663 q 510 476 550 569 q 470 287 470 383 q 502 160 470 186 q 537 149 516 149 q 620 184 581 149 q 686 271 659 219 q 736 394 714 324 q 790 652 773 513 q 802 683 792 668 q 836 697 813 697 l 1195 705 q 1221 682 1221 705 q 1205 642 1221 665 q 1067 273 1067 451 q 1136 156 1067 156 q 1233 200 1188 156 q 1306 316 1277 244 q 1369 652 1369 467 q 1414 697 1369 691 q 1539 702 1429 699 q 1679 705 1648 705 q 1711 676 1711 705 q 1654 472 1711 575 q 1717 465 1686 465 q 1911 514 1824 465 q 1943 525 1930 525 q 1970 500 1970 525 q 1941 453 1970 476 q 1678 379 1844 379 q 1599 385 1634 379 l 1569 344 q 1376 149 1490 239 q 1145 7 1262 59 q 935 -44 1027 -44 q 820 7 876 -44 q 729 138 763 59 q 518 1 625 52 q 332 -50 412 -50 q 148 46 220 -50 q 76 299 76 143 q 104 479 76 366 q 170 655 132 592 q 200 689 186 680 q 239 697 213 697 m 880 1163 q 1041 1046 961 1118 q 1168 915 1121 974 q 1214 836 1214 855 q 1206 809 1214 817 q 1189 801 1197 801 q 1073 848 1182 801 q 809 947 964 894 q 720 1035 720 977 q 766 1124 720 1080 q 855 1168 811 1168 q 880 1163 871 1168 "},"ĭ":{"x_min":45.4375,"x_max":850.484375,"ha":697,"o":"m 522 114 q 648 136 569 114 q 763 176 727 158 q 813 193 798 193 q 841 164 841 193 q 820 135 841 151 q 571 28 751 84 q 250 -27 392 -27 q 104 0 163 -27 q 45 85 45 28 q 104 255 45 120 q 215 640 215 510 l 215 666 q 280 699 215 699 l 615 707 q 642 696 633 707 q 651 673 651 686 q 608 519 651 626 q 522 307 565 411 q 480 159 480 204 q 522 114 480 114 m 236 931 q 189 992 212 956 q 166 1072 166 1028 q 212 1116 166 1116 q 297 1082 239 1116 q 508 1018 406 1018 q 741 1082 642 1018 q 816 1117 796 1117 q 850 1089 850 1117 q 784 975 850 1042 q 478 838 646 838 q 236 931 326 838 "},"8":{"x_min":111.234375,"x_max":1228.9375,"ha":1273,"o":"m 568 1078 q 880 1133 708 1133 q 1140 1072 1052 1133 q 1228 906 1228 1011 q 1199 800 1228 852 q 1124 717 1169 748 q 1033 685 1079 685 q 1002 695 1014 685 q 990 721 990 706 q 999 750 990 737 q 1021 773 1008 762 q 1047 799 1034 785 q 1078 893 1078 834 q 1037 986 1078 953 q 917 1019 995 1019 q 782 979 840 1019 q 725 875 725 938 q 814 741 725 810 q 902 678 854 711 q 999 609 950 646 q 1087 533 1047 573 q 1176 335 1176 444 q 929 18 1176 110 q 575 -34 782 -34 q 172 94 296 -34 q 111 242 111 158 q 461 534 111 437 q 352 646 391 589 q 313 774 313 703 q 347 906 313 845 q 437 1008 381 967 q 568 1078 493 1049 m 362 231 q 420 122 362 164 q 563 80 478 80 q 709 125 649 80 q 769 236 769 171 q 756 291 769 270 q 734 324 743 311 q 708 351 725 336 q 679 377 691 366 q 645 404 668 387 q 610 429 623 420 q 532 482 552 467 q 362 231 362 387 "},"R":{"x_min":-53.578125,"x_max":1446.65625,"ha":1504,"o":"m 673 423 l 640 422 q 567 197 595 292 q 521 72 538 101 q 483 26 503 44 q 432 0 463 9 q 292 -13 381 -13 q 123 6 204 -13 q -5 54 42 25 q -53 110 -53 83 q -40 135 -53 126 q -9 144 -27 144 q 82 164 52 144 q 138 238 111 184 q 190 362 164 291 q 239 493 217 432 q 292 616 262 553 q 450 797 356 752 q 571 831 495 819 q 688 843 646 843 q 743 842 730 843 q 769 837 756 841 q 795 807 795 830 q 790 781 795 793 q 757 722 784 769 q 663 489 729 676 q 1023 752 1023 531 q 976 864 1023 826 q 878 909 928 901 q 716 921 805 921 q 531 905 628 921 q 382 868 435 888 q 287 831 328 848 q 233 815 245 815 q 198 838 198 815 q 236 893 198 868 q 543 1024 370 979 q 977 1068 716 1068 q 1200 1041 1110 1068 q 1337 983 1289 1013 q 1416 904 1385 953 q 1446 795 1446 854 q 1424 691 1446 736 q 1362 614 1401 646 q 1264 556 1323 581 q 985 484 1161 512 q 1197 438 1119 484 q 1275 307 1275 392 l 1263 187 q 1313 131 1263 138 q 1355 126 1334 128 q 1404 88 1404 122 q 1289 7 1404 42 q 1037 -27 1174 -27 q 779 124 779 -27 q 801 228 779 160 q 824 319 824 296 q 788 392 824 362 q 673 423 753 423 "},"ť":{"x_min":42.046875,"x_max":1070.90625,"ha":867,"o":"m 674 689 q 743 699 737 699 q 795 660 795 699 q 746 610 795 622 q 639 594 711 601 q 571 428 617 536 q 477 167 477 210 q 537 119 477 119 q 691 135 621 119 q 818 172 761 151 q 885 193 874 193 q 909 170 909 193 q 876 126 909 148 q 590 16 775 60 q 240 -27 405 -27 q 92 3 143 -27 q 42 86 42 33 q 112 286 42 139 q 226 574 191 450 q 168 572 184 572 q 128 604 128 572 q 141 636 128 628 q 167 648 153 644 q 191 652 181 651 q 219 655 201 653 q 244 657 236 656 q 253 754 253 708 l 252 779 q 330 821 252 810 q 492 855 356 824 q 659 885 628 885 q 708 851 708 885 q 674 689 708 793 m 830 564 q 841 619 830 583 q 891 830 883 778 q 903 896 900 883 q 913 928 906 909 q 931 956 921 947 q 1001 980 956 980 q 1070 905 1070 980 q 1036 761 1070 851 q 952 600 1001 672 q 867 529 904 529 q 830 564 830 529 "},"Ľ":{"x_min":8.140625,"x_max":1225.546875,"ha":1273,"o":"m 345 -5 l 75 -12 q 8 33 8 -12 q 26 70 8 54 q 73 106 44 86 q 126 159 102 126 q 178 270 149 191 q 225 423 207 348 q 309 731 284 659 q 348 835 335 803 q 377 896 361 868 q 408 945 393 924 q 443 983 423 966 q 482 1010 463 999 q 528 1030 501 1022 q 580 1043 555 1039 q 642 1051 605 1048 q 792 1055 699 1055 q 931 1046 886 1055 q 977 1009 977 1037 q 925 954 977 986 q 822 837 866 918 q 746 672 773 749 q 703 548 719 595 q 666 433 688 501 q 628 319 643 364 q 453 88 564 137 q 736 149 624 97 q 841 201 797 177 q 939 274 885 225 q 1066 395 1010 337 q 1126 458 1121 453 q 1169 476 1144 476 q 1209 464 1194 476 q 1225 432 1225 452 q 1175 193 1225 354 q 1140 102 1157 137 q 1094 39 1122 67 q 924 -13 1041 -13 l 345 -5 m 765 1279 q 1084 1384 1039 1384 q 1107 1376 1098 1384 q 1117 1354 1117 1368 q 1043 1269 1117 1325 q 834 1127 970 1212 q 787 1104 807 1110 q 733 1098 767 1098 q 679 1108 699 1098 q 640 1138 659 1119 q 504 1281 550 1227 q 459 1362 459 1335 q 492 1389 459 1389 q 579 1367 524 1389 q 765 1279 675 1328 "},"Ż":{"x_min":-15.59375,"x_max":1289.296875,"ha":1273,"o":"m 1150 309 q 1196 271 1196 309 q 1166 155 1196 229 q 1112 43 1136 80 q 1045 -10 1089 6 q 907 -27 1000 -27 q 691 -4 815 -27 q 474 59 567 18 q 388 -6 421 12 q 314 -25 355 -25 q 178 0 273 -25 q 44 44 83 25 q -5 73 4 63 q -15 102 -15 84 q 273 402 -15 170 q 523 603 396 501 q 888 965 834 853 q 988 1049 927 1049 q 1166 990 1049 1049 q 1252 928 1216 964 q 1289 858 1289 891 q 1222 727 1283 807 q 1077 567 1162 649 q 848 363 992 486 q 560 144 704 241 q 784 174 672 147 q 966 230 896 200 q 1089 284 1035 260 q 1150 309 1142 309 m 775 950 q 751 904 775 921 q 659 873 727 888 q 511 827 592 858 q 387 770 430 795 q 242 709 281 709 q 205 769 205 709 q 222 863 205 811 q 271 958 238 914 q 343 1009 304 1001 q 504 1023 411 1023 q 775 950 775 1023 m 655 1315 q 866 1386 733 1386 q 987 1355 941 1386 q 1034 1278 1034 1325 q 996 1196 1034 1230 q 903 1144 959 1162 q 778 1126 846 1126 q 663 1156 710 1126 q 616 1234 616 1186 q 655 1315 616 1281 "},"o":{"x_min":42.734375,"x_max":1405.953125,"ha":1158,"o":"m 170 45 q 42 278 42 122 q 76 431 42 359 q 168 554 109 502 q 305 644 227 607 q 662 719 461 719 q 1090 468 1058 719 q 1188 453 1138 453 q 1273 460 1239 453 q 1337 482 1306 467 q 1380 497 1367 497 q 1405 472 1405 497 q 1365 420 1405 447 q 1166 368 1290 368 q 1090 373 1119 368 q 914 89 1068 202 q 732 4 840 35 q 510 -27 625 -27 q 313 -9 395 -27 q 170 45 231 8 m 416 218 q 507 92 416 92 q 616 156 566 92 q 695 314 667 220 q 723 506 723 408 q 655 604 723 604 q 539 548 595 604 q 450 402 483 492 q 416 218 416 312 "},"5":{"x_min":80.703125,"x_max":1219.4375,"ha":1273,"o":"m 1126 535 q 1177 387 1177 473 q 1142 235 1177 301 q 1047 123 1106 170 q 908 41 987 75 q 570 -27 754 -27 q 274 -2 386 -27 q 109 55 161 23 q 86 74 92 65 q 80 102 80 82 q 95 175 80 122 q 135 275 111 228 q 179 322 159 322 q 220 298 193 322 q 282 242 247 275 q 359 175 318 208 q 558 95 459 95 q 690 130 632 95 q 778 218 748 164 q 807 332 807 271 q 726 462 807 414 q 501 510 644 510 q 382 504 455 510 q 305 498 309 498 q 259 523 282 498 q 237 565 237 549 q 247 613 237 581 q 278 699 257 645 q 318 806 298 754 q 368 936 338 857 q 419 1066 399 1014 q 459 1106 425 1083 q 509 1130 493 1130 q 582 1125 524 1130 q 877 1109 765 1109 q 1037 1116 990 1109 q 1159 1142 1083 1122 q 1201 1128 1182 1142 q 1219 1096 1219 1115 q 1200 921 1219 988 q 1152 826 1180 853 q 1071 798 1124 798 q 855 832 1018 798 q 541 909 693 866 l 393 583 q 731 650 565 650 q 1126 535 1032 650 "},"ħ":{"x_min":8.8125,"x_max":1406.640625,"ha":1275,"o":"m 792 916 q 815 900 806 916 q 825 852 825 884 q 810 800 825 821 q 766 774 796 779 q 621 757 736 769 q 454 736 506 745 q 289 701 402 727 q 139 670 176 676 q 111 683 123 670 q 99 731 99 697 q 114 785 99 764 q 157 811 130 807 q 308 829 183 815 q 480 851 434 843 q 642 885 526 859 q 792 916 758 911 m 354 1004 l 664 1006 q 690 996 680 1006 q 699 964 699 986 q 672 833 699 942 q 609 619 644 724 q 806 688 698 657 q 1000 719 914 719 q 1119 683 1065 719 q 1178 562 1178 643 q 1115 344 1178 481 q 1052 169 1052 207 q 1106 113 1052 113 q 1345 182 1211 113 q 1378 193 1365 193 q 1406 168 1406 193 q 1375 124 1406 143 q 1298 83 1344 105 q 1180 34 1251 61 q 828 -27 1015 -27 q 641 65 641 -27 q 709 278 641 124 q 777 485 777 432 q 683 550 777 550 q 580 533 631 550 q 419 18 468 205 q 404 0 416 6 q 383 -6 392 -6 l 34 -13 q 17 -4 27 -13 q 8 18 8 4 q 52 154 8 31 q 148 421 96 277 q 245 720 201 564 q 288 951 288 875 l 288 970 q 354 1004 288 1004 "},"õ":{"x_min":42.734375,"x_max":1405.953125,"ha":1158,"o":"m 170 45 q 42 278 42 122 q 76 431 42 359 q 168 554 109 502 q 305 644 227 607 q 662 719 461 719 q 1090 468 1058 719 q 1188 453 1138 453 q 1273 460 1239 453 q 1337 482 1306 467 q 1380 497 1367 497 q 1405 472 1405 497 q 1365 420 1405 447 q 1166 368 1290 368 q 1090 373 1119 368 q 914 89 1068 202 q 732 4 840 35 q 510 -27 625 -27 q 313 -9 395 -27 q 170 45 231 8 m 416 218 q 507 92 416 92 q 616 156 566 92 q 695 314 667 220 q 723 506 723 408 q 655 604 723 604 q 539 548 595 604 q 450 402 483 492 q 416 218 416 312 m 405 875 q 358 908 358 875 q 376 950 358 930 q 409 988 393 971 q 615 1105 516 1105 q 771 1063 687 1105 q 904 1020 856 1020 q 980 1049 923 1020 q 1059 1079 1037 1079 q 1108 1045 1108 1079 q 1058 965 1108 1020 q 851 848 951 848 q 749 869 803 848 q 645 912 694 891 q 570 933 596 933 q 487 904 543 933 q 405 875 430 875 "},"Ṡ":{"x_min":63.078125,"x_max":1360.953125,"ha":1273,"o":"m 80 52 q 63 86 63 61 q 104 197 63 112 q 169 281 145 281 q 211 262 183 281 q 277 217 240 244 q 359 165 315 191 q 567 101 466 101 q 639 122 617 101 q 661 163 661 142 q 638 209 661 183 q 578 263 615 236 q 496 322 541 291 q 406 387 451 353 q 325 457 362 422 q 242 610 242 535 q 270 706 242 663 q 342 775 298 748 q 441 819 385 801 q 647 851 541 851 q 690 843 676 851 q 704 822 704 834 q 694 787 704 811 q 684 746 684 764 q 709 699 684 727 q 773 640 733 670 q 859 577 812 611 q 954 505 907 543 q 1041 427 1002 467 q 1130 256 1130 339 q 1087 117 1130 172 q 967 31 1044 61 q 799 -13 891 0 q 576 -27 708 -27 q 286 0 444 -27 q 80 52 128 27 m 1203 716 q 983 874 1114 822 q 709 926 851 926 q 206 828 448 926 q 160 815 173 815 q 132 841 132 815 q 169 891 132 862 q 273 951 205 920 q 427 1008 341 982 q 849 1068 624 1068 q 1352 975 1182 1068 q 1360 943 1361 969 q 1336 860 1359 916 q 1278 757 1312 805 q 1221 710 1245 710 q 1203 716 1215 716 m 728 1315 q 940 1386 807 1386 q 1061 1355 1015 1386 q 1108 1278 1108 1325 q 1070 1196 1108 1230 q 976 1144 1033 1162 q 852 1126 920 1126 q 737 1156 784 1126 q 690 1234 690 1186 q 728 1315 690 1281 "},",":{"x_min":146.5,"x_max":609.71875,"ha":813,"o":"m 375 -21 q 333 -25 354 -25 q 192 9 238 -25 q 146 99 146 44 q 223 233 146 176 q 400 290 300 290 q 555 246 500 290 q 609 132 609 201 q 578 -7 609 63 q 497 -133 546 -77 q 383 -227 448 -190 q 266 -265 319 -265 q 213 -233 213 -265 q 222 -213 213 -223 q 262 -183 230 -204 q 328 -115 294 -161 q 375 -21 362 -69 "},"d":{"x_min":54.9375,"x_max":1404.59375,"ha":1273,"o":"m 1374 193 q 1404 165 1404 193 q 1376 124 1404 145 q 1149 21 1300 69 q 885 -27 998 -27 q 719 -3 773 -27 q 646 78 666 19 q 533 5 607 38 q 376 -27 459 -27 q 242 -12 294 -27 q 147 31 189 2 q 79 113 104 61 q 54 234 54 165 q 75 372 54 303 q 140 503 96 440 q 245 614 184 566 q 393 691 306 662 q 581 719 480 719 q 855 637 746 719 q 893 952 893 878 l 892 972 q 958 1006 892 1006 l 1262 992 q 1287 982 1278 992 q 1297 960 1297 972 q 1185 526 1297 854 q 1073 166 1073 198 q 1082 121 1073 134 q 1121 107 1091 107 q 1221 132 1150 107 q 1328 174 1292 156 q 1374 193 1364 193 m 533 145 q 746 340 661 145 q 795 505 795 434 q 776 566 795 545 q 702 587 758 587 q 581 535 647 587 q 475 406 516 484 q 435 267 435 328 q 462 175 435 206 q 533 145 489 145 "},"\"":{"x_min":295.03125,"x_max":888.46875,"ha":901,"o":"m 549 1115 q 503 881 549 1017 q 401 653 458 745 q 371 614 384 626 q 340 602 358 602 q 295 666 295 602 q 306 814 295 706 q 319 949 318 923 q 321 995 320 975 q 322 1028 322 1015 q 329 1093 323 1061 q 359 1148 335 1125 q 475 1187 401 1187 q 549 1115 549 1187 m 888 1115 q 843 881 888 1017 q 740 653 797 745 q 710 614 723 626 q 679 602 697 602 q 634 666 634 602 q 645 814 634 706 q 658 949 657 923 q 660 995 659 975 q 661 1028 661 1015 q 668 1093 662 1061 q 698 1148 674 1125 q 814 1187 740 1187 q 888 1115 888 1187 "},"˙":{"x_min":215,"x_max":618.546875,"ha":834,"o":"m 618 996 q 544 879 618 929 q 388 830 470 830 q 260 863 306 830 q 215 945 215 897 q 250 1032 215 992 q 341 1094 285 1072 q 462 1117 396 1117 q 573 1082 528 1117 q 618 996 618 1047 "},"ê":{"x_min":39.34375,"x_max":1174,"ha":1042,"o":"m 1150 193 q 1174 171 1174 193 q 1141 130 1174 149 q 1062 90 1109 111 q 931 40 1014 69 q 497 -27 739 -27 q 39 255 39 -27 q 126 499 39 392 q 360 662 213 606 q 679 719 506 719 q 932 666 852 719 q 1013 518 1013 612 q 936 361 1013 422 q 731 270 859 300 q 438 228 603 240 q 588 97 448 123 q 664 91 624 91 q 1122 187 823 91 q 1150 193 1140 193 m 438 303 q 625 402 556 335 q 693 564 693 470 q 677 604 693 590 q 628 619 661 619 q 559 591 595 619 q 499 516 524 562 q 438 303 448 421 m 829 1131 q 1023 841 1023 902 q 994 812 1023 812 q 927 837 964 812 q 711 976 822 909 q 433 837 596 925 q 377 817 396 817 q 339 849 339 817 q 431 971 339 881 q 642 1142 524 1062 q 688 1165 667 1160 q 752 1171 708 1171 q 829 1131 797 1171 "},"„":{"x_min":61.046875,"x_max":847.09375,"ha":1033,"o":"m 94 -278 q 61 -248 61 -278 q 93 -186 61 -231 q 158 -90 125 -140 q 190 -16 190 -41 q 162 52 190 8 q 133 120 133 97 q 190 232 133 180 q 312 284 247 284 q 408 251 377 284 q 440 158 440 218 q 380 -19 440 71 q 215 -210 320 -109 q 94 -278 144 -278 m 501 -278 q 467 -248 467 -278 q 512 -166 467 -225 q 597 -22 597 -52 q 569 52 597 8 q 540 120 540 97 q 597 232 540 180 q 719 284 654 284 q 815 251 784 284 q 847 158 847 218 q 787 -19 847 71 q 622 -210 727 -109 q 501 -278 551 -278 "},"ľ":{"x_min":44.765625,"x_max":957.65625,"ha":754,"o":"m 717 564 q 727 619 717 583 q 778 830 769 778 q 790 896 787 883 q 800 928 792 909 q 817 956 808 947 q 888 980 843 980 q 957 905 957 980 q 923 761 957 851 q 839 600 888 672 q 754 529 790 529 q 717 564 717 529 m 360 999 l 693 1006 q 719 995 710 1006 q 728 972 728 985 q 598 561 728 901 q 468 161 468 221 q 478 123 468 136 q 514 111 489 111 q 765 185 595 111 q 797 193 781 193 q 825 171 825 193 q 797 133 825 153 q 720 90 769 113 q 602 38 672 66 q 443 -8 532 10 q 258 -27 355 -27 q 103 -1 161 -27 q 44 94 44 25 q 170 478 44 143 q 256 737 217 602 q 295 939 295 872 l 295 965 q 360 999 295 999 "},"Â":{"x_min":-23.0625,"x_max":1268.28125,"ha":1275,"o":"m 802 -27 q 576 122 576 -27 q 684 464 576 208 q 792 819 792 720 q 751 898 792 874 q 632 921 710 921 q 474 908 554 921 q 372 894 394 894 q 349 914 349 894 q 444 984 349 941 q 849 1068 628 1068 q 1111 1005 1024 1068 q 1199 800 1199 942 q 1169 590 1199 716 q 1109 352 1139 463 q 1080 200 1080 241 q 1096 142 1080 158 q 1171 122 1115 122 q 1210 114 1206 122 q 1215 99 1215 107 q 1186 48 1215 67 q 802 -27 1079 -27 m 407 463 l 581 467 q 628 440 628 467 q 606 408 628 420 q 335 358 527 368 q 280 167 280 249 q 289 100 280 130 q 299 55 299 69 q 253 7 299 19 q 120 -5 208 -5 q 4 10 32 -5 q -23 67 -23 26 q 21 234 -23 143 q 134 409 65 326 q 288 574 204 493 q 451 713 372 655 q 691 844 628 844 q 720 826 720 844 q 692 787 720 809 q 548 653 632 743 q 398 463 463 562 l 407 463 m 962 1208 q 643 1103 688 1103 q 620 1111 630 1103 q 611 1133 611 1119 q 684 1219 611 1162 q 893 1361 757 1275 q 940 1383 920 1378 q 994 1389 960 1389 q 1048 1379 1028 1389 q 1087 1350 1068 1369 q 1222 1207 1176 1262 q 1268 1125 1268 1152 q 1236 1098 1268 1098 q 1148 1121 1203 1098 q 962 1208 1052 1159 "},"Į":{"x_min":48.828125,"x_max":902.03125,"ha":926,"o":"m 94 123 q 191 153 161 131 q 248 230 221 174 q 316 402 274 286 q 151 666 151 504 q 187 800 151 737 q 282 906 223 862 q 416 980 341 949 q 729 1041 564 1041 q 869 998 832 1041 q 902 897 902 959 q 872 736 902 835 q 779 459 843 636 q 683 180 716 282 q 581 32 651 79 q 388 -13 512 -13 q 157 17 265 -13 q 48 88 48 48 q 94 123 48 118 m 439 828 q 429 854 439 844 q 404 864 419 864 q 373 853 389 864 q 337 819 356 842 q 292 667 292 764 q 344 486 292 570 q 439 828 439 768 m 463 -260 l 533 -254 q 562 -280 562 -254 q 481 -341 562 -315 q 298 -367 400 -367 q 149 -336 196 -367 q 102 -250 102 -305 q 165 -130 102 -196 q 321 -14 228 -65 q 512 65 413 35 l 512 13 q 408 -69 457 -13 q 360 -181 360 -126 q 463 -260 360 -260 "},"ė":{"x_min":39.34375,"x_max":1174,"ha":1042,"o":"m 1150 193 q 1174 171 1174 193 q 1141 130 1174 149 q 1062 90 1109 111 q 931 40 1014 69 q 497 -27 739 -27 q 39 255 39 -27 q 126 499 39 392 q 360 662 213 606 q 679 719 506 719 q 932 666 852 719 q 1013 518 1013 612 q 936 361 1013 422 q 731 270 859 300 q 438 228 603 240 q 588 97 448 123 q 664 91 624 91 q 1122 187 823 91 q 1150 193 1140 193 m 438 303 q 625 402 556 335 q 693 564 693 470 q 677 604 693 590 q 628 619 661 619 q 559 591 595 619 q 499 516 524 562 q 438 303 448 421 m 871 996 q 797 879 871 929 q 641 830 723 830 q 513 863 559 830 q 468 945 468 897 q 503 1032 468 992 q 594 1094 538 1072 q 715 1117 649 1117 q 826 1082 781 1117 q 871 996 871 1047 "},"Ţ":{"x_min":117.328125,"x_max":1268.28125,"ha":1158,"o":"m 840 146 l 977 159 q 1037 127 1037 159 q 998 71 1037 94 q 792 -6 902 13 q 578 -27 682 -27 q 429 -23 474 -27 q 341 -8 385 -19 q 269 23 297 3 q 209 156 209 66 q 398 550 209 313 q 641 759 541 729 q 763 775 693 775 q 832 722 832 775 q 822 680 832 704 q 754 492 784 600 q 725 298 725 384 q 840 146 725 146 m 151 704 q 117 744 117 704 q 143 865 117 788 q 254 1027 195 1011 q 352 1033 270 1033 l 811 1022 q 1008 1043 845 1022 q 1180 1063 1172 1063 q 1268 1003 1268 1063 q 1249 920 1268 977 q 1200 811 1230 862 q 1144 760 1169 760 q 1073 786 1128 760 q 805 862 907 862 q 570 842 704 862 q 371 795 436 822 q 257 746 306 769 q 151 704 166 704 m 555 -274 q 470 -281 526 -281 q 288 -197 288 -281 q 368 -109 288 -145 q 571 -73 448 -73 q 679 -93 637 -73 q 756 -201 756 -128 q 725 -293 756 -252 q 640 -358 694 -333 q 376 -406 530 -406 q 318 -379 318 -406 q 368 -337 318 -351 q 418 -324 384 -333 q 469 -311 453 -316 q 555 -274 514 -298 "},"\u0012":{"x_min":0,"x_max":0,"ha":0},"Í":{"x_min":48.828125,"x_max":1150.9375,"ha":926,"o":"m 316 402 q 151 666 151 504 q 187 800 151 737 q 282 906 223 862 q 416 980 341 949 q 729 1041 564 1041 q 869 998 832 1041 q 902 897 902 959 q 872 736 902 835 q 779 459 843 636 q 683 180 716 282 q 581 32 651 79 q 388 -13 512 -13 q 157 17 265 -13 q 48 88 48 48 q 94 123 48 118 q 191 153 161 131 q 248 230 221 174 q 316 402 274 286 m 439 828 q 429 854 439 844 q 404 864 419 864 q 373 853 389 864 q 337 819 356 842 q 292 667 292 764 q 344 486 292 570 q 439 828 439 768 m 886 1365 q 1007 1390 952 1390 q 1106 1356 1062 1390 q 1150 1279 1150 1323 q 1132 1229 1150 1252 q 1074 1201 1114 1207 q 1028 1195 1068 1201 q 968 1187 989 1190 q 906 1178 948 1184 q 834 1167 864 1172 q 766 1154 804 1161 q 695 1138 729 1146 q 633 1121 661 1130 q 582 1112 604 1112 q 560 1139 560 1112 q 658 1247 560 1178 q 886 1365 756 1316 "},"´":{"x_min":148.53125,"x_max":685,"ha":834,"o":"m 503 1161 q 538 1168 518 1168 q 635 1130 586 1168 q 685 1051 685 1093 q 609 973 685 1001 q 221 814 380 890 q 176 801 195 801 q 148 826 148 801 q 196 910 148 851 q 328 1040 243 968 q 503 1161 414 1112 "},"Ú":{"x_min":146.5,"x_max":1466.3125,"ha":1508,"o":"m 1154 1035 l 1367 1032 q 1435 1010 1405 1032 q 1466 954 1466 988 q 1449 881 1466 921 q 1301 501 1363 688 q 1239 233 1239 314 q 1254 180 1239 200 q 1293 151 1270 159 q 1338 138 1315 143 q 1391 103 1391 126 q 1315 35 1391 67 q 1145 -11 1238 4 q 983 -27 1052 -27 q 790 129 790 -27 q 791 150 790 143 q 619 25 725 77 q 415 -27 514 -27 q 161 121 211 -27 q 146 229 146 165 q 172 381 146 293 q 230 534 198 468 q 299 676 261 600 q 354 809 354 786 q 271 867 354 853 q 238 881 250 870 q 225 908 225 891 q 246 943 225 924 q 308 979 267 962 q 405 1010 349 996 q 695 1041 529 1041 q 819 965 819 1041 q 779 866 819 952 q 690 678 738 780 q 600 457 641 577 q 560 277 560 337 q 583 199 560 217 q 638 181 607 181 q 687 184 669 181 q 724 191 706 186 q 753 199 741 196 q 781 208 764 202 q 800 215 798 215 q 946 636 831 363 q 1053 959 1053 893 q 1154 1035 1053 1035 m 1157 1365 q 1278 1390 1223 1390 q 1377 1356 1332 1390 q 1421 1279 1421 1323 q 1403 1229 1421 1252 q 1344 1201 1384 1207 q 1299 1195 1338 1201 q 1239 1187 1260 1190 q 1177 1178 1218 1184 q 1105 1167 1135 1172 q 1037 1154 1074 1161 q 966 1138 999 1146 q 904 1121 932 1130 q 853 1112 875 1112 q 830 1139 830 1112 q 929 1247 830 1178 q 1157 1365 1027 1316 "},"Ŷ":{"x_min":141.75,"x_max":1435.796875,"ha":1389,"o":"m 1155 1034 l 1338 1032 q 1405 1015 1375 1032 q 1435 969 1435 997 q 1425 937 1435 957 q 1273 494 1381 849 q 1139 72 1165 139 q 1079 -53 1112 6 q 1010 -158 1045 -113 q 933 -235 975 -202 q 851 -289 892 -268 q 761 -322 810 -310 q 560 -345 673 -345 q 493 -309 493 -345 q 532 -248 493 -288 q 577 -200 571 -208 q 758 150 659 -94 q 595 65 689 99 q 428 31 501 31 q 309 45 355 31 q 225 85 263 59 q 141 262 141 143 q 168 406 141 319 q 226 566 194 494 q 288 706 257 638 q 323 786 320 775 q 327 809 327 798 q 244 867 327 853 q 210 881 223 870 q 198 910 198 891 q 229 952 198 929 q 314 995 259 975 q 648 1041 440 1041 q 772 967 772 1041 q 656 652 772 913 q 539 296 539 392 q 655 205 539 205 q 790 229 716 205 q 1021 994 918 567 q 1057 1027 1026 1019 q 1155 1034 1088 1034 m 956 1208 q 637 1103 682 1103 q 614 1111 623 1103 q 604 1133 604 1119 q 678 1219 604 1162 q 887 1361 751 1275 q 934 1383 914 1378 q 988 1389 954 1389 q 1042 1379 1022 1389 q 1081 1350 1062 1369 q 1216 1207 1170 1262 q 1262 1125 1262 1152 q 1229 1098 1262 1098 q 1142 1121 1197 1098 q 956 1208 1046 1159 "},"ŝ":{"x_min":-23.0625,"x_max":1171.96875,"ha":1040,"o":"m 492 -26 q 442 -27 475 -27 q 148 2 286 -27 q -14 69 10 31 q -23 100 -23 82 q 20 159 -23 118 q 80 199 63 199 q 113 187 96 199 q 151 158 130 175 q 198 124 172 141 q 347 84 260 84 q 403 101 381 84 q 424 146 424 119 q 406 192 424 172 q 359 226 388 212 q 296 256 330 241 q 226 287 261 270 q 162 325 191 305 q 98 438 98 370 q 139 555 98 505 q 242 634 180 604 q 383 685 305 664 q 645 719 522 719 q 874 707 768 719 q 1020 670 980 694 q 1031 637 1031 663 q 1013 563 1031 611 q 966 473 994 514 q 916 432 938 432 q 901 440 907 432 q 776 559 836 517 q 644 600 715 600 q 566 578 590 600 q 543 533 543 556 q 569 487 543 509 q 634 448 595 465 q 719 407 673 430 q 804 359 765 383 q 869 299 843 335 q 895 208 895 263 q 855 101 895 153 q 1118 184 1023 134 q 1146 193 1134 193 q 1171 167 1171 193 q 1145 127 1171 145 q 1058 84 1119 109 q 912 33 996 59 q 492 -26 716 -26 m 829 1131 q 1023 841 1023 902 q 993 812 1023 812 q 927 837 964 812 q 710 976 822 909 q 433 837 596 925 q 377 817 396 817 q 339 849 339 817 q 431 971 339 881 q 641 1142 523 1062 q 687 1165 667 1160 q 752 1171 708 1171 q 829 1131 796 1171 "},"Ý":{"x_min":141.75,"x_max":1435.796875,"ha":1389,"o":"m 1155 1034 l 1338 1032 q 1405 1015 1375 1032 q 1435 969 1435 997 q 1425 937 1435 957 q 1273 494 1381 849 q 1139 72 1165 139 q 1079 -53 1112 6 q 1010 -158 1045 -113 q 933 -235 975 -202 q 851 -289 892 -268 q 761 -322 810 -310 q 560 -345 673 -345 q 493 -309 493 -345 q 532 -248 493 -288 q 577 -200 571 -208 q 758 150 659 -94 q 595 65 689 99 q 428 31 501 31 q 309 45 355 31 q 225 85 263 59 q 141 262 141 143 q 168 406 141 319 q 226 566 194 494 q 288 706 257 638 q 323 786 320 775 q 327 809 327 798 q 244 867 327 853 q 210 881 223 870 q 198 910 198 891 q 229 952 198 929 q 314 995 259 975 q 648 1041 440 1041 q 772 967 772 1041 q 656 652 772 913 q 539 296 539 392 q 655 205 539 205 q 790 229 716 205 q 1021 994 918 567 q 1057 1027 1026 1019 q 1155 1034 1088 1034 m 1086 1365 q 1207 1390 1152 1390 q 1306 1356 1262 1390 q 1351 1279 1351 1323 q 1332 1229 1351 1252 q 1274 1201 1314 1207 q 1228 1195 1268 1201 q 1168 1187 1189 1190 q 1106 1178 1148 1184 q 1034 1167 1064 1172 q 966 1154 1004 1161 q 895 1138 929 1146 q 833 1121 862 1130 q 782 1112 805 1112 q 760 1139 760 1112 q 858 1247 760 1178 q 1086 1365 956 1316 "},"Ĉ":{"x_min":78,"x_max":1302.859375,"ha":1273,"o":"m 583 218 q 786 141 648 141 q 1053 184 914 141 q 1120 198 1098 198 q 1159 176 1159 198 q 1108 106 1159 143 q 978 40 1056 69 q 799 -7 899 11 q 611 -27 700 -27 q 331 22 452 -27 q 144 163 210 71 q 78 364 78 255 q 114 565 78 473 q 213 733 151 658 q 360 871 276 807 q 537 978 444 935 q 918 1068 735 1068 q 1201 993 1100 1068 q 1302 810 1302 918 q 1233 603 1302 692 q 1144 534 1199 560 q 1020 508 1089 508 q 941 521 973 508 q 879 591 879 545 q 915 679 879 607 q 986 829 950 752 q 1022 934 1022 906 q 998 974 1022 963 q 928 985 973 985 q 826 951 883 985 q 716 857 769 916 q 619 725 663 798 q 549 568 575 653 q 522 417 522 484 q 538 302 522 349 q 583 218 553 255 m 948 1208 q 629 1103 674 1103 q 606 1111 615 1103 q 596 1133 596 1119 q 670 1219 596 1162 q 878 1361 743 1275 q 926 1383 906 1378 q 980 1389 946 1389 q 1034 1379 1013 1389 q 1073 1350 1054 1369 q 1208 1207 1162 1262 q 1254 1125 1254 1152 q 1221 1098 1254 1098 q 1133 1121 1189 1098 q 948 1208 1038 1159 "},"ą":{"x_min":54.9375,"x_max":1404.59375,"ha":1273,"o":"m 533 145 q 746 340 661 145 q 786 485 786 430 q 767 562 786 541 q 694 583 748 583 q 576 532 639 583 q 474 405 512 482 q 435 267 435 328 q 462 175 435 206 q 533 145 489 145 m 886 719 l 1197 705 q 1223 694 1214 705 q 1232 671 1232 684 q 1191 513 1232 621 q 1109 299 1150 405 q 1068 159 1068 193 q 1078 115 1068 124 q 1119 105 1089 105 q 1227 134 1148 105 q 1335 178 1306 163 q 1378 193 1363 193 q 1404 169 1404 193 q 1201 37 1404 119 q 1035 -8 1132 10 q 839 -27 939 -27 q 639 78 673 -27 q 354 -27 533 -27 q 147 31 231 -27 q 54 234 54 96 q 141 503 54 380 q 393 691 235 639 q 581 719 480 719 q 820 643 735 719 q 821 656 821 647 l 820 685 q 886 719 820 719 m 945 -260 l 1015 -254 q 1044 -280 1044 -254 q 963 -341 1044 -315 q 779 -367 881 -367 q 630 -336 677 -367 q 583 -250 583 -305 q 647 -130 583 -196 q 802 -14 710 -65 q 993 65 895 35 l 993 13 q 890 -69 938 -13 q 842 -181 842 -126 q 945 -260 842 -260 "},"Ω":{"x_min":31.875,"x_max":1211.3125,"ha":1273,"o":"m 889 124 l 1141 137 q 1162 108 1162 137 q 1160 65 1162 80 q 1154 32 1159 49 q 1107 -2 1143 -2 l 728 0 q 707 40 707 0 q 716 97 707 81 q 774 152 726 113 q 848 221 822 191 q 894 274 874 250 q 944 344 914 298 q 992 434 975 391 q 1039 675 1039 545 q 951 892 1039 806 q 741 979 864 979 q 471 880 577 979 q 357 547 357 774 q 375 389 357 472 q 413 249 392 306 q 469 73 469 95 q 455 25 469 51 q 418 0 442 0 l 52 2 q 31 36 31 2 q 77 138 31 138 q 191 131 96 138 q 335 125 286 125 q 193 555 193 329 q 343 956 193 813 q 753 1100 493 1100 q 1079 1001 954 1100 q 1176 872 1142 951 q 1211 693 1211 794 q 1117 366 1211 530 q 889 124 1022 202 "},"Ö":{"x_min":91.5625,"x_max":1426.984375,"ha":1389,"o":"m 706 737 q 534 465 593 645 q 503 267 503 367 q 617 91 503 91 q 738 139 676 91 q 850 264 800 187 q 932 447 900 341 q 965 659 965 553 q 912 871 965 808 q 734 934 859 934 q 585 919 665 934 q 450 886 505 904 q 350 853 394 868 q 299 838 306 838 q 274 859 274 838 q 308 901 274 875 q 401 956 341 927 q 533 1010 461 985 q 864 1068 702 1068 q 1302 888 1174 1068 q 1377 625 1377 781 q 1336 402 1377 506 q 1220 220 1294 298 q 1047 86 1146 142 q 590 -27 845 -27 q 91 314 91 -27 q 132 497 91 409 q 241 650 174 585 q 393 763 309 714 q 736 861 564 861 q 775 851 763 861 q 787 831 787 841 q 784 814 787 821 q 772 797 781 807 q 756 781 763 788 q 706 737 739 766 m 889 1186 q 801 1131 855 1150 q 684 1112 747 1112 q 575 1141 621 1112 q 529 1215 529 1170 q 564 1295 529 1259 q 653 1350 599 1330 q 770 1370 707 1370 q 879 1340 834 1370 q 925 1265 925 1310 q 889 1186 925 1221 m 1426 1262 q 1354 1156 1426 1200 q 1202 1112 1281 1112 q 1077 1141 1123 1112 q 1031 1215 1031 1170 q 1066 1295 1031 1259 q 1155 1350 1101 1330 q 1272 1370 1209 1370 q 1381 1340 1336 1370 q 1426 1262 1426 1310 "},"\u0001":{"x_min":0,"x_max":0,"ha":0},"z":{"x_min":-14.921875,"x_max":1287.9375,"ha":1156,"o":"m 722 641 q 800 715 775 715 q 909 702 825 715 q 1080 662 994 689 q 1165 609 1165 636 q 1113 522 1165 576 q 666 162 1000 402 q 602 116 620 130 q 822 108 716 108 q 1195 172 1040 108 q 1262 193 1244 193 q 1287 170 1287 193 q 1152 67 1287 139 q 1005 8 1093 36 q 847 -20 917 -20 q 712 -10 777 -20 q 610 9 647 -1 q 543 29 573 20 q 510 39 514 39 q 485 23 505 39 q 394 -23 426 -23 q 250 -1 362 -23 q 61 40 138 21 q -14 109 -14 59 q 4 148 -14 130 q 73 197 23 167 q 188 262 124 226 q 612 537 366 360 q 530 539 579 539 q 421 525 480 539 q 319 490 361 511 q 243 448 277 470 q 148 400 162 400 q 124 411 133 400 q 115 442 115 421 q 160 565 115 462 q 228 689 205 668 q 272 715 250 710 q 336 719 295 719 q 535 668 378 719 q 698 617 692 617 q 722 641 704 617 "},"™":{"x_min":218.390625,"x_max":1510.40625,"ha":1505,"o":"m 797 921 l 765 916 q 748 944 748 916 q 775 999 748 973 q 851 1044 803 1025 q 936 1063 900 1063 q 987 1046 973 1063 q 1002 1007 1002 1029 q 1001 981 1002 984 q 1186 1069 1104 1069 q 1247 1048 1226 1069 q 1270 990 1269 1028 q 1350 1050 1315 1031 q 1423 1069 1384 1069 q 1486 1047 1462 1069 q 1510 983 1510 1025 q 1489 877 1510 940 q 1446 759 1467 813 q 1424 682 1424 704 q 1464 630 1424 638 q 1493 611 1493 625 q 1453 571 1493 588 q 1350 554 1413 554 q 1262 618 1262 554 q 1301 764 1262 662 q 1339 895 1339 865 q 1310 925 1339 925 q 1253 903 1285 925 q 1219 807 1245 877 q 1161 588 1165 657 q 1144 564 1160 564 l 1020 562 q 979 587 979 562 q 1014 717 979 638 q 1070 838 1049 796 q 1090 897 1090 880 q 1057 925 1090 925 q 994 902 1025 925 q 987 898 992 901 q 982 894 982 895 q 946 793 971 861 q 892 607 892 648 l 893 585 q 884 570 893 575 q 864 564 874 564 l 750 562 q 710 590 710 562 q 735 691 710 628 q 787 810 761 754 q 813 894 813 867 q 797 921 813 921 m 526 642 l 582 648 q 608 628 608 648 q 592 600 608 613 q 392 554 523 554 q 284 648 284 554 q 323 780 284 700 q 405 910 362 861 q 420 923 414 918 q 325 901 352 914 q 277 877 298 888 q 231 857 239 857 q 218 882 218 857 q 235 974 218 906 q 275 1050 252 1043 q 316 1052 282 1052 l 528 1047 l 682 1066 q 718 1040 718 1066 q 700 949 718 1013 q 666 884 682 884 q 614 905 661 884 q 534 931 566 927 q 497 817 516 887 q 478 708 478 746 q 526 642 478 642 "},"Ř":{"x_min":-53.578125,"x_max":1446.65625,"ha":1504,"o":"m 673 423 l 640 422 q 567 197 595 292 q 521 72 538 101 q 483 26 503 44 q 432 0 463 9 q 292 -13 381 -13 q 123 6 204 -13 q -5 54 42 25 q -53 110 -53 83 q -40 135 -53 126 q -9 144 -27 144 q 82 164 52 144 q 138 238 111 184 q 190 362 164 291 q 239 493 217 432 q 292 616 262 553 q 450 797 356 752 q 571 831 495 819 q 688 843 646 843 q 743 842 730 843 q 769 837 756 841 q 795 807 795 830 q 790 781 795 793 q 757 722 784 769 q 663 489 729 676 q 1023 752 1023 531 q 976 864 1023 826 q 878 909 928 901 q 716 921 805 921 q 531 905 628 921 q 382 868 435 888 q 287 831 328 848 q 233 815 245 815 q 198 838 198 815 q 236 893 198 868 q 543 1024 370 979 q 977 1068 716 1068 q 1200 1041 1110 1068 q 1337 983 1289 1013 q 1416 904 1385 953 q 1446 795 1446 854 q 1424 691 1446 736 q 1362 614 1401 646 q 1264 556 1323 581 q 985 484 1161 512 q 1197 438 1119 484 q 1275 307 1275 392 l 1263 187 q 1313 131 1263 138 q 1355 126 1334 128 q 1404 88 1404 122 q 1289 7 1404 42 q 1037 -27 1174 -27 q 779 124 779 -27 q 801 228 779 160 q 824 319 824 296 q 788 392 824 362 q 673 423 753 423 m 950 1279 q 1268 1384 1224 1384 q 1292 1376 1282 1384 q 1301 1354 1301 1368 q 1228 1269 1301 1325 q 1019 1127 1155 1212 q 972 1104 992 1110 q 918 1098 952 1098 q 864 1108 884 1098 q 824 1138 843 1119 q 689 1281 734 1227 q 644 1362 644 1335 q 676 1389 644 1389 q 764 1367 708 1389 q 950 1279 859 1328 "},"ã":{"x_min":54.9375,"x_max":1404.59375,"ha":1273,"o":"m 533 145 q 746 340 661 145 q 786 485 786 430 q 767 562 786 541 q 694 583 748 583 q 576 532 639 583 q 474 405 512 482 q 435 267 435 328 q 462 175 435 206 q 533 145 489 145 m 886 719 l 1197 705 q 1223 694 1214 705 q 1232 671 1232 684 q 1191 513 1232 621 q 1109 299 1150 405 q 1068 159 1068 193 q 1078 115 1068 124 q 1119 105 1089 105 q 1227 134 1148 105 q 1335 178 1306 163 q 1378 193 1363 193 q 1404 169 1404 193 q 1201 37 1404 119 q 1035 -8 1132 10 q 839 -27 939 -27 q 639 78 673 -27 q 354 -27 533 -27 q 147 31 231 -27 q 54 234 54 96 q 141 503 54 380 q 393 691 235 639 q 581 719 480 719 q 820 643 735 719 q 821 656 821 647 l 820 685 q 886 719 820 719 m 488 875 q 441 908 441 875 q 458 950 441 930 q 492 988 476 971 q 698 1105 599 1105 q 854 1063 769 1105 q 987 1020 939 1020 q 1063 1049 1006 1020 q 1142 1079 1119 1079 q 1191 1045 1191 1079 q 1140 965 1191 1020 q 933 848 1034 848 q 831 869 886 848 q 728 912 777 891 q 653 933 679 933 q 570 904 626 933 q 488 875 513 875 "},"Ň":{"x_min":87.484375,"x_max":1451.390625,"ha":1504,"o":"m 301 832 l 221 815 q 198 819 206 815 q 191 836 191 824 q 254 918 191 868 q 426 1012 317 969 q 624 1055 536 1055 q 749 1024 712 1055 q 787 906 787 994 l 785 875 q 1027 1024 920 980 q 1237 1069 1134 1069 q 1395 1026 1340 1069 q 1451 902 1451 983 q 1372 634 1451 818 q 1307 484 1340 558 q 1228 247 1228 302 q 1325 132 1228 149 q 1386 113 1378 124 q 1394 92 1394 103 q 1289 8 1394 44 q 1055 -27 1184 -27 q 800 124 800 -27 q 873 402 800 229 q 934 544 904 475 q 1007 776 1007 710 q 905 843 1007 843 q 771 800 845 843 q 628 411 737 670 q 527 82 527 177 q 529 37 527 82 q 506 4 529 16 q 458 -8 483 -8 l 186 -12 q 94 13 111 -12 q 87 53 87 26 q 99 129 87 80 q 172 325 110 179 q 285 598 234 472 q 337 764 337 724 q 328 818 337 805 q 301 832 319 832 m 967 1279 q 1285 1384 1241 1384 q 1308 1376 1299 1384 q 1318 1354 1318 1368 q 1245 1269 1318 1325 q 1036 1127 1171 1212 q 989 1104 1009 1110 q 935 1098 969 1098 q 881 1108 901 1098 q 841 1138 860 1119 q 706 1281 751 1227 q 661 1362 661 1335 q 693 1389 661 1389 q 781 1367 725 1389 q 967 1279 876 1328 "},"æ":{"x_min":54.9375,"x_max":1859.6875,"ha":1732,"o":"m 841 680 l 841 706 q 906 739 841 739 q 1034 719 936 739 q 1177 698 1133 699 q 1370 719 1270 719 q 1618 666 1538 719 q 1698 518 1698 612 q 1621 361 1698 422 q 1417 270 1544 300 q 1123 228 1289 240 q 1275 97 1134 123 q 1350 91 1310 91 q 1808 187 1509 91 q 1835 193 1826 193 q 1859 170 1859 193 q 1827 130 1859 149 q 1747 90 1795 111 q 1616 40 1700 69 q 1183 -27 1424 -27 q 833 65 924 -27 q 776 176 790 108 q 589 14 680 57 q 387 -27 501 -27 q 157 24 232 -27 q 54 245 54 94 q 97 418 54 336 q 216 563 140 501 q 402 662 291 625 q 643 699 514 699 q 737 689 711 699 q 763 660 763 679 q 746 629 763 641 q 672 593 730 617 q 505 457 575 552 q 435 255 435 363 q 462 175 435 206 q 533 145 489 145 q 680 219 609 145 q 796 418 752 293 q 841 680 841 543 m 1124 303 q 1311 402 1242 335 q 1379 564 1379 470 q 1363 604 1379 590 q 1314 619 1346 619 q 1245 591 1281 619 q 1185 516 1209 562 q 1124 303 1133 421 "},"ĩ":{"x_min":45.4375,"x_max":873.546875,"ha":697,"o":"m 522 114 q 648 136 569 114 q 763 176 727 158 q 813 193 798 193 q 841 164 841 193 q 820 135 841 151 q 571 28 751 84 q 250 -27 392 -27 q 104 0 163 -27 q 45 85 45 28 q 104 255 45 120 q 215 640 215 510 l 215 666 q 280 699 215 699 l 615 707 q 642 696 633 707 q 651 673 651 686 q 608 519 651 626 q 522 307 565 411 q 480 159 480 204 q 522 114 480 114 m 170 875 q 123 908 123 875 q 140 950 123 930 q 174 988 158 971 q 380 1105 281 1105 q 536 1063 451 1105 q 669 1020 621 1020 q 745 1049 688 1020 q 824 1079 801 1079 q 873 1045 873 1079 q 822 965 873 1020 q 615 848 716 848 q 513 869 568 848 q 410 912 459 891 q 335 933 361 933 q 251 904 308 933 q 170 875 195 875 "},"É":{"x_min":40.6875,"x_max":1319.140625,"ha":1273,"o":"m 940 623 q 965 583 965 623 q 940 515 965 543 q 884 484 914 486 q 821 478 853 482 q 748 464 789 473 q 673 442 707 456 q 610 408 639 427 q 546 297 546 368 q 570 216 546 250 q 631 162 593 181 q 793 125 704 125 q 1142 183 929 125 q 1163 187 1154 187 q 1188 161 1188 187 q 1092 69 1188 113 q 856 -1 995 24 q 593 -27 717 -27 q 372 -11 470 -27 q 199 35 274 4 q 82 119 124 67 q 40 240 40 172 q 81 363 40 309 q 189 454 122 418 q 345 514 257 489 q 715 558 513 558 q 500 583 571 566 q 388 616 430 600 q 320 652 347 632 q 256 767 256 698 q 308 895 256 836 q 445 991 360 954 q 856 1068 622 1068 q 1293 997 1174 1068 q 1319 951 1319 982 q 1274 852 1319 921 q 1202 756 1230 783 q 1151 730 1175 730 q 1109 747 1128 730 q 1079 789 1090 764 q 851 955 1005 955 q 700 907 762 955 q 639 789 639 858 q 710 669 639 719 q 883 619 781 619 l 940 623 m 1051 1365 q 1172 1390 1117 1390 q 1271 1356 1226 1390 q 1315 1279 1315 1323 q 1297 1229 1315 1252 q 1239 1201 1279 1207 q 1193 1195 1233 1201 q 1133 1187 1154 1190 q 1071 1178 1112 1184 q 999 1167 1029 1172 q 931 1154 969 1161 q 860 1138 893 1146 q 798 1121 826 1130 q 747 1112 769 1112 q 725 1139 725 1112 q 823 1247 725 1178 q 1051 1365 921 1316 "},"ŀ":{"x_min":44.765625,"x_max":1063.453125,"ha":990,"o":"m 360 999 l 693 1006 q 719 995 710 1006 q 728 972 728 985 q 598 561 728 901 q 468 161 468 221 q 478 123 468 136 q 514 111 489 111 q 765 185 595 111 q 797 193 781 193 q 825 171 825 193 q 797 133 825 153 q 720 90 769 113 q 602 38 672 66 q 443 -8 532 10 q 258 -27 355 -27 q 103 -1 161 -27 q 44 94 44 25 q 170 478 44 143 q 256 737 217 602 q 295 939 295 872 l 295 965 q 360 999 295 999 m 1063 518 q 989 402 1063 452 q 833 352 915 352 q 705 386 751 352 q 659 467 659 419 q 695 555 659 515 q 786 617 730 594 q 907 639 841 639 q 1018 604 973 639 q 1063 518 1063 570 "},"~":{"x_min":126.828125,"x_max":902.03125,"ha":1003,"o":"m 859 370 q 638 301 756 301 q 533 319 591 301 q 423 355 475 337 q 344 373 370 373 q 261 344 318 373 q 183 315 204 315 q 144 344 162 315 q 126 390 126 373 q 169 448 126 420 q 389 518 271 518 q 495 500 437 518 q 606 464 554 482 q 684 446 658 446 q 767 475 710 446 q 846 504 824 504 q 885 476 869 504 q 902 424 902 448 q 859 370 902 400 "},"Ċ":{"x_min":78,"x_max":1302.859375,"ha":1273,"o":"m 583 218 q 786 141 648 141 q 1053 184 914 141 q 1120 198 1098 198 q 1159 176 1159 198 q 1108 106 1159 143 q 978 40 1056 69 q 799 -7 899 11 q 611 -27 700 -27 q 331 22 452 -27 q 144 163 210 71 q 78 364 78 255 q 114 565 78 473 q 213 733 151 658 q 360 871 276 807 q 537 978 444 935 q 918 1068 735 1068 q 1201 993 1100 1068 q 1302 810 1302 918 q 1233 603 1302 692 q 1144 534 1199 560 q 1020 508 1089 508 q 941 521 973 508 q 879 591 879 545 q 915 679 879 607 q 986 829 950 752 q 1022 934 1022 906 q 998 974 1022 963 q 928 985 973 985 q 826 951 883 985 q 716 857 769 916 q 619 725 663 798 q 549 568 575 653 q 522 417 522 484 q 538 302 522 349 q 583 218 553 255 m 735 1315 q 946 1386 813 1386 q 1067 1355 1021 1386 q 1114 1278 1114 1325 q 1077 1196 1114 1230 q 983 1144 1039 1162 q 858 1126 926 1126 q 743 1156 790 1126 q 696 1234 696 1186 q 735 1315 696 1281 "},"³":{"x_min":151.921875,"x_max":980.03125,"ha":902,"o":"m 687 1239 q 980 1125 980 1239 q 687 980 980 1011 q 899 942 831 972 q 967 847 967 912 q 523 689 967 689 q 300 701 395 689 q 183 724 205 714 q 156 737 160 733 q 151 756 151 741 q 175 824 151 771 q 219 876 198 876 q 261 854 228 876 q 484 774 381 774 q 560 797 528 774 q 593 854 593 820 q 559 912 593 889 q 474 939 524 935 q 408 949 423 943 q 391 960 394 955 q 388 976 388 965 q 448 1008 388 1005 q 595 1035 552 1015 q 639 1085 639 1055 q 551 1143 639 1143 q 411 1120 485 1143 q 324 1098 337 1098 q 303 1106 310 1098 q 295 1130 295 1114 q 324 1159 295 1146 q 687 1239 489 1239 "},"¡":{"x_min":-22.375,"x_max":740.625,"ha":813,"o":"m 360 449 q 541 448 493 449 q 589 412 589 446 q 518 65 589 339 q 440 -252 448 -207 q 422 -309 433 -297 q 372 -326 411 -322 q 205 -338 333 -330 q 28 -346 78 -346 q -22 -307 -22 -346 q -18 -284 -22 -296 q 155 96 53 -88 q 295 405 254 276 q 360 449 309 449 m 316 769 q 420 839 356 813 q 560 865 484 865 q 688 826 636 865 q 740 733 740 788 q 700 633 740 678 q 596 562 659 588 q 456 536 532 536 q 329 576 381 536 q 277 670 277 615 q 316 769 277 725 "},"ẅ":{"x_min":76.640625,"x_max":1970.921875,"ha":1705,"o":"m 239 697 l 598 705 q 624 678 624 705 q 608 642 624 663 q 510 476 550 569 q 470 287 470 383 q 502 160 470 186 q 537 149 516 149 q 620 184 581 149 q 686 271 659 219 q 736 394 714 324 q 790 652 773 513 q 802 683 792 668 q 836 697 813 697 l 1195 705 q 1221 682 1221 705 q 1205 642 1221 665 q 1067 273 1067 451 q 1136 156 1067 156 q 1233 200 1188 156 q 1306 316 1277 244 q 1369 652 1369 467 q 1414 697 1369 691 q 1539 702 1429 699 q 1679 705 1648 705 q 1711 676 1711 705 q 1654 472 1711 575 q 1717 465 1686 465 q 1911 514 1824 465 q 1943 525 1930 525 q 1970 500 1970 525 q 1941 453 1970 476 q 1678 379 1844 379 q 1599 385 1634 379 l 1569 344 q 1376 149 1490 239 q 1145 7 1262 59 q 935 -44 1027 -44 q 820 7 876 -44 q 729 138 763 59 q 518 1 625 52 q 332 -50 412 -50 q 148 46 220 -50 q 76 299 76 143 q 104 479 76 366 q 170 655 132 592 q 200 689 186 680 q 239 697 213 697 m 989 981 q 919 871 989 918 q 771 824 849 824 q 650 856 693 824 q 607 933 607 887 q 640 1015 607 978 q 726 1073 674 1052 q 841 1095 779 1095 q 946 1062 903 1095 q 989 981 989 1029 m 1444 902 q 1359 845 1412 866 q 1244 824 1306 824 q 1139 856 1182 824 q 1096 933 1096 887 q 1129 1015 1096 978 q 1215 1073 1162 1052 q 1329 1095 1267 1095 q 1434 1062 1391 1095 q 1477 984 1477 1029 q 1444 902 1477 939 "},"ṗ":{"x_min":-71.890625,"x_max":1404.59375,"ha":1273,"o":"m 245 697 l 553 705 q 579 694 571 705 q 588 671 588 684 q 583 625 588 657 q 579 578 579 593 q 912 719 704 719 q 1111 654 1039 719 q 1184 471 1184 590 q 1003 94 1184 240 q 1326 172 1214 109 q 1381 193 1363 193 q 1404 168 1404 193 q 1379 132 1404 150 q 1082 12 1264 51 q 692 -25 901 -25 q 653 -27 666 -27 q 510 -5 581 -27 q 390 55 438 16 q 343 -274 343 -87 l 344 -294 q 278 -328 344 -328 l -36 -336 q -62 -326 -52 -336 q -71 -304 -71 -316 q 54 145 -71 -188 q 181 592 181 479 l 179 649 q 191 686 179 674 q 245 697 204 697 m 712 547 q 499 352 584 547 q 459 206 459 262 q 478 130 459 151 q 551 109 497 109 q 669 159 606 109 q 771 286 733 210 q 810 424 810 363 q 783 516 810 486 q 712 547 756 547 m 1164 996 q 1090 879 1164 929 q 934 830 1016 830 q 806 863 852 830 q 760 945 760 897 q 796 1032 760 992 q 887 1094 831 1072 q 1008 1117 942 1117 q 1119 1082 1074 1117 q 1164 996 1164 1047 "},"ṁ":{"x_min":10.171875,"x_max":1866.46875,"ha":1735,"o":"m 259 697 l 581 705 q 607 694 598 705 q 616 669 616 684 q 609 619 616 653 q 924 719 790 719 q 1032 690 982 719 q 1097 604 1082 661 q 1463 719 1318 719 q 1576 683 1527 719 q 1628 572 1628 644 q 1603 422 1628 501 q 1554 274 1578 343 q 1529 178 1529 206 q 1543 135 1529 149 q 1581 121 1557 121 q 1798 182 1669 121 q 1835 193 1823 193 q 1866 168 1866 193 q 1840 127 1866 147 q 1764 85 1814 108 q 1642 35 1715 62 q 1471 -8 1569 9 q 1295 -27 1372 -27 q 1180 -1 1218 -27 q 1142 65 1142 24 q 1168 187 1142 105 q 1221 348 1195 268 q 1247 464 1247 427 q 1230 516 1247 500 q 1177 532 1212 532 q 1100 521 1142 532 q 1010 168 1089 405 q 973 43 977 68 q 967 14 969 18 q 963 4 966 10 q 937 -6 956 -6 q 744 -9 839 -6 q 621 -13 649 -13 q 594 18 594 -13 q 615 113 594 50 q 661 238 636 176 q 729 485 729 404 q 650 545 729 545 q 587 535 617 545 q 496 249 560 444 q 423 29 431 54 q 384 -6 412 -6 l 35 -13 q 19 -4 28 -13 q 10 17 10 4 q 39 106 10 29 q 102 270 67 182 q 165 463 137 358 q 194 638 194 569 l 193 663 q 259 697 193 697 m 1237 996 q 1163 879 1237 929 q 1007 830 1089 830 q 879 863 925 830 q 834 945 834 897 q 869 1032 834 992 q 960 1094 904 1072 q 1081 1117 1015 1117 q 1192 1082 1147 1117 q 1237 996 1237 1047 "},"[":{"x_min":114.625,"x_max":964.4375,"ha":809,"o":"m 140 -156 q 114 -112 114 -156 q 186 227 114 -24 q 340 744 257 479 q 437 1080 423 1009 q 507 1150 451 1150 l 714 1144 l 940 1150 q 964 1104 964 1150 q 900 1034 964 1034 q 792 1041 854 1034 q 712 1048 731 1048 l 671 1047 q 519 550 615 899 q 362 -52 423 200 q 426 -54 392 -54 q 526 -47 459 -54 q 628 -40 594 -40 q 651 -86 651 -40 q 587 -156 651 -156 q 365 -149 587 -156 l 140 -156 "},"%":{"x_min":126.828125,"x_max":1380.859375,"ha":1468,"o":"m 222 949 q 567 1066 330 1066 q 798 994 728 1066 q 835 899 835 954 q 811 797 835 843 q 741 715 787 750 q 621 658 695 679 q 433 638 547 638 q 243 686 318 638 q 168 812 168 733 q 222 949 168 891 m 369 807 q 390 739 369 765 q 471 714 411 714 q 584 769 531 714 q 638 904 638 825 q 597 986 638 969 q 551 994 579 994 q 428 938 488 994 q 369 807 369 883 m 1380 1007 q 1335 935 1380 973 l 232 22 q 174 -6 198 -6 q 138 5 150 -6 q 126 36 126 17 q 172 106 126 68 l 1275 1020 q 1333 1048 1309 1048 q 1368 1036 1357 1048 q 1380 1007 1380 1024 m 716 281 q 1060 398 824 398 q 1292 325 1222 398 q 1329 231 1329 286 q 1305 129 1329 175 q 1235 47 1281 82 q 1115 -9 1188 11 q 926 -29 1041 -29 q 737 17 812 -29 q 662 144 662 65 q 716 281 662 223 m 863 139 q 884 71 863 97 q 964 46 904 46 q 1078 101 1024 46 q 1131 236 1131 157 q 1091 318 1131 301 q 1045 326 1072 326 q 922 270 982 326 q 863 139 863 215 "},"P":{"x_min":-53.578125,"x_max":1430.375,"ha":1388,"o":"m 773 745 q 638 378 732 678 q 704 377 660 377 q 933 470 840 377 q 1026 711 1026 562 q 765 928 1026 928 q 566 913 662 928 q 415 881 470 898 q 312 848 359 863 q 250 833 265 833 q 217 857 217 833 q 263 907 217 882 q 369 957 309 933 q 517 1007 429 981 q 950 1068 717 1068 q 1370 931 1258 1068 q 1430 753 1430 857 q 1265 426 1430 555 q 900 286 1125 316 q 750 278 834 278 q 610 289 666 278 q 565 149 581 198 q 530 72 550 101 q 488 26 510 43 q 432 0 466 9 q 289 -13 379 -13 q 120 6 200 -13 q -6 54 40 25 q -53 109 -53 82 q -40 134 -53 125 q -8 144 -26 144 q 83 164 53 144 q 142 238 113 184 q 198 365 170 293 q 250 499 226 437 q 306 626 275 561 q 468 811 375 767 q 587 844 514 832 q 702 856 660 856 q 756 855 744 856 q 781 851 769 854 q 807 822 807 844 q 802 795 807 807 q 773 745 796 782 "},"∏":{"x_min":179.734375,"x_max":1418.84375,"ha":1273,"o":"m 407 -8 l 293 -12 q 265 -2 274 -12 q 257 41 257 6 q 268 126 257 75 q 310 281 279 177 q 370 469 341 384 q 464 748 441 681 q 489 876 486 814 q 346 846 460 872 q 214 819 232 819 q 179 856 179 819 q 232 958 179 893 q 316 1034 284 1024 q 415 1040 335 1040 l 1179 1036 l 1359 1049 q 1405 1039 1391 1049 q 1418 995 1418 1028 q 1369 912 1418 963 q 1292 860 1319 860 l 1114 881 q 1009 482 1095 756 q 932 80 932 238 l 935 37 q 894 -8 935 -8 l 785 -12 q 757 -2 764 -12 q 750 31 750 8 q 795 259 750 95 q 892 605 839 422 q 961 894 954 822 q 796 900 876 900 q 646 895 717 900 q 531 470 634 767 q 432 82 432 181 l 434 25 q 429 0 434 7 q 407 -8 423 -8 "},"_":{"x_min":-255.6875,"x_max":775.890625,"ha":763,"o":"m -211 -124 l 731 -124 q 764 -139 752 -124 q 775 -175 775 -154 q 764 -211 775 -196 q 731 -227 752 -227 l -211 -227 q -243 -211 -231 -227 q -255 -175 -255 -196 q -243 -139 -255 -154 q -211 -124 -231 -124 "},"Ŕ":{"x_min":-53.578125,"x_max":1446.65625,"ha":1504,"o":"m 673 423 l 640 422 q 567 197 595 292 q 521 72 538 101 q 483 26 503 44 q 432 0 463 9 q 292 -13 381 -13 q 123 6 204 -13 q -5 54 42 25 q -53 110 -53 83 q -40 135 -53 126 q -9 144 -27 144 q 82 164 52 144 q 138 238 111 184 q 190 362 164 291 q 239 493 217 432 q 292 616 262 553 q 450 797 356 752 q 571 831 495 819 q 688 843 646 843 q 743 842 730 843 q 769 837 756 841 q 795 807 795 830 q 790 781 795 793 q 757 722 784 769 q 663 489 729 676 q 1023 752 1023 531 q 976 864 1023 826 q 878 909 928 901 q 716 921 805 921 q 531 905 628 921 q 382 868 435 888 q 287 831 328 848 q 233 815 245 815 q 198 838 198 815 q 236 893 198 868 q 543 1024 370 979 q 977 1068 716 1068 q 1200 1041 1110 1068 q 1337 983 1289 1013 q 1416 904 1385 953 q 1446 795 1446 854 q 1424 691 1446 736 q 1362 614 1401 646 q 1264 556 1323 581 q 985 484 1161 512 q 1197 438 1119 484 q 1275 307 1275 392 l 1263 187 q 1313 131 1263 138 q 1355 126 1334 128 q 1404 88 1404 122 q 1289 7 1404 42 q 1037 -27 1174 -27 q 779 124 779 -27 q 801 228 779 160 q 824 319 824 296 q 788 392 824 362 q 673 423 753 423 m 1037 1365 q 1158 1390 1104 1390 q 1257 1356 1213 1390 q 1302 1279 1302 1323 q 1283 1229 1302 1252 q 1225 1201 1265 1207 q 1180 1195 1219 1201 q 1120 1187 1140 1190 q 1057 1178 1099 1184 q 985 1167 1015 1172 q 917 1154 955 1161 q 846 1138 880 1146 q 784 1121 813 1130 q 733 1112 756 1112 q 711 1139 711 1112 q 809 1247 711 1178 q 1037 1365 908 1316 "},"ñ":{"x_min":10.171875,"x_max":1406.640625,"ha":1275,"o":"m 1381 193 q 1406 169 1406 193 q 1381 128 1406 146 q 1308 88 1357 111 q 1189 38 1260 65 q 1023 -7 1117 11 q 844 -27 929 -27 q 642 65 642 -27 q 711 278 642 124 q 779 485 779 432 q 685 545 779 545 q 588 535 642 545 q 496 246 562 444 q 421 21 430 48 q 385 -6 413 -6 l 35 -13 q 19 -4 28 -13 q 10 17 10 4 q 39 106 10 29 q 102 270 67 182 q 166 463 137 358 q 195 638 195 569 l 194 663 q 260 697 194 697 l 581 705 q 608 694 599 705 q 617 669 617 684 q 609 619 617 653 q 1001 719 848 719 q 1120 683 1066 719 q 1180 562 1180 643 q 1117 343 1180 478 q 1053 177 1053 208 q 1104 113 1053 113 q 1213 138 1136 113 q 1326 177 1289 162 q 1381 193 1363 193 m 488 875 q 441 908 441 875 q 458 950 441 930 q 492 988 475 971 q 698 1105 599 1105 q 854 1063 769 1105 q 987 1020 939 1020 q 1062 1049 1006 1020 q 1141 1079 1119 1079 q 1191 1045 1191 1079 q 1140 965 1191 1020 q 933 848 1034 848 q 831 869 886 848 q 728 912 777 891 q 652 933 679 933 q 569 904 626 933 q 488 875 513 875 "},"‚":{"x_min":23.734375,"x_max":402.859375,"ha":555,"o":"m 57 -345 q 23 -316 23 -345 q 55 -254 23 -299 q 120 -158 88 -208 q 153 -84 153 -109 q 124 -14 153 -59 q 96 52 96 29 q 153 164 96 112 q 275 216 210 216 q 371 183 339 216 q 402 90 402 150 q 343 -87 402 3 q 178 -278 283 -177 q 57 -345 107 -345 "},"Æ":{"x_min":-23.0625,"x_max":1817.640625,"ha":1772,"o":"m 1438 623 q 1464 583 1464 623 q 1438 515 1464 543 q 1384 484 1412 486 q 1325 479 1356 482 q 1256 467 1295 475 q 1181 448 1216 459 q 1112 419 1146 437 q 1052 381 1077 402 q 997 265 997 334 q 1292 125 997 125 q 1474 143 1371 125 q 1613 174 1576 161 q 1661 187 1650 187 q 1687 161 1687 187 q 1584 68 1687 112 q 1310 -1 1481 25 q 972 -27 1138 -27 q 724 -10 806 -27 q 609 37 642 6 q 576 119 576 69 q 613 268 576 168 q 694 463 650 367 q 812 819 812 722 q 762 897 812 873 q 633 921 712 921 q 474 908 554 921 q 372 894 394 894 q 349 914 349 894 q 444 984 349 941 q 849 1068 628 1068 q 1058 1022 995 1068 q 1355 1068 1186 1068 q 1791 997 1673 1068 q 1817 951 1817 982 q 1773 852 1817 921 q 1701 756 1728 783 q 1650 730 1673 730 q 1608 747 1627 730 q 1578 789 1589 764 q 1350 955 1504 955 q 1169 870 1233 955 q 1137 771 1137 828 q 1381 619 1137 619 l 1438 623 m 407 463 l 581 467 q 628 440 628 467 q 606 408 628 420 q 335 358 527 368 q 280 167 280 249 q 289 100 280 130 q 299 55 299 69 q 253 7 299 19 q 120 -5 208 -5 q 4 10 32 -5 q -23 67 -23 26 q 21 234 -23 143 q 134 409 65 326 q 288 574 204 493 q 451 713 372 655 q 691 844 628 844 q 720 826 720 844 q 692 787 720 809 q 548 653 632 743 q 398 463 463 562 l 407 463 "},"ğ":{"x_min":18.984375,"x_max":1404.59375,"ha":1273,"o":"m 18 -230 q 84 -150 18 -189 q 253 -83 149 -111 q 644 -4 441 -31 q 689 122 668 62 q 526 38 616 69 q 362 8 436 8 q 239 20 289 8 q 146 60 189 33 q 54 252 54 118 q 126 493 54 386 q 321 660 198 600 q 600 719 444 719 q 842 651 756 719 q 985 685 904 670 q 1113 699 1067 699 q 1192 677 1160 699 q 1224 626 1224 655 q 1204 539 1224 597 q 1136 344 1184 480 q 1043 70 1087 208 q 1334 181 1180 107 q 1374 193 1360 193 q 1404 169 1404 193 q 1380 133 1404 151 q 1014 -21 1268 49 l 996 -81 q 927 -194 977 -145 q 812 -272 876 -243 q 664 -320 748 -301 q 337 -352 519 -352 q 18 -230 18 -352 m 662 206 q 755 339 715 249 q 794 485 794 430 q 776 562 794 541 q 702 583 757 583 q 582 536 648 583 q 476 415 517 489 q 435 281 435 342 q 462 192 435 220 q 521 165 489 165 q 571 167 554 165 q 614 179 588 169 q 662 206 640 189 m 585 -171 l 617 -81 q 314 -219 314 -129 q 339 -261 314 -245 q 403 -277 364 -277 q 585 -171 548 -277 m 511 931 q 464 992 487 956 q 440 1072 440 1028 q 487 1116 440 1116 q 571 1082 513 1116 q 783 1018 680 1018 q 1015 1082 917 1018 q 1091 1117 1070 1117 q 1124 1089 1124 1117 q 1058 975 1124 1042 q 752 838 920 838 q 511 931 600 838 "},"Ū":{"x_min":146.5,"x_max":1466.3125,"ha":1508,"o":"m 1154 1035 l 1367 1032 q 1435 1010 1405 1032 q 1466 954 1466 988 q 1449 881 1466 921 q 1301 501 1363 688 q 1239 233 1239 314 q 1254 180 1239 200 q 1293 151 1270 159 q 1338 138 1315 143 q 1391 103 1391 126 q 1315 35 1391 67 q 1145 -11 1238 4 q 983 -27 1052 -27 q 790 129 790 -27 q 791 150 790 143 q 619 25 725 77 q 415 -27 514 -27 q 161 121 211 -27 q 146 229 146 165 q 172 381 146 293 q 230 534 198 468 q 299 676 261 600 q 354 809 354 786 q 271 867 354 853 q 238 881 250 870 q 225 908 225 891 q 246 943 225 924 q 308 979 267 962 q 405 1010 349 996 q 695 1041 529 1041 q 819 965 819 1041 q 779 866 819 952 q 690 678 738 780 q 600 457 641 577 q 560 277 560 337 q 583 199 560 217 q 638 181 607 181 q 687 184 669 181 q 724 191 706 186 q 753 199 741 196 q 781 208 764 202 q 800 215 798 215 q 946 636 831 363 q 1053 959 1053 893 q 1154 1035 1053 1035 m 987 1171 l 714 1158 q 693 1176 702 1158 q 684 1227 684 1194 q 704 1291 684 1260 q 748 1321 725 1321 l 1030 1308 l 1304 1321 q 1321 1303 1315 1321 q 1327 1253 1327 1285 q 1307 1189 1327 1220 q 1256 1158 1287 1158 q 1133 1165 1224 1158 q 987 1171 1041 1171 "},"ª":{"x_min":217.703125,"x_max":1011.234375,"ha":1021,"o":"m 472 862 q 490 817 472 834 q 543 799 507 799 q 668 891 620 799 q 688 964 688 929 q 634 1017 688 1017 q 520 972 569 1017 q 472 862 472 927 m 760 1115 l 963 1107 q 980 1101 974 1107 q 986 1087 986 1095 q 932 935 986 1052 q 878 788 878 817 q 906 763 878 763 q 950 772 922 763 q 992 782 979 782 q 1011 760 1011 782 q 969 717 1011 738 q 874 688 927 696 q 721 680 820 680 q 598 741 621 680 q 413 680 532 680 q 278 714 334 680 q 217 830 217 750 q 303 1018 217 934 q 412 1083 345 1058 q 570 1108 479 1108 q 717 1065 660 1108 l 717 1096 q 760 1115 717 1115 "},"Œ":{"x_min":84.78125,"x_max":2063.15625,"ha":2011,"o":"m 1684 623 q 1709 583 1709 623 q 1683 514 1709 543 q 1631 484 1657 484 q 1304 295 1304 484 q 1326 213 1304 248 q 1386 160 1349 179 q 1537 125 1456 125 q 1886 183 1673 125 q 1907 187 1897 187 q 1932 161 1932 187 q 1851 71 1932 115 q 1647 0 1770 27 q 1414 -27 1525 -27 q 1202 -2 1302 -27 q 1031 61 1102 22 q 916 147 959 99 q 872 242 872 196 q 903 288 872 255 q 957 349 934 322 q 1003 418 980 377 q 1045 506 1026 458 q 1088 765 1088 615 q 1181 916 1088 835 q 1431 1047 1287 1009 q 1600 1068 1513 1068 q 2037 997 1918 1068 q 2063 951 2063 982 q 2018 852 2063 921 q 1946 756 1974 783 q 1889 730 1919 730 q 1823 789 1859 730 q 1721 913 1773 872 q 1605 955 1669 955 q 1500 937 1541 955 q 1436 890 1459 920 q 1390 752 1390 832 q 1459 654 1390 689 q 1627 619 1528 619 l 1684 623 m 699 737 q 527 465 586 645 q 496 267 496 367 q 611 91 496 91 q 731 139 669 91 q 844 264 794 187 q 926 447 893 341 q 958 659 958 553 q 905 871 958 808 q 727 934 852 934 q 578 919 658 934 q 443 886 498 904 q 343 853 387 868 q 293 838 299 838 q 267 859 267 838 q 301 901 267 875 q 394 956 335 927 q 526 1010 454 985 q 857 1068 695 1068 q 1295 888 1167 1068 q 1370 625 1370 781 q 1329 402 1370 506 q 1214 220 1287 298 q 1040 86 1140 142 q 583 -27 838 -27 q 84 314 84 -27 q 126 497 84 409 q 235 650 167 585 q 386 763 302 714 q 729 861 557 861 q 768 851 756 861 q 780 831 780 841 q 777 814 780 821 q 765 797 774 807 q 750 781 756 788 q 699 737 733 766 "},"ﬀ":{"x_min":-16.953125,"x_max":1984.484375,"ha":1853,"o":"m 400 -265 q 388 -289 399 -279 q 368 -300 377 -300 q 229 -295 358 -300 q 33 -289 100 -289 q 17 -282 24 -289 q 10 -267 10 -275 q 77 129 25 -97 q 17 166 39 150 q -16 213 -16 189 q 12 237 -16 237 q 42 229 24 237 q 95 206 60 221 q 317 812 195 610 q 473 978 386 926 q 677 1030 560 1030 q 858 967 794 1030 q 922 780 922 904 q 802 392 922 570 q 483 124 681 214 q 520 122 504 122 q 1005 189 801 122 q 1030 193 1017 193 q 1058 169 1058 193 q 1037 138 1058 151 q 796 54 952 88 q 438 15 640 21 q 400 -265 408 -147 m 470 179 q 697 451 608 271 q 787 814 787 630 q 774 907 787 881 q 740 933 761 933 q 707 922 720 933 q 677 873 695 910 q 641 782 660 836 q 571 574 621 728 q 470 179 521 419 m 1326 -265 q 1315 -289 1325 -279 q 1294 -300 1304 -300 q 1156 -295 1285 -300 q 960 -289 1026 -289 q 944 -282 950 -289 q 937 -267 937 -275 q 1003 129 952 -97 q 944 166 965 150 q 909 213 909 189 q 938 237 909 237 q 968 229 950 237 q 1022 206 986 221 q 1243 812 1121 610 q 1399 978 1313 926 q 1604 1030 1486 1030 q 1785 967 1721 1030 q 1848 780 1848 904 q 1728 392 1848 570 q 1410 124 1608 214 q 1447 122 1431 122 q 1932 189 1728 122 q 1956 193 1943 193 q 1984 169 1984 193 q 1963 138 1984 151 q 1723 54 1879 88 q 1365 15 1566 21 q 1326 -265 1335 -147 m 1397 179 q 1624 451 1534 271 q 1713 814 1713 630 q 1700 907 1713 881 q 1667 933 1688 933 q 1634 922 1646 933 q 1604 873 1621 910 q 1567 782 1587 836 q 1498 574 1548 728 q 1397 179 1448 419 "},"Ą":{"x_min":-23.0625,"x_max":1215.375,"ha":1275,"o":"m 802 -27 q 576 122 576 -27 q 684 464 576 208 q 792 819 792 720 q 751 898 792 874 q 632 921 710 921 q 474 908 554 921 q 372 894 394 894 q 349 914 349 894 q 444 984 349 941 q 849 1068 628 1068 q 1111 1005 1024 1068 q 1199 800 1199 942 q 1169 590 1199 716 q 1109 352 1139 463 q 1080 200 1080 241 q 1096 142 1080 158 q 1171 122 1115 122 q 1210 114 1206 122 q 1215 99 1215 107 q 1186 48 1215 67 q 802 -27 1079 -27 m 407 463 l 581 467 q 628 440 628 467 q 606 408 628 420 q 335 358 527 368 q 280 167 280 249 q 289 100 280 130 q 299 55 299 69 q 253 7 299 19 q 120 -5 208 -5 q 4 10 32 -5 q -23 67 -23 26 q 21 234 -23 143 q 134 409 65 326 q 288 574 204 493 q 451 713 372 655 q 691 844 628 844 q 720 826 720 844 q 692 787 720 809 q 548 653 632 743 q 398 463 463 562 l 407 463 m 939 -260 l 1008 -254 q 1038 -280 1038 -254 q 956 -341 1038 -315 q 773 -367 875 -367 q 624 -336 671 -367 q 577 -250 577 -305 q 640 -130 577 -196 q 796 -14 703 -65 q 987 65 888 35 l 987 13 q 884 -69 932 -13 q 835 -181 835 -126 q 939 -260 835 -260 "},"ṡ":{"x_min":-23.0625,"x_max":1171.96875,"ha":1040,"o":"m 492 -26 q 442 -27 475 -27 q 148 2 286 -27 q -14 69 10 31 q -23 100 -23 82 q 20 159 -23 118 q 80 199 63 199 q 113 187 96 199 q 151 158 130 175 q 198 124 172 141 q 347 84 260 84 q 403 101 381 84 q 424 146 424 119 q 406 192 424 172 q 359 226 388 212 q 296 256 330 241 q 226 287 261 270 q 162 325 191 305 q 98 438 98 370 q 139 555 98 505 q 242 634 180 604 q 383 685 305 664 q 645 719 522 719 q 874 707 768 719 q 1020 670 980 694 q 1031 637 1031 663 q 1013 563 1031 611 q 966 473 994 514 q 916 432 938 432 q 901 440 907 432 q 776 559 836 517 q 644 600 715 600 q 566 578 590 600 q 543 533 543 556 q 569 487 543 509 q 634 448 595 465 q 719 407 673 430 q 804 359 765 383 q 869 299 843 335 q 895 208 895 263 q 855 101 895 153 q 1118 184 1023 134 q 1146 193 1134 193 q 1171 167 1171 193 q 1145 127 1171 145 q 1058 84 1119 109 q 912 33 996 59 q 492 -26 716 -26 m 918 996 q 844 879 918 929 q 688 830 770 830 q 560 863 606 830 q 515 945 515 897 q 550 1032 515 992 q 641 1094 585 1072 q 762 1117 696 1117 q 873 1082 828 1117 q 918 996 918 1047 "},"T":{"x_min":117.328125,"x_max":1268.28125,"ha":1158,"o":"m 840 146 l 977 159 q 1037 127 1037 159 q 998 71 1037 94 q 792 -6 902 13 q 578 -27 682 -27 q 429 -23 474 -27 q 341 -8 385 -19 q 269 23 297 3 q 209 156 209 66 q 398 550 209 313 q 641 759 541 729 q 763 775 693 775 q 832 722 832 775 q 822 680 832 704 q 754 492 784 600 q 725 298 725 384 q 840 146 725 146 m 151 704 q 117 744 117 704 q 143 865 117 788 q 254 1027 195 1011 q 352 1033 270 1033 l 811 1022 q 1008 1043 845 1022 q 1180 1063 1172 1063 q 1268 1003 1268 1063 q 1249 920 1268 977 q 1200 811 1230 862 q 1144 760 1169 760 q 1073 786 1128 760 q 805 862 907 862 q 570 842 704 862 q 371 795 436 822 q 257 746 306 769 q 151 704 166 704 "},"š":{"x_min":-23.0625,"x_max":1171.96875,"ha":1040,"o":"m 492 -26 q 442 -27 475 -27 q 148 2 286 -27 q -14 69 10 31 q -23 100 -23 82 q 20 159 -23 118 q 80 199 63 199 q 113 187 96 199 q 151 158 130 175 q 198 124 172 141 q 347 84 260 84 q 403 101 381 84 q 424 146 424 119 q 406 192 424 172 q 359 226 388 212 q 296 256 330 241 q 226 287 261 270 q 162 325 191 305 q 98 438 98 370 q 139 555 98 505 q 242 634 180 604 q 383 685 305 664 q 645 719 522 719 q 874 707 768 719 q 1020 670 980 694 q 1031 637 1031 663 q 1013 563 1031 611 q 966 473 994 514 q 916 432 938 432 q 901 440 907 432 q 776 559 836 517 q 644 600 715 600 q 566 578 590 600 q 543 533 543 556 q 569 487 543 509 q 634 448 595 465 q 719 407 673 430 q 804 359 765 383 q 869 299 843 335 q 895 208 895 263 q 855 101 895 153 q 1118 184 1023 134 q 1146 193 1134 193 q 1171 167 1171 193 q 1145 127 1171 145 q 1058 84 1119 109 q 912 33 996 59 q 492 -26 716 -26 m 553 851 q 359 1142 359 1081 q 389 1171 359 1171 q 455 1146 418 1171 q 672 1007 561 1074 q 949 1146 786 1058 q 1005 1166 986 1166 q 1043 1134 1043 1166 q 951 1012 1043 1102 q 741 841 859 921 q 695 817 715 823 q 630 812 675 812 q 553 851 586 812 "},"Þ":{"x_min":80.703125,"x_max":1355.09375,"ha":1388,"o":"m 294 832 l 214 815 q 191 819 199 815 q 184 836 184 824 q 246 918 184 867 q 419 1012 309 969 q 617 1055 529 1055 q 743 1024 705 1055 q 780 917 780 994 q 744 731 780 840 q 646 472 708 622 q 561 255 584 321 q 658 251 602 251 q 776 267 714 251 q 891 315 838 282 q 975 404 944 347 q 1007 535 1007 461 q 883 680 1007 671 q 806 710 806 687 q 829 741 806 723 q 1060 807 911 807 q 1205 773 1138 807 q 1313 674 1271 739 q 1355 524 1355 609 q 1325 375 1355 440 q 1245 268 1296 310 q 1117 200 1194 227 q 752 153 978 153 q 535 172 636 153 q 520 82 520 117 l 522 37 q 499 4 522 16 q 451 -8 476 -8 l 179 -12 q 88 13 104 -12 q 80 53 80 26 q 92 129 80 80 q 165 325 103 179 q 279 598 227 472 q 330 764 330 724 q 321 818 330 805 q 294 832 312 832 "},"j":{"x_min":-210.921875,"x_max":826.75,"ha":695,"o":"m 796 193 q 826 165 826 193 q 654 70 826 127 q 430 14 547 34 q 387 -122 414 -42 q 270 -293 348 -241 q 57 -345 192 -345 q -158 -311 -78 -345 q -210 -259 -210 -290 q -175 -228 -210 -228 l -129 -231 q -27 -124 -78 -231 q 50 91 2 -59 q 206 662 148 395 q 220 691 210 682 q 257 699 229 699 l 587 707 q 616 698 604 707 q 627 675 627 689 q 613 624 627 660 q 584 549 598 588 q 555 466 569 510 q 533 396 541 423 q 510 320 524 369 q 493 255 497 270 q 474 183 489 240 q 457 119 459 126 q 728 172 613 128 q 796 193 783 193 m 704 956 q 623 829 704 883 q 454 775 543 775 q 315 812 364 775 q 265 900 265 848 q 303 995 265 952 q 402 1062 341 1038 q 534 1087 463 1087 q 654 1049 605 1087 q 704 956 704 1011 "},"1":{"x_min":123.4375,"x_max":829.46875,"ha":804,"o":"m 562 62 l 562 37 q 542 4 562 16 q 498 -8 522 -8 q 342 -13 419 -8 q 232 -18 266 -18 q 185 -17 199 -18 q 155 -10 171 -16 q 123 40 123 0 q 129 101 123 80 q 302 558 191 325 q 404 806 404 771 q 387 834 404 824 q 350 845 371 845 q 273 826 328 845 q 197 808 217 808 q 166 819 177 808 q 155 844 155 830 q 195 897 155 871 q 465 1050 335 992 q 690 1107 596 1107 q 829 982 829 1107 q 810 854 829 921 q 739 660 792 786 q 568 111 644 432 q 562 62 562 86 "},"›":{"x_min":171.59375,"x_max":867.453125,"ha":1045,"o":"m 421 744 q 452 724 427 744 q 569 634 478 705 q 852 423 758 489 q 867 384 867 413 q 840 308 867 355 q 785 250 813 261 q 429 100 642 193 q 210 7 215 7 q 183 20 194 7 q 171 53 171 33 q 217 121 171 90 q 324 198 246 141 q 594 374 468 301 q 508 467 537 432 q 436 553 478 503 q 375 626 394 603 q 355 677 355 649 q 374 724 355 704 q 421 744 394 744 "},"<":{"x_min":181.078125,"x_max":841,"ha":1003,"o":"m 745 163 q 765 123 765 152 q 730 57 765 94 q 666 19 694 19 q 654 23 660 19 q 200 317 389 202 q 181 378 181 328 q 250 463 181 428 q 577 641 411 545 q 756 744 744 737 q 773 750 768 750 q 815 710 790 750 q 841 649 841 670 q 805 587 841 604 q 381 371 603 491 q 745 163 568 259 "},"t":{"x_min":42.046875,"x_max":943.40625,"ha":812,"o":"m 674 690 l 852 713 q 902 674 902 713 q 855 624 902 634 q 640 598 807 615 q 571 431 617 538 q 477 167 477 211 q 537 119 477 119 q 883 183 729 119 q 918 193 905 193 q 943 170 943 193 q 910 126 943 148 q 610 16 811 61 q 240 -27 409 -27 q 92 3 143 -27 q 42 86 42 33 q 112 286 42 139 q 226 574 191 450 q 168 572 184 572 q 128 604 128 572 q 141 636 128 628 q 167 648 153 644 q 191 652 181 651 q 219 655 201 653 q 244 657 236 656 q 253 754 253 708 l 252 779 q 330 821 252 810 q 492 855 356 824 q 659 885 628 885 q 708 851 708 885 q 674 690 708 793 "},"¬":{"x_min":165.484375,"x_max":877.625,"ha":1003,"o":"m 200 322 q 165 362 165 322 q 176 438 165 421 q 232 472 198 468 q 319 476 266 476 l 602 470 l 843 476 q 877 436 877 476 q 828 167 877 354 q 781 143 823 144 l 699 134 q 678 140 685 134 q 672 169 672 145 q 690 256 672 193 q 708 322 707 319 l 440 328 l 200 322 "},"ù":{"x_min":68.5,"x_max":1406.640625,"ha":1275,"o":"m 274 697 l 581 705 q 607 694 598 705 q 616 663 616 684 q 578 556 616 642 q 503 372 541 470 q 465 230 465 275 q 554 146 465 146 q 648 157 597 146 q 702 309 664 215 q 818 672 798 548 q 854 697 822 697 q 1061 701 952 697 q 1186 705 1169 705 q 1212 696 1203 705 q 1221 678 1221 687 q 1179 541 1221 646 q 1095 323 1137 436 q 1053 160 1053 211 q 1099 108 1053 108 q 1225 133 1144 108 q 1339 175 1306 158 q 1380 193 1371 193 q 1406 168 1406 193 q 1370 122 1406 144 q 1282 77 1334 100 q 1159 29 1231 54 q 822 -27 994 -27 q 629 65 651 -27 q 521 22 563 37 q 404 -9 479 7 q 267 -27 330 -27 q 68 135 68 -27 q 90 272 68 191 q 138 417 111 352 q 208 632 208 590 q 220 686 208 674 q 274 697 232 697 m 630 1163 q 792 1046 711 1118 q 918 915 872 974 q 965 836 965 855 q 956 809 965 817 q 940 801 948 801 q 823 848 932 801 q 560 947 715 894 q 471 1035 471 977 q 517 1124 471 1080 q 605 1168 562 1168 q 630 1163 622 1168 "},"ĉ":{"x_min":49.515625,"x_max":1174,"ha":1042,"o":"m 469 442 q 438 289 438 359 q 452 185 438 219 q 495 132 466 151 q 878 126 592 71 q 1077 172 1015 151 q 1150 193 1139 193 q 1174 170 1174 193 q 1138 123 1174 147 q 870 17 1043 61 q 483 -27 697 -27 q 160 48 270 -27 q 49 259 49 124 q 84 416 49 342 q 180 544 119 490 q 321 639 240 599 q 687 719 482 719 q 1022 664 926 719 q 1033 631 1033 655 q 1012 552 1033 607 q 957 448 991 496 q 894 401 923 401 q 849 432 866 401 q 820 481 832 462 q 788 527 809 501 q 750 567 768 554 q 706 591 732 581 q 643 601 680 601 q 570 579 607 601 q 509 522 533 557 q 469 442 485 487 m 884 1131 q 1078 841 1078 902 q 1048 812 1078 812 q 982 837 1019 812 q 765 976 876 909 q 488 837 651 925 q 432 817 451 817 q 394 849 394 817 q 486 971 394 881 q 696 1142 578 1062 q 742 1165 722 1160 q 807 1171 762 1171 q 884 1131 851 1171 "},"ï":{"x_min":45.4375,"x_max":938.65625,"ha":697,"o":"m 522 114 q 648 136 569 114 q 763 176 727 158 q 813 193 798 193 q 841 164 841 193 q 820 135 841 151 q 571 28 751 84 q 250 -27 392 -27 q 104 0 163 -27 q 45 85 45 28 q 104 255 45 120 q 215 640 215 510 l 215 666 q 280 699 215 699 l 615 707 q 642 696 633 707 q 651 673 651 686 q 608 519 651 626 q 522 307 565 411 q 480 159 480 204 q 522 114 480 114 m 450 981 q 380 871 450 918 q 232 824 309 824 q 111 856 154 824 q 68 933 68 887 q 101 1015 68 978 q 187 1073 134 1052 q 302 1095 240 1095 q 407 1062 364 1095 q 450 981 450 1029 m 905 902 q 820 845 872 866 q 705 824 767 824 q 599 856 642 824 q 556 933 556 887 q 590 1015 556 978 q 675 1073 623 1052 q 790 1095 728 1095 q 895 1062 852 1095 q 938 984 938 1029 q 905 902 938 939 "},"ī":{"x_min":45.4375,"x_max":841.671875,"ha":697,"o":"m 522 114 q 648 136 569 114 q 763 176 727 158 q 813 193 798 193 q 841 164 841 193 q 820 135 841 151 q 571 28 751 84 q 250 -27 392 -27 q 104 0 163 -27 q 45 85 45 28 q 104 255 45 120 q 215 640 215 510 l 215 666 q 280 699 215 699 l 615 707 q 642 696 633 707 q 651 673 651 686 q 608 519 651 626 q 522 307 565 411 q 480 159 480 204 q 522 114 480 114 m 202 884 q 172 928 172 884 q 192 996 172 971 q 236 1020 212 1020 l 498 1007 q 633 1013 549 1007 q 751 1020 717 1020 q 775 977 775 1020 q 755 909 775 933 q 704 884 736 884 q 590 891 672 884 q 456 897 509 897 q 321 891 403 897 q 202 884 239 884 "},"Ò":{"x_min":91.5625,"x_max":1377.46875,"ha":1389,"o":"m 706 737 q 534 465 593 645 q 503 267 503 367 q 617 91 503 91 q 738 139 676 91 q 850 264 800 187 q 932 447 900 341 q 965 659 965 553 q 912 871 965 808 q 734 934 859 934 q 585 919 665 934 q 450 886 505 904 q 350 853 394 868 q 299 838 306 838 q 274 859 274 838 q 308 901 274 875 q 401 956 341 927 q 533 1010 461 985 q 864 1068 702 1068 q 1302 888 1174 1068 q 1377 625 1377 781 q 1336 402 1377 506 q 1220 220 1294 298 q 1047 86 1146 142 q 590 -27 845 -27 q 91 314 91 -27 q 132 497 91 409 q 241 650 174 585 q 393 763 309 714 q 736 861 564 861 q 775 851 763 861 q 787 831 787 841 q 784 814 787 821 q 772 797 781 807 q 756 781 763 788 q 706 737 739 766 m 1162 1135 q 1135 1109 1162 1109 q 1033 1132 1108 1109 q 722 1190 900 1172 q 657 1220 683 1193 q 632 1291 632 1246 q 668 1362 632 1335 q 764 1390 705 1390 q 898 1357 824 1390 q 1029 1281 973 1325 q 1124 1196 1085 1238 q 1162 1135 1162 1155 "},"Ṫ":{"x_min":117.328125,"x_max":1268.28125,"ha":1158,"o":"m 840 146 l 977 159 q 1037 127 1037 159 q 998 71 1037 94 q 792 -6 902 13 q 578 -27 682 -27 q 429 -23 474 -27 q 341 -8 385 -19 q 269 23 297 3 q 209 156 209 66 q 398 550 209 313 q 641 759 541 729 q 763 775 693 775 q 832 722 832 775 q 822 680 832 704 q 754 492 784 600 q 725 298 725 384 q 840 146 725 146 m 151 704 q 117 744 117 704 q 143 865 117 788 q 254 1027 195 1011 q 352 1033 270 1033 l 811 1022 q 1008 1043 845 1022 q 1180 1063 1172 1063 q 1268 1003 1268 1063 q 1249 920 1268 977 q 1200 811 1230 862 q 1144 760 1169 760 q 1073 786 1128 760 q 805 862 907 862 q 570 842 704 862 q 371 795 436 822 q 257 746 306 769 q 151 704 166 704 m 656 1315 q 867 1386 734 1386 q 989 1355 942 1386 q 1035 1278 1035 1325 q 998 1196 1035 1230 q 904 1144 961 1162 q 779 1126 847 1126 q 664 1156 711 1126 q 617 1234 617 1186 q 656 1315 617 1281 "},"Ď":{"x_min":-53.578125,"x_max":1378.15625,"ha":1388,"o":"m 706 922 q 522 905 619 922 q 358 868 425 889 q 238 831 292 848 q 172 815 183 815 q 135 841 135 815 q 176 894 135 867 q 473 1025 307 982 q 790 1068 638 1068 q 1038 1043 942 1068 q 1198 975 1135 1018 q 1302 869 1261 931 q 1378 579 1378 753 q 1277 242 1378 396 q 985 8 1167 73 q 773 -27 886 -27 q 491 29 592 -27 q 421 -5 462 2 q 309 -13 381 -13 q 171 -2 237 -13 q 57 27 106 9 q -22 67 8 45 q -53 107 -53 89 q -39 134 -53 124 q -8 144 -25 144 q 81 163 52 144 q 140 236 110 183 q 196 358 170 290 q 245 490 222 427 q 297 617 267 553 q 455 804 360 759 q 574 837 501 826 q 720 849 647 849 q 793 815 793 849 q 762 741 793 790 q 696 590 731 692 q 618 345 661 487 q 551 138 575 204 l 539 108 q 605 106 560 106 q 705 125 650 106 q 801 177 760 144 q 875 255 842 210 q 929 350 908 299 q 965 457 950 400 q 991 679 991 560 q 706 922 991 922 m 915 1279 q 1234 1384 1189 1384 q 1257 1376 1247 1384 q 1266 1354 1266 1368 q 1193 1269 1266 1325 q 984 1127 1120 1212 q 937 1104 957 1110 q 883 1098 917 1098 q 829 1108 849 1098 q 790 1138 809 1119 q 654 1281 699 1227 q 609 1362 609 1335 q 641 1389 609 1389 q 729 1367 674 1389 q 915 1279 825 1328 "},"&":{"x_min":37.984375,"x_max":1512.4375,"ha":1476,"o":"m 1109 900 q 1045 743 1109 807 q 868 631 982 679 q 1332 153 988 420 q 1359 103 1359 132 q 1313 56 1359 75 q 948 -50 1041 -50 q 861 -14 905 -50 q 758 81 816 21 q 563 2 673 31 q 371 -27 454 -27 q 232 -13 288 -27 q 132 25 177 0 q 37 196 37 81 q 432 558 37 436 q 380 773 380 682 q 414 928 380 863 q 505 1034 447 994 q 793 1116 623 1116 q 1093 983 1033 1116 q 1109 900 1109 946 m 1416 507 q 1216 386 1332 441 q 1182 377 1198 377 q 1148 403 1148 377 q 1181 471 1148 421 q 1291 731 1243 565 q 1331 762 1300 762 q 1390 755 1362 762 q 1446 737 1418 749 q 1493 702 1475 725 q 1512 648 1512 680 q 1486 579 1512 617 q 1416 507 1460 541 m 686 161 q 479 460 560 311 q 376 265 376 373 q 542 139 376 139 q 686 161 610 139 m 822 730 q 947 931 947 819 q 886 1023 947 1023 q 825 976 848 1023 q 801 861 801 930 q 822 730 801 792 "},"˝":{"x_min":-6.78125,"x_max":841,"ha":834,"o":"m 177 1075 q 354 1178 293 1178 q 423 1158 392 1178 q 453 1108 453 1138 q 375 1013 453 1061 q 239 918 335 988 q 66 807 143 849 q 25 794 42 794 q -6 820 -6 794 q 77 971 -6 863 q 177 1075 115 1021 m 675 1152 q 728 1163 693 1163 q 802 1138 764 1163 q 841 1080 841 1113 q 771 1001 841 1035 q 592 903 701 967 q 441 816 482 838 q 382 794 399 794 q 350 820 350 794 q 442 964 350 860 q 546 1064 483 1011 q 675 1152 609 1116 "},"I":{"x_min":48.828125,"x_max":902.03125,"ha":926,"o":"m 316 402 q 151 666 151 504 q 187 800 151 737 q 282 906 223 862 q 416 980 341 949 q 729 1041 564 1041 q 869 998 832 1041 q 902 897 902 959 q 872 736 902 835 q 779 459 843 636 q 683 180 716 282 q 581 32 651 79 q 388 -13 512 -13 q 157 17 265 -13 q 48 88 48 48 q 94 123 48 118 q 191 153 161 131 q 248 230 221 174 q 316 402 274 286 m 439 828 q 429 854 439 844 q 404 864 419 864 q 373 853 389 864 q 337 819 356 842 q 292 667 292 764 q 344 486 292 570 q 439 828 439 768 "},"G":{"x_min":91.5625,"x_max":1376.796875,"ha":1388,"o":"m 1056 931 q 941 975 1056 975 q 831 944 892 975 q 718 858 771 913 q 625 734 666 803 q 535 428 535 585 q 597 183 535 271 q 788 96 660 96 q 804 96 798 96 q 853 240 831 166 q 875 331 875 315 q 856 359 875 348 q 814 374 837 370 q 753 414 753 385 q 851 472 753 452 q 1084 493 948 493 q 1262 480 1219 493 q 1306 439 1306 467 q 1282 373 1306 419 q 1204 146 1258 326 q 1125 -70 1150 -33 q 1004 -163 1085 -132 q 812 -193 922 -193 q 611 -151 611 -193 q 661 -93 611 -122 q 749 -18 720 -59 q 773 23 761 0 q 557 0 680 0 q 342 26 434 0 q 196 103 250 53 q 91 366 91 200 q 130 558 91 464 q 234 727 168 651 q 387 868 300 803 q 572 976 475 932 q 978 1068 777 1068 q 1278 1008 1179 1068 q 1376 839 1376 948 q 1320 721 1376 776 q 1120 659 1256 659 q 1041 672 1074 659 q 980 741 980 696 q 1018 829 980 752 q 1056 931 1056 906 "},"`":{"x_min":169.5625,"x_max":663.296875,"ha":834,"o":"m 328 1163 q 490 1046 409 1118 q 616 915 570 974 q 663 836 663 855 q 654 809 663 817 q 638 801 646 801 q 521 848 630 801 q 258 947 413 894 q 169 1035 169 977 q 215 1124 169 1080 q 303 1168 260 1168 q 328 1163 320 1168 "},"·":{"x_min":217.03125,"x_max":680.25,"ha":813,"o":"m 640 428 q 536 358 600 384 q 397 333 472 333 q 269 371 321 333 q 217 465 217 410 q 257 565 217 520 q 361 636 297 610 q 500 661 425 661 q 628 622 576 661 q 680 528 680 582 q 640 428 680 473 "},"ŏ":{"x_min":42.734375,"x_max":1405.953125,"ha":1158,"o":"m 170 45 q 42 278 42 122 q 76 431 42 359 q 168 554 109 502 q 305 644 227 607 q 662 719 461 719 q 1090 468 1058 719 q 1188 453 1138 453 q 1273 460 1239 453 q 1337 482 1306 467 q 1380 497 1367 497 q 1405 472 1405 497 q 1365 420 1405 447 q 1166 368 1290 368 q 1090 373 1119 368 q 914 89 1068 202 q 732 4 840 35 q 510 -27 625 -27 q 313 -9 395 -27 q 170 45 231 8 m 416 218 q 507 92 416 92 q 616 156 566 92 q 695 314 667 220 q 723 506 723 408 q 655 604 723 604 q 539 548 595 604 q 450 402 483 492 q 416 218 416 312 m 472 931 q 425 992 448 956 q 401 1072 401 1028 q 448 1116 401 1116 q 532 1082 474 1116 q 744 1018 641 1018 q 976 1082 878 1018 q 1052 1117 1031 1117 q 1085 1089 1085 1117 q 1019 975 1085 1042 q 713 838 881 838 q 472 931 561 838 "},"¿":{"x_min":-35.953125,"x_max":902.03125,"ha":1040,"o":"m 813 13 q 859 22 829 22 q 890 -3 890 22 q 835 -167 890 -53 q 747 -299 781 -280 q 618 -332 712 -318 q 427 -346 524 -346 q 105 -287 236 -346 q 2 -205 40 -257 q -35 -83 -35 -153 q 58 118 -35 29 q 154 193 101 158 q 267 263 207 229 q 382 328 328 297 q 569 471 512 401 q 597 480 577 480 q 665 446 618 480 q 711 379 711 413 q 673 298 711 345 q 582 204 636 250 q 475 112 529 158 q 384 27 422 67 q 347 -36 347 -13 q 370 -74 347 -60 q 436 -88 394 -88 q 648 -62 565 -88 q 813 13 731 -35 m 478 775 q 582 845 518 819 q 721 871 646 871 q 849 832 797 871 q 902 739 902 794 q 861 639 902 684 q 757 568 821 594 q 618 542 693 542 q 490 582 542 542 q 438 676 438 621 q 478 775 438 731 "},"ý":{"x_min":0,"x_max":1404.59375,"ha":1273,"o":"m 1379 193 q 1404 170 1404 193 q 1230 52 1404 124 q 992 -21 1122 6 q 963 -101 975 -66 q 915 -179 950 -136 q 835 -252 881 -223 q 735 -301 788 -281 q 615 -332 682 -321 q 334 -352 495 -352 q 86 -316 173 -352 q 0 -212 0 -280 q 33 -141 0 -173 q 122 -88 67 -109 q 261 -48 177 -66 q 624 0 406 -19 q 651 100 642 59 q 288 27 453 27 q 68 172 68 27 q 129 426 68 275 q 191 638 191 577 l 190 663 q 256 697 190 697 l 414 695 l 557 705 q 583 694 575 705 q 592 658 592 684 q 572 567 592 632 q 529 446 552 502 q 464 242 464 295 q 486 197 464 212 q 543 181 507 181 q 682 223 617 181 q 815 659 754 419 q 851 684 822 684 q 1062 694 950 684 q 1191 705 1175 705 q 1218 697 1208 705 q 1227 681 1227 689 q 1024 70 1227 652 q 1211 127 1125 94 q 1329 176 1298 160 q 1379 193 1361 193 m 566 -171 q 600 -78 585 -122 q 295 -219 295 -116 q 322 -268 295 -245 q 377 -292 349 -292 q 493 -260 439 -292 q 566 -171 546 -229 m 842 1161 q 877 1168 857 1168 q 974 1130 925 1168 q 1024 1051 1024 1093 q 948 973 1024 1001 q 560 814 719 890 q 515 801 534 801 q 487 826 487 801 q 535 910 487 851 q 667 1040 582 968 q 842 1161 753 1112 "},"º":{"x_min":245.515625,"x_max":966.46875,"ha":1021,"o":"m 557 680 q 327 728 408 680 q 245 854 245 775 q 302 991 245 933 q 670 1108 417 1108 q 926 1036 850 1108 q 966 941 966 996 q 940 839 966 885 q 865 756 914 792 q 557 680 759 680 m 564 756 q 639 789 604 756 q 693 873 674 822 q 712 980 712 924 q 665 1036 712 1036 q 551 973 601 1036 q 501 833 501 910 q 564 756 501 756 "},"∞":{"x_min":155.3125,"x_max":1222.15625,"ha":1273,"o":"m 155 472 q 246 730 155 634 q 479 826 338 826 q 615 765 562 826 q 701 626 661 712 q 910 831 800 793 q 1011 847 955 847 q 1110 826 1067 847 q 1176 767 1152 805 q 1222 600 1222 695 q 1201 437 1222 505 q 1141 313 1180 368 q 1039 226 1102 259 q 910 194 975 194 q 803 211 845 194 q 729 259 760 227 q 635 403 676 313 q 516 276 575 315 q 364 237 457 237 q 213 294 271 237 q 155 472 155 352 m 915 355 q 1043 415 994 355 q 1091 577 1091 475 q 1061 679 1091 640 q 968 718 1030 718 q 856 676 906 718 q 739 537 807 635 q 828 390 788 428 q 915 355 868 355 m 281 498 q 396 370 281 370 q 596 496 488 370 q 485 671 537 641 q 431 685 461 685 q 325 634 369 685 q 281 498 281 583 "},"ź":{"x_min":-14.921875,"x_max":1287.9375,"ha":1156,"o":"m 722 641 q 800 715 775 715 q 909 702 825 715 q 1080 662 994 689 q 1165 609 1165 636 q 1113 522 1165 576 q 666 162 1000 402 q 602 116 620 130 q 822 108 716 108 q 1195 172 1040 108 q 1262 193 1244 193 q 1287 170 1287 193 q 1152 67 1287 139 q 1005 8 1093 36 q 847 -20 917 -20 q 712 -10 777 -20 q 610 9 647 -1 q 543 29 573 20 q 510 39 514 39 q 485 23 505 39 q 394 -23 426 -23 q 250 -1 362 -23 q 61 40 138 21 q -14 109 -14 59 q 4 148 -14 130 q 73 197 23 167 q 188 262 124 226 q 612 537 366 360 q 530 539 579 539 q 421 525 480 539 q 319 490 361 511 q 243 448 277 470 q 148 400 162 400 q 124 411 133 400 q 115 442 115 421 q 160 565 115 462 q 228 689 205 668 q 272 715 250 710 q 336 719 295 719 q 535 668 378 719 q 698 617 692 617 q 722 641 704 617 m 864 1161 q 898 1168 878 1168 q 995 1130 946 1168 q 1045 1051 1045 1093 q 969 973 1045 1001 q 581 814 740 890 q 536 801 555 801 q 508 826 508 801 q 556 910 508 851 q 689 1040 603 968 q 864 1161 774 1112 "},"ű":{"x_min":68.5,"x_max":1406.640625,"ha":1275,"o":"m 274 697 l 581 705 q 607 694 598 705 q 616 663 616 684 q 578 556 616 642 q 503 372 541 470 q 465 230 465 275 q 554 146 465 146 q 648 157 597 146 q 702 309 664 215 q 818 672 798 548 q 854 697 822 697 q 1061 701 952 697 q 1186 705 1169 705 q 1212 696 1203 705 q 1221 678 1221 687 q 1179 541 1221 646 q 1095 323 1137 436 q 1053 160 1053 211 q 1099 108 1053 108 q 1225 133 1144 108 q 1339 175 1306 158 q 1380 193 1371 193 q 1406 168 1406 193 q 1370 122 1406 144 q 1282 77 1334 100 q 1159 29 1231 54 q 822 -27 994 -27 q 629 65 651 -27 q 521 22 563 37 q 404 -9 479 7 q 267 -27 330 -27 q 68 135 68 -27 q 90 272 68 191 q 138 417 111 352 q 208 632 208 590 q 220 686 208 674 q 274 697 232 697 m 729 1075 q 906 1178 845 1178 q 975 1158 944 1178 q 1005 1108 1005 1138 q 927 1013 1005 1061 q 791 918 887 988 q 618 807 695 849 q 577 794 594 794 q 545 820 545 794 q 629 971 545 863 q 729 1075 667 1021 m 1227 1152 q 1280 1163 1245 1163 q 1354 1138 1316 1163 q 1393 1080 1393 1113 q 1323 1001 1393 1035 q 1144 903 1253 967 q 993 816 1034 838 q 934 794 951 794 q 902 820 902 794 q 994 964 902 860 q 1098 1064 1035 1011 q 1227 1152 1161 1116 "},"\u0005":{"x_min":0,"x_max":0,"ha":0},"\b":{"x_min":0,"x_max":0,"ha":0},"Ǽ":{"x_min":10.859375,"x_max":1851.546875,"ha":1772,"o":"m 1472 623 q 1498 583 1498 623 q 1472 515 1498 543 q 1418 484 1446 486 q 1359 479 1390 482 q 1289 467 1329 475 q 1215 448 1250 459 q 1146 419 1180 437 q 1086 381 1111 402 q 1031 265 1031 334 q 1325 125 1031 125 q 1508 143 1405 125 q 1647 174 1610 161 q 1695 187 1684 187 q 1721 161 1721 187 q 1618 68 1721 112 q 1344 -1 1515 25 q 1006 -27 1172 -27 q 758 -10 840 -27 q 643 37 676 6 q 610 119 610 69 q 647 268 610 168 q 728 463 684 367 q 846 819 846 722 q 796 897 846 873 q 667 921 746 921 q 508 908 588 921 q 405 894 428 894 q 383 914 383 894 q 478 984 383 941 q 883 1068 662 1068 q 1091 1022 1029 1068 q 1389 1068 1220 1068 q 1825 997 1707 1068 q 1851 951 1851 982 q 1807 852 1851 921 q 1735 756 1762 783 q 1684 730 1707 730 q 1641 747 1660 730 q 1612 789 1622 764 q 1384 955 1538 955 q 1203 870 1267 955 q 1171 771 1171 828 q 1415 619 1171 619 l 1472 623 m 441 463 l 615 467 q 662 440 662 467 q 640 408 662 420 q 368 358 561 368 q 314 167 314 249 q 323 100 314 130 q 333 55 333 69 q 287 7 333 19 q 154 -5 242 -5 q 38 10 66 -5 q 10 67 10 26 q 55 234 10 143 q 168 409 99 326 q 322 574 238 493 q 485 713 406 655 q 725 844 661 844 q 754 826 754 844 q 726 787 754 809 q 581 653 666 743 q 432 463 497 562 l 441 463 m 1284 1365 q 1405 1390 1351 1390 q 1504 1356 1460 1390 q 1549 1279 1549 1323 q 1530 1229 1549 1252 q 1472 1201 1512 1207 q 1426 1195 1466 1201 q 1366 1187 1387 1190 q 1304 1178 1346 1184 q 1232 1167 1262 1172 q 1164 1154 1202 1161 q 1093 1138 1127 1146 q 1031 1121 1060 1130 q 980 1112 1003 1112 q 958 1139 958 1112 q 1056 1247 958 1178 q 1284 1365 1155 1316 "},"ń":{"x_min":10.171875,"x_max":1406.640625,"ha":1275,"o":"m 1381 193 q 1406 169 1406 193 q 1381 128 1406 146 q 1308 88 1357 111 q 1189 38 1260 65 q 1023 -7 1117 11 q 844 -27 929 -27 q 642 65 642 -27 q 711 278 642 124 q 779 485 779 432 q 685 545 779 545 q 588 535 642 545 q 496 246 562 444 q 421 21 430 48 q 385 -6 413 -6 l 35 -13 q 19 -4 28 -13 q 10 17 10 4 q 39 106 10 29 q 102 270 67 182 q 166 463 137 358 q 195 638 195 569 l 194 663 q 260 697 194 697 l 581 705 q 608 694 599 705 q 617 669 617 684 q 609 619 617 653 q 1001 719 848 719 q 1120 683 1066 719 q 1180 562 1180 643 q 1117 343 1180 478 q 1053 177 1053 208 q 1104 113 1053 113 q 1213 138 1136 113 q 1326 177 1289 162 q 1381 193 1363 193 m 895 1161 q 929 1168 909 1168 q 1027 1130 978 1168 q 1076 1051 1076 1093 q 1000 973 1076 1001 q 613 814 771 890 q 567 801 586 801 q 539 826 539 801 q 587 910 539 851 q 720 1040 634 968 q 895 1161 805 1112 "},"Ș":{"x_min":63.078125,"x_max":1360.953125,"ha":1273,"o":"m 80 52 q 63 86 63 61 q 104 197 63 112 q 169 281 145 281 q 211 262 183 281 q 277 217 240 244 q 359 165 315 191 q 567 101 466 101 q 639 122 617 101 q 661 163 661 142 q 638 209 661 183 q 578 263 615 236 q 496 322 541 291 q 406 387 451 353 q 325 457 362 422 q 242 610 242 535 q 270 706 242 663 q 342 775 298 748 q 441 819 385 801 q 647 851 541 851 q 690 843 676 851 q 704 822 704 834 q 694 787 704 811 q 684 746 684 764 q 709 699 684 727 q 773 640 733 670 q 859 577 812 611 q 954 505 907 543 q 1041 427 1002 467 q 1130 256 1130 339 q 1087 117 1130 172 q 967 31 1044 61 q 799 -13 891 0 q 576 -27 708 -27 q 286 0 444 -27 q 80 52 128 27 m 1203 716 q 983 874 1114 822 q 709 926 851 926 q 206 828 448 926 q 160 815 173 815 q 132 841 132 815 q 169 891 132 862 q 273 951 205 920 q 427 1008 341 982 q 849 1068 624 1068 q 1352 975 1182 1068 q 1360 943 1361 969 q 1336 860 1359 916 q 1278 757 1312 805 q 1221 710 1245 710 q 1203 716 1215 716 m 545 -274 q 460 -281 517 -281 q 279 -197 279 -281 q 359 -109 279 -145 q 562 -73 439 -73 q 670 -93 628 -73 q 747 -201 747 -128 q 716 -293 747 -252 q 630 -358 685 -333 q 366 -406 520 -406 q 309 -379 309 -406 q 358 -337 309 -351 q 409 -324 375 -333 q 459 -311 443 -316 q 545 -274 504 -298 "},";":{"x_min":143.109375,"x_max":712.8125,"ha":813,"o":"m 372 -21 q 330 -25 350 -25 q 188 9 234 -25 q 143 99 143 44 q 220 233 143 176 q 397 290 297 290 q 551 246 497 290 q 606 132 606 201 q 574 -7 606 63 q 494 -133 543 -77 q 380 -227 444 -190 q 263 -265 316 -265 q 210 -233 210 -265 q 218 -213 210 -223 q 259 -183 227 -204 q 324 -115 290 -161 q 372 -21 358 -69 m 672 532 q 569 462 633 488 q 429 436 505 436 q 301 475 354 436 q 249 569 249 514 q 289 669 249 623 q 394 739 330 714 q 533 765 457 765 q 660 726 609 765 q 712 631 712 686 q 672 532 712 577 "},"Ġ":{"x_min":91.5625,"x_max":1376.796875,"ha":1388,"o":"m 1056 931 q 941 975 1056 975 q 831 944 892 975 q 718 858 771 913 q 625 734 666 803 q 535 428 535 585 q 597 183 535 271 q 788 96 660 96 q 804 96 798 96 q 853 240 831 166 q 875 331 875 315 q 856 359 875 348 q 814 374 837 370 q 753 414 753 385 q 851 472 753 452 q 1084 493 948 493 q 1262 480 1219 493 q 1306 439 1306 467 q 1282 373 1306 419 q 1204 146 1258 326 q 1125 -70 1150 -33 q 1004 -163 1085 -132 q 812 -193 922 -193 q 611 -151 611 -193 q 661 -93 611 -122 q 749 -18 720 -59 q 773 23 761 0 q 557 0 680 0 q 342 26 434 0 q 196 103 250 53 q 91 366 91 200 q 130 558 91 464 q 234 727 168 651 q 387 868 300 803 q 572 976 475 932 q 978 1068 777 1068 q 1278 1008 1179 1068 q 1376 839 1376 948 q 1320 721 1376 776 q 1120 659 1256 659 q 1041 672 1074 659 q 980 741 980 696 q 1018 829 980 752 q 1056 931 1056 906 m 853 1315 q 1064 1386 931 1386 q 1186 1355 1140 1386 q 1233 1278 1233 1325 q 1195 1196 1233 1230 q 1101 1144 1158 1162 q 976 1126 1045 1126 q 862 1156 908 1126 q 815 1234 815 1186 q 853 1315 815 1281 "},"6":{"x_min":149.890625,"x_max":1231.65625,"ha":1273,"o":"m 1203 1083 q 1163 1047 1203 1051 q 826 931 971 1023 q 602 696 680 840 q 524 376 524 552 q 562 201 524 282 q 615 135 581 160 q 698 109 649 109 q 794 150 748 109 q 866 257 841 190 q 892 397 892 324 q 800 549 892 549 q 752 540 781 549 q 714 532 724 532 q 666 570 666 532 q 693 629 666 600 q 950 726 786 726 q 1153 655 1074 726 q 1231 470 1231 585 q 1185 264 1231 356 q 1061 109 1138 172 q 881 9 984 46 q 665 -27 779 -27 q 456 0 550 -27 q 293 78 361 25 q 149 407 149 187 q 197 646 149 533 q 328 845 244 759 q 521 994 411 931 q 761 1090 632 1058 q 1000 1123 891 1123 q 1156 1116 1109 1123 q 1203 1083 1203 1109 "},"n":{"x_min":10.171875,"x_max":1406.640625,"ha":1275,"o":"m 1381 193 q 1406 169 1406 193 q 1381 128 1406 146 q 1308 88 1357 111 q 1189 38 1260 65 q 1023 -7 1117 11 q 844 -27 929 -27 q 642 65 642 -27 q 711 278 642 124 q 779 485 779 432 q 685 545 779 545 q 588 535 642 545 q 496 246 562 444 q 421 21 430 48 q 385 -6 413 -6 l 35 -13 q 19 -4 28 -13 q 10 17 10 4 q 39 106 10 29 q 102 270 67 182 q 166 463 137 358 q 195 638 195 569 l 194 663 q 260 697 194 697 l 581 705 q 608 694 599 705 q 617 669 617 684 q 609 619 617 653 q 1001 719 848 719 q 1120 683 1066 719 q 1180 562 1180 643 q 1117 343 1180 478 q 1053 177 1053 208 q 1104 113 1053 113 q 1213 138 1136 113 q 1326 177 1289 162 q 1381 193 1363 193 "},"ģ":{"x_min":18.984375,"x_max":1404.59375,"ha":1273,"o":"m 18 -230 q 84 -150 18 -189 q 253 -83 149 -111 q 644 -4 441 -31 q 689 122 668 62 q 526 38 616 69 q 362 8 436 8 q 239 20 289 8 q 146 60 189 33 q 54 252 54 118 q 126 493 54 386 q 321 660 198 600 q 600 719 444 719 q 842 651 756 719 q 985 685 904 670 q 1113 699 1067 699 q 1192 677 1160 699 q 1224 626 1224 655 q 1204 539 1224 597 q 1136 344 1184 480 q 1043 70 1087 208 q 1334 181 1180 107 q 1374 193 1360 193 q 1404 169 1404 193 q 1380 133 1404 151 q 1014 -21 1268 49 l 996 -81 q 927 -194 977 -145 q 812 -272 876 -243 q 664 -320 748 -301 q 337 -352 519 -352 q 18 -230 18 -352 m 662 206 q 755 339 715 249 q 794 485 794 430 q 776 562 794 541 q 702 583 757 583 q 582 536 648 583 q 476 415 517 489 q 435 281 435 342 q 462 192 435 220 q 521 165 489 165 q 571 167 554 165 q 614 179 588 169 q 662 206 640 189 m 585 -171 l 617 -81 q 314 -219 314 -129 q 339 -261 314 -245 q 403 -277 364 -277 q 585 -171 548 -277 m 412 983 q 497 990 440 990 q 678 906 678 990 q 598 818 678 854 q 396 783 518 783 q 288 803 330 783 q 210 910 210 838 q 242 1002 210 962 q 326 1067 273 1043 q 591 1116 437 1116 q 649 1088 649 1116 q 599 1047 649 1060 q 549 1034 583 1042 q 499 1021 514 1026 q 412 983 453 1007 "},"\u0017":{"x_min":0,"x_max":0,"ha":0},"¤":{"x_min":145.140625,"x_max":1195.03125,"ha":1273,"o":"m 292 405 q 378 685 292 565 q 263 767 316 724 q 246 800 246 780 q 275 857 246 821 q 330 894 304 894 q 354 887 343 894 q 474 780 406 846 q 726 857 582 857 q 958 780 870 857 q 1111 887 1035 838 q 1140 894 1123 894 q 1176 867 1157 894 q 1195 813 1195 839 q 1165 767 1195 786 q 1026 685 1089 718 q 1051 554 1051 626 q 958 271 1051 389 q 1077 186 1020 231 q 1093 152 1093 172 q 1064 95 1093 132 q 1009 59 1035 59 q 986 67 996 59 q 857 179 927 111 q 610 109 750 109 q 387 177 471 109 q 228 67 302 113 q 199 59 216 59 q 163 87 182 59 q 145 141 145 114 q 174 186 145 167 q 317 270 247 233 q 292 405 292 328 m 713 752 q 594 724 647 752 q 507 648 540 695 q 438 417 438 548 q 486 268 438 323 q 624 214 534 214 q 777 259 714 214 q 873 379 841 303 q 906 549 906 454 q 857 698 906 643 q 713 752 809 752 "},"∂":{"x_min":229.921875,"x_max":1064.8125,"ha":1273,"o":"m 895 693 l 896 706 q 787 966 896 913 q 695 986 746 986 q 605 977 644 986 q 543 957 566 968 q 470 929 484 929 q 443 953 443 929 q 480 1009 443 978 q 750 1102 590 1102 q 987 997 910 1102 q 1064 719 1064 891 q 1030 416 1064 548 q 930 184 995 284 q 764 28 865 85 q 538 -27 663 -27 q 322 42 411 -27 q 229 260 229 117 q 267 446 229 361 q 368 588 304 531 q 697 708 503 708 q 895 693 840 708 m 786 248 q 889 588 868 390 q 759 600 841 600 q 605 575 678 600 q 488 504 532 549 q 400 278 400 413 q 439 145 400 197 q 550 93 478 93 q 684 135 623 93 q 786 248 745 177 "},"Ĝ":{"x_min":91.5625,"x_max":1376.796875,"ha":1388,"o":"m 1056 931 q 941 975 1056 975 q 831 944 892 975 q 718 858 771 913 q 625 734 666 803 q 535 428 535 585 q 597 183 535 271 q 788 96 660 96 q 804 96 798 96 q 853 240 831 166 q 875 331 875 315 q 856 359 875 348 q 814 374 837 370 q 753 414 753 385 q 851 472 753 452 q 1084 493 948 493 q 1262 480 1219 493 q 1306 439 1306 467 q 1282 373 1306 419 q 1204 146 1258 326 q 1125 -70 1150 -33 q 1004 -163 1085 -132 q 812 -193 922 -193 q 611 -151 611 -193 q 661 -93 611 -122 q 749 -18 720 -59 q 773 23 761 0 q 557 0 680 0 q 342 26 434 0 q 196 103 250 53 q 91 366 91 200 q 130 558 91 464 q 234 727 168 651 q 387 868 300 803 q 572 976 475 932 q 978 1068 777 1068 q 1278 1008 1179 1068 q 1376 839 1376 948 q 1320 721 1376 776 q 1120 659 1256 659 q 1041 672 1074 659 q 980 741 980 696 q 1018 829 980 752 q 1056 931 1056 906 m 1012 1208 q 693 1103 738 1103 q 670 1111 680 1103 q 661 1133 661 1119 q 734 1219 661 1162 q 943 1361 807 1275 q 990 1383 970 1378 q 1044 1389 1010 1389 q 1098 1379 1078 1389 q 1138 1350 1119 1369 q 1272 1207 1226 1262 q 1318 1125 1318 1152 q 1286 1098 1318 1098 q 1198 1121 1254 1098 q 1012 1208 1102 1159 "},"p":{"x_min":-71.890625,"x_max":1404.59375,"ha":1273,"o":"m 245 697 l 553 705 q 579 694 571 705 q 588 671 588 684 q 583 625 588 657 q 579 578 579 593 q 912 719 704 719 q 1111 654 1039 719 q 1184 471 1184 590 q 1003 94 1184 240 q 1326 172 1214 109 q 1381 193 1363 193 q 1404 168 1404 193 q 1379 132 1404 150 q 1082 12 1264 51 q 692 -25 901 -25 q 653 -27 666 -27 q 510 -5 581 -27 q 390 55 438 16 q 343 -274 343 -87 l 344 -294 q 278 -328 344 -328 l -36 -336 q -62 -326 -52 -336 q -71 -304 -71 -316 q 54 145 -71 -188 q 181 592 181 479 l 179 649 q 191 686 179 674 q 245 697 204 697 m 712 547 q 499 352 584 547 q 459 206 459 262 q 478 130 459 151 q 551 109 497 109 q 669 159 606 109 q 771 286 733 210 q 810 424 810 363 q 783 516 810 486 q 712 547 756 547 "},"‡":{"x_min":186.515625,"x_max":862.015625,"ha":1002,"o":"m 728 345 q 763 305 763 345 q 751 229 763 245 q 696 194 730 198 q 614 191 661 191 q 523 193 566 191 l 396 -248 q 317 -294 383 -294 q 275 -282 295 -294 q 254 -247 254 -269 q 257 -231 254 -242 l 380 197 l 221 190 q 186 230 186 190 q 198 306 186 290 q 253 340 219 337 q 327 344 287 344 q 422 341 368 344 l 481 548 l 320 541 q 285 581 285 541 q 297 657 285 640 q 352 691 318 687 q 427 695 386 695 q 523 692 467 695 l 645 1115 q 721 1161 658 1161 q 766 1146 747 1161 q 786 1117 786 1130 q 784 1098 786 1104 l 666 689 l 827 695 q 862 655 862 695 q 850 579 862 596 q 795 545 829 549 q 713 541 760 541 q 624 543 666 541 l 564 338 l 728 345 "},"ň":{"x_min":10.171875,"x_max":1406.640625,"ha":1275,"o":"m 1381 193 q 1406 169 1406 193 q 1381 128 1406 146 q 1308 88 1357 111 q 1189 38 1260 65 q 1023 -7 1117 11 q 844 -27 929 -27 q 642 65 642 -27 q 711 278 642 124 q 779 485 779 432 q 685 545 779 545 q 588 535 642 545 q 496 246 562 444 q 421 21 430 48 q 385 -6 413 -6 l 35 -13 q 19 -4 28 -13 q 10 17 10 4 q 39 106 10 29 q 102 270 67 182 q 166 463 137 358 q 195 638 195 569 l 194 663 q 260 697 194 697 l 581 705 q 608 694 599 705 q 617 669 617 684 q 609 619 617 653 q 1001 719 848 719 q 1120 683 1066 719 q 1180 562 1180 643 q 1117 343 1180 478 q 1053 177 1053 208 q 1104 113 1053 113 q 1213 138 1136 113 q 1326 177 1289 162 q 1381 193 1363 193 m 668 851 q 474 1142 474 1081 q 504 1171 474 1171 q 570 1146 533 1171 q 787 1007 676 1074 q 1064 1146 901 1058 q 1120 1166 1101 1166 q 1158 1134 1158 1166 q 1066 1012 1158 1102 q 856 841 974 921 q 810 817 830 823 q 745 812 790 812 q 668 851 701 812 "},"√":{"x_min":111.90625,"x_max":1104.140625,"ha":1003,"o":"m 166 539 l 366 540 q 425 501 419 540 q 481 157 459 280 q 715 681 568 337 q 937 1222 862 1024 q 961 1243 946 1243 q 1077 1188 995 1243 q 1104 1156 1104 1170 q 1072 1091 1104 1152 q 812 554 1041 1030 q 531 -14 583 78 q 410 -37 518 -37 q 380 -27 394 -37 q 363 -1 366 -16 q 284 390 326 223 l 132 390 q 111 419 111 390 q 113 464 111 448 q 119 499 114 480 q 166 539 130 539 "},"ę":{"x_min":39.34375,"x_max":1174,"ha":1042,"o":"m 1150 193 q 1174 171 1174 193 q 1141 130 1174 149 q 1062 90 1109 111 q 931 40 1014 69 q 497 -27 739 -27 q 39 255 39 -27 q 126 499 39 392 q 360 662 213 606 q 679 719 506 719 q 932 666 852 719 q 1013 518 1013 612 q 936 361 1013 422 q 731 270 859 300 q 438 228 603 240 q 588 97 448 123 q 664 91 624 91 q 1122 187 823 91 q 1150 193 1140 193 m 438 303 q 625 402 556 335 q 693 564 693 470 q 677 604 693 590 q 628 619 661 619 q 559 591 595 619 q 499 516 524 562 q 438 303 448 421 m 749 -260 l 818 -254 q 848 -280 848 -254 q 766 -341 848 -315 q 583 -367 685 -367 q 434 -336 481 -367 q 387 -250 387 -305 q 450 -130 387 -196 q 606 -14 513 -65 q 797 65 698 35 l 797 13 q 694 -69 742 -13 q 645 -181 645 -126 q 749 -260 645 -260 "},"S":{"x_min":63.078125,"x_max":1360.953125,"ha":1273,"o":"m 80 52 q 63 86 63 61 q 104 197 63 112 q 169 281 145 281 q 211 262 183 281 q 277 217 240 244 q 359 165 315 191 q 567 101 466 101 q 639 122 617 101 q 661 163 661 142 q 638 209 661 183 q 578 263 615 236 q 496 322 541 291 q 406 387 451 353 q 325 457 362 422 q 242 610 242 535 q 270 706 242 663 q 342 775 298 748 q 441 819 385 801 q 647 851 541 851 q 690 843 676 851 q 704 822 704 834 q 694 787 704 811 q 684 746 684 764 q 709 699 684 727 q 773 640 733 670 q 859 577 812 611 q 954 505 907 543 q 1041 427 1002 467 q 1130 256 1130 339 q 1087 117 1130 172 q 967 31 1044 61 q 799 -13 891 0 q 576 -27 708 -27 q 286 0 444 -27 q 80 52 128 27 m 1203 716 q 983 874 1114 822 q 709 926 851 926 q 206 828 448 926 q 160 815 173 815 q 132 841 132 815 q 169 891 132 862 q 273 951 205 920 q 427 1008 341 982 q 849 1068 624 1068 q 1352 975 1182 1068 q 1360 943 1361 969 q 1336 860 1359 916 q 1278 757 1312 805 q 1221 710 1245 710 q 1203 716 1215 716 "},"/":{"x_min":111.234375,"x_max":782.671875,"ha":762,"o":"m 115 -87 l 680 1064 q 733 1108 702 1108 q 768 1095 753 1108 q 782 1069 782 1082 q 778 1047 782 1056 l 213 -104 q 160 -148 191 -148 q 126 -135 141 -148 q 111 -109 111 -122 q 115 -87 111 -96 "},"į":{"x_min":-50.484375,"x_max":828.109375,"ha":697,"o":"m 699 956 q 619 829 699 883 q 450 775 539 775 q 311 812 360 775 q 261 900 261 848 q 299 995 261 952 q 398 1062 337 1038 q 530 1087 459 1087 q 650 1049 601 1087 q 699 956 699 1011 m 509 114 q 634 136 555 114 q 749 176 713 158 q 799 193 785 193 q 828 164 828 193 q 807 135 828 151 q 558 28 737 84 q 237 -27 378 -27 q 90 0 149 -27 q 31 85 31 28 q 90 255 31 120 q 202 640 202 510 l 201 666 q 267 699 201 699 l 602 707 q 628 696 619 707 q 637 673 637 686 q 594 519 637 626 q 509 307 552 411 q 466 159 466 204 q 509 114 466 114 m 311 -260 l 380 -254 q 410 -280 410 -254 q 328 -341 410 -315 q 145 -367 247 -367 q -3 -336 43 -367 q -50 -250 -50 -305 q 12 -130 -50 -196 q 168 -14 75 -65 q 359 65 260 35 l 359 13 q 256 -69 304 -13 q 207 -181 207 -126 q 311 -260 207 -260 "},"ṫ":{"x_min":42.046875,"x_max":943.40625,"ha":812,"o":"m 674 690 l 852 713 q 902 674 902 713 q 855 624 902 634 q 640 598 807 615 q 571 431 617 538 q 477 167 477 211 q 537 119 477 119 q 883 183 729 119 q 918 193 905 193 q 943 170 943 193 q 910 126 943 148 q 610 16 811 61 q 240 -27 409 -27 q 92 3 143 -27 q 42 86 42 33 q 112 286 42 139 q 226 574 191 450 q 168 572 184 572 q 128 604 128 572 q 141 636 128 628 q 167 648 153 644 q 191 652 181 651 q 219 655 201 653 q 244 657 236 656 q 253 754 253 708 l 252 779 q 330 821 252 810 q 492 855 356 824 q 659 885 628 885 q 708 851 708 885 q 674 690 708 793 m 779 1121 q 705 1004 779 1054 q 549 955 631 955 q 421 988 467 955 q 376 1070 376 1022 q 411 1157 376 1117 q 502 1219 446 1197 q 623 1242 557 1242 q 734 1207 689 1242 q 779 1121 779 1172 "},"Ŧ":{"x_min":117.328125,"x_max":1268.28125,"ha":1158,"o":"m 177 417 q 147 460 147 417 q 167 529 147 504 q 211 553 187 553 l 609 539 l 997 553 q 1021 510 1021 553 q 1002 441 1021 466 q 956 417 982 417 l 565 430 l 177 417 m 840 146 l 977 159 q 1037 127 1037 159 q 998 71 1037 94 q 792 -6 902 13 q 578 -27 682 -27 q 429 -23 474 -27 q 341 -8 385 -19 q 269 23 297 3 q 209 156 209 66 q 398 550 209 313 q 641 759 541 729 q 763 775 693 775 q 832 722 832 775 q 822 680 832 704 q 754 492 784 600 q 725 298 725 384 q 840 146 725 146 m 151 704 q 117 744 117 704 q 143 865 117 788 q 254 1027 195 1011 q 352 1033 270 1033 l 811 1022 q 1008 1043 845 1022 q 1180 1063 1172 1063 q 1268 1003 1268 1063 q 1249 920 1268 977 q 1200 811 1230 862 q 1144 760 1169 760 q 1073 786 1128 760 q 805 862 907 862 q 570 842 704 862 q 371 795 436 822 q 257 746 306 769 q 151 704 166 704 "},"y":{"x_min":0,"x_max":1404.59375,"ha":1273,"o":"m 1379 193 q 1404 170 1404 193 q 1230 52 1404 124 q 992 -21 1122 6 q 963 -101 975 -66 q 915 -179 950 -136 q 835 -252 881 -223 q 735 -301 788 -281 q 615 -332 682 -321 q 334 -352 495 -352 q 86 -316 173 -352 q 0 -212 0 -280 q 33 -141 0 -173 q 122 -88 67 -109 q 261 -48 177 -66 q 624 0 406 -19 q 651 100 642 59 q 288 27 453 27 q 68 172 68 27 q 129 426 68 275 q 191 638 191 577 l 190 663 q 256 697 190 697 l 414 695 l 557 705 q 583 694 575 705 q 592 658 592 684 q 572 567 592 632 q 529 446 552 502 q 464 242 464 295 q 486 197 464 212 q 543 181 507 181 q 682 223 617 181 q 815 659 754 419 q 851 684 822 684 q 1062 694 950 684 q 1191 705 1175 705 q 1218 697 1208 705 q 1227 681 1227 689 q 1024 70 1227 652 q 1211 127 1125 94 q 1329 176 1298 160 q 1379 193 1361 193 m 566 -171 q 600 -78 585 -122 q 295 -219 295 -116 q 322 -268 295 -245 q 377 -292 349 -292 q 493 -260 439 -292 q 566 -171 546 -229 "},"≈":{"x_min":90.203125,"x_max":942.046875,"ha":1003,"o":"m 899 522 q 678 453 796 453 q 573 471 631 453 q 463 506 515 489 q 384 524 411 524 q 301 495 358 524 q 223 466 244 466 q 184 495 202 466 q 166 541 166 524 q 209 600 166 571 q 430 669 311 669 q 535 651 477 669 q 646 615 594 633 q 724 598 698 598 q 807 627 750 598 q 886 655 864 655 q 925 627 909 655 q 942 575 942 599 q 899 522 942 551 m 822 235 q 602 166 720 166 q 496 184 554 166 q 386 220 438 202 q 307 238 334 238 q 224 208 281 238 q 146 179 168 179 q 107 208 125 179 q 90 255 90 237 q 132 313 90 284 q 353 382 235 382 q 459 364 400 382 q 569 329 517 347 q 648 311 621 311 q 730 340 674 311 q 810 368 787 368 q 849 340 832 368 q 865 288 865 312 q 822 235 865 264 "},"ĸ":{"x_min":8.8125,"x_max":1287.265625,"ha":1156,"o":"m 857 699 l 1122 707 q 1148 696 1140 707 q 1157 673 1157 686 q 1125 578 1157 624 q 1043 498 1093 533 q 925 434 992 463 q 663 351 805 380 q 832 365 760 365 q 1004 257 1004 365 q 995 207 1004 240 q 986 153 986 173 q 1030 109 986 109 q 1122 133 1062 109 q 1214 174 1182 156 q 1258 193 1247 193 q 1278 186 1269 193 q 1287 161 1287 179 q 1258 122 1287 143 q 1020 12 1159 52 q 772 -27 882 -27 q 624 -5 663 -27 q 585 67 585 16 q 600 146 585 93 q 614 231 614 200 q 506 330 614 321 q 419 18 425 108 q 383 -6 418 -6 l 34 -13 q 17 -4 27 -13 q 8 18 8 4 q 37 106 8 31 q 100 267 65 181 q 163 461 134 354 q 191 644 191 569 l 191 663 q 257 697 191 697 l 567 705 q 593 695 583 705 q 602 674 602 685 q 531 395 602 587 q 722 495 652 427 q 792 640 792 564 l 791 666 q 857 699 791 699 "},"g":{"x_min":18.984375,"x_max":1404.59375,"ha":1273,"o":"m 18 -230 q 84 -150 18 -189 q 253 -83 149 -111 q 644 -4 441 -31 q 689 122 668 62 q 526 38 616 69 q 362 8 436 8 q 239 20 289 8 q 146 60 189 33 q 54 252 54 118 q 126 493 54 386 q 321 660 198 600 q 600 719 444 719 q 842 651 756 719 q 985 685 904 670 q 1113 699 1067 699 q 1192 677 1160 699 q 1224 626 1224 655 q 1204 539 1224 597 q 1136 344 1184 480 q 1043 70 1087 208 q 1334 181 1180 107 q 1374 193 1360 193 q 1404 169 1404 193 q 1380 133 1404 151 q 1014 -21 1268 49 l 996 -81 q 927 -194 977 -145 q 812 -272 876 -243 q 664 -320 748 -301 q 337 -352 519 -352 q 18 -230 18 -352 m 662 206 q 755 339 715 249 q 794 485 794 430 q 776 562 794 541 q 702 583 757 583 q 582 536 648 583 q 476 415 517 489 q 435 281 435 342 q 462 192 435 220 q 521 165 489 165 q 571 167 554 165 q 614 179 588 169 q 662 206 640 189 m 585 -171 l 617 -81 q 314 -219 314 -129 q 339 -261 314 -245 q 403 -277 364 -277 q 585 -171 548 -277 "},"²":{"x_min":122.765625,"x_max":967.828125,"ha":902,"o":"m 914 861 q 950 841 950 861 q 913 751 950 813 q 854 688 877 690 q 756 685 804 685 q 593 705 708 685 q 389 748 478 725 q 295 712 347 723 q 218 701 244 701 q 157 727 192 701 q 122 769 122 753 q 406 944 122 805 q 551 1026 512 995 q 590 1085 590 1056 q 535 1123 590 1123 q 419 1116 460 1123 q 348 1102 379 1108 q 293 1091 299 1091 q 267 1111 267 1091 q 299 1151 267 1136 q 712 1239 482 1239 q 901 1204 835 1239 q 967 1102 967 1169 q 843 948 967 1003 q 724 904 785 923 q 467 810 527 843 q 731 836 565 811 q 914 861 897 861 "},"–":{"x_min":165.484375,"x_max":872.1875,"ha":1011,"o":"m 493 328 l 182 322 q 165 353 165 322 q 166 399 165 385 q 169 431 166 413 q 195 471 175 467 q 242 476 215 476 l 575 470 l 854 476 q 872 445 872 476 q 871 400 872 414 q 868 367 870 385 q 841 327 862 331 q 794 322 821 322 l 493 328 "},"ë":{"x_min":39.34375,"x_max":1174,"ha":1042,"o":"m 1150 193 q 1174 171 1174 193 q 1141 130 1174 149 q 1062 90 1109 111 q 931 40 1014 69 q 497 -27 739 -27 q 39 255 39 -27 q 126 499 39 392 q 360 662 213 606 q 679 719 506 719 q 932 666 852 719 q 1013 518 1013 612 q 936 361 1013 422 q 731 270 859 300 q 438 228 603 240 q 588 97 448 123 q 664 91 624 91 q 1122 187 823 91 q 1150 193 1140 193 m 438 303 q 625 402 556 335 q 693 564 693 470 q 677 604 693 590 q 628 619 661 619 q 559 591 595 619 q 499 516 524 562 q 438 303 448 421 m 653 981 q 582 871 653 918 q 435 824 512 824 q 314 856 357 824 q 271 933 271 887 q 304 1015 271 978 q 390 1073 337 1052 q 504 1095 442 1095 q 610 1062 567 1095 q 653 981 653 1029 m 1108 902 q 1023 845 1075 866 q 908 824 970 824 q 802 856 845 824 q 759 933 759 887 q 792 1015 759 978 q 878 1073 826 1052 q 993 1095 931 1095 q 1098 1062 1055 1095 q 1141 984 1141 1029 q 1108 902 1141 939 "},"ƒ":{"x_min":90.875,"x_max":1226.90625,"ha":1124,"o":"m 212 428 q 353 423 238 428 q 427 692 394 583 q 615 979 489 890 q 946 1068 741 1068 q 1210 1006 1071 1068 q 1226 971 1226 999 q 1210 887 1226 944 q 1168 781 1195 831 q 1121 731 1142 731 q 1088 754 1100 731 q 1046 839 1077 777 q 999 926 1015 902 q 961 950 982 950 q 875 877 915 950 q 788 668 834 804 q 712 419 741 532 q 970 428 946 428 q 994 389 994 428 q 930 319 994 319 q 690 327 914 319 q 644 111 671 246 q 607 -67 617 -22 q 583 -156 598 -112 q 547 -235 569 -200 q 499 -289 525 -269 q 431 -322 472 -309 q 257 -345 361 -345 q 122 -337 153 -345 q 90 -304 90 -328 q 114 -270 90 -290 q 153 -237 138 -251 q 209 -140 192 -200 q 328 325 248 2 q 178 319 222 319 q 147 360 147 319 q 212 428 147 428 "},"J":{"x_min":-80.03125,"x_max":902.03125,"ha":926,"o":"m 461 -230 q 143 -345 343 -345 q -16 -298 46 -345 q -80 -169 -80 -250 q -50 -21 -80 -87 q 29 96 -21 44 q 274 261 126 196 q 340 453 290 311 q 440 795 440 735 q 433 826 440 817 q 397 835 425 835 q 256 786 369 835 q 193 773 224 773 q 162 800 162 773 q 185 839 162 819 q 430 982 281 923 q 698 1041 579 1041 q 859 1015 817 1041 q 902 925 902 990 q 864 733 902 861 q 751 395 826 605 q 645 93 676 185 q 569 -85 615 0 q 461 -230 522 -170 m 88 -248 q 126 -193 105 -248 q 242 162 156 -112 q 108 8 164 96 q 52 -164 52 -79 q 88 -248 52 -248 "},"Ã":{"x_min":-23.0625,"x_max":1342.875,"ha":1275,"o":"m 802 -27 q 576 122 576 -27 q 684 464 576 208 q 792 819 792 720 q 751 898 792 874 q 632 921 710 921 q 474 908 554 921 q 372 894 394 894 q 349 914 349 894 q 444 984 349 941 q 849 1068 628 1068 q 1111 1005 1024 1068 q 1199 800 1199 942 q 1169 590 1199 716 q 1109 352 1139 463 q 1080 200 1080 241 q 1096 142 1080 158 q 1171 122 1115 122 q 1210 114 1206 122 q 1215 99 1215 107 q 1186 48 1215 67 q 802 -27 1079 -27 m 407 463 l 581 467 q 628 440 628 467 q 606 408 628 420 q 335 358 527 368 q 280 167 280 249 q 289 100 280 130 q 299 55 299 69 q 253 7 299 19 q 120 -5 208 -5 q 4 10 32 -5 q -23 67 -23 26 q 21 234 -23 143 q 134 409 65 326 q 288 574 204 493 q 451 713 372 655 q 691 844 628 844 q 720 826 720 844 q 692 787 720 809 q 548 653 632 743 q 398 463 463 562 l 407 463 m 639 1156 q 592 1189 592 1156 q 610 1231 592 1211 q 643 1269 627 1252 q 856 1372 737 1372 q 1005 1338 926 1372 q 1118 1304 1085 1304 q 1213 1325 1151 1304 q 1295 1346 1275 1346 q 1329 1337 1316 1346 q 1342 1307 1342 1328 q 1292 1233 1342 1287 q 1078 1129 1197 1129 q 979 1146 1030 1129 q 883 1181 928 1163 q 810 1198 837 1198 q 722 1177 784 1198 q 639 1156 660 1156 "},"ŷ":{"x_min":0,"x_max":1404.59375,"ha":1273,"o":"m 1379 193 q 1404 170 1404 193 q 1230 52 1404 124 q 992 -21 1122 6 q 963 -101 975 -66 q 915 -179 950 -136 q 835 -252 881 -223 q 735 -301 788 -281 q 615 -332 682 -321 q 334 -352 495 -352 q 86 -316 173 -352 q 0 -212 0 -280 q 33 -141 0 -173 q 122 -88 67 -109 q 261 -48 177 -66 q 624 0 406 -19 q 651 100 642 59 q 288 27 453 27 q 68 172 68 27 q 129 426 68 275 q 191 638 191 577 l 190 663 q 256 697 190 697 l 414 695 l 557 705 q 583 694 575 705 q 592 658 592 684 q 572 567 592 632 q 529 446 552 502 q 464 242 464 295 q 486 197 464 212 q 543 181 507 181 q 682 223 617 181 q 815 659 754 419 q 851 684 822 684 q 1062 694 950 684 q 1191 705 1175 705 q 1218 697 1208 705 q 1227 681 1227 689 q 1024 70 1227 652 q 1211 127 1125 94 q 1329 176 1298 160 q 1379 193 1361 193 m 566 -171 q 600 -78 585 -122 q 295 -219 295 -116 q 322 -268 295 -245 q 377 -292 349 -292 q 493 -260 439 -292 q 566 -171 546 -229 m 892 1131 q 1086 841 1086 902 q 1057 812 1086 812 q 990 837 1027 812 q 773 976 885 909 q 496 837 659 925 q 440 817 459 817 q 402 849 402 817 q 494 971 402 881 q 704 1142 586 1062 q 750 1165 730 1160 q 815 1171 770 1171 q 892 1131 859 1171 "},"ŕ":{"x_min":10.171875,"x_max":990.890625,"ha":926,"o":"m 260 697 l 581 705 q 608 694 599 705 q 617 675 617 684 q 612 646 617 666 q 600 597 607 626 q 590 560 592 568 q 722 671 643 623 q 862 719 802 719 q 990 664 990 719 q 956 532 990 609 q 891 430 921 455 q 854 419 876 419 q 815 433 833 419 q 636 494 733 494 q 571 489 598 494 q 486 222 544 398 q 423 25 429 46 q 385 -6 413 -6 q 174 -16 286 -6 q 45 -27 61 -27 q 19 -17 28 -27 q 10 3 10 -8 q 39 94 10 16 q 102 263 67 172 q 166 461 137 353 q 195 638 195 569 l 194 663 q 260 697 194 697 m 740 1161 q 775 1168 755 1168 q 872 1130 823 1168 q 922 1051 922 1093 q 846 973 922 1001 q 458 814 617 890 q 413 801 432 801 q 385 826 385 801 q 433 910 385 851 q 565 1040 480 968 q 740 1161 651 1112 "},"©":{"x_min":179.734375,"x_max":1441.21875,"ha":1485,"o":"m 982 823 q 932 856 982 856 q 826 795 883 856 q 731 642 770 734 q 691 472 691 550 q 729 347 691 394 q 845 301 767 301 q 1000 329 921 301 q 1044 338 1026 338 q 1062 324 1062 338 q 1012 266 1062 296 q 887 216 963 236 q 743 196 812 196 q 517 265 602 196 q 432 451 432 335 q 462 595 432 523 q 543 725 493 668 q 657 828 594 783 q 910 922 790 922 q 1088 869 1030 922 q 1145 725 1145 817 q 1072 562 1145 617 q 992 533 1033 533 q 925 546 952 533 q 899 585 899 559 q 941 699 899 596 q 982 823 982 801 m 229 297 q 179 542 179 414 q 229 787 179 670 q 364 988 279 904 q 565 1123 448 1073 q 810 1173 682 1173 q 1055 1123 938 1173 q 1256 988 1171 1073 q 1391 787 1341 904 q 1441 542 1441 670 q 1391 297 1441 414 q 1256 96 1341 181 q 1055 -38 1171 11 q 810 -88 938 -88 q 565 -38 682 -88 q 364 96 448 11 q 229 297 279 181 m 257 543 q 331 267 257 394 q 532 66 405 140 q 808 -7 659 -7 q 1022 36 920 -7 q 1199 153 1125 80 q 1316 329 1273 227 q 1360 543 1360 431 q 1316 757 1360 655 q 1199 933 1273 859 q 1022 1051 1125 1007 q 808 1095 920 1095 q 594 1051 696 1095 q 418 933 492 1007 q 301 757 345 859 q 257 543 257 655 "},"˘":{"x_min":74.609375,"x_max":758.9375,"ha":834,"o":"m 145 931 q 98 992 121 956 q 74 1072 74 1028 q 121 1116 74 1116 q 205 1082 147 1116 q 417 1018 314 1018 q 649 1082 551 1018 q 725 1117 704 1117 q 758 1089 758 1117 q 692 975 758 1042 q 386 838 554 838 q 145 931 234 838 "},"≥":{"x_min":130.890625,"x_max":851.171875,"ha":1003,"o":"m 286 781 q 266 821 266 792 q 302 888 266 850 q 365 925 337 925 q 377 921 371 925 q 831 628 642 743 q 851 566 851 616 q 781 481 851 516 q 454 304 621 400 q 275 201 287 208 q 259 194 263 194 q 216 234 242 194 q 191 295 191 274 q 227 358 191 341 q 650 573 428 453 q 286 781 463 686 m 165 -13 q 130 26 130 -13 q 142 102 130 86 q 197 136 163 132 q 284 140 231 140 l 568 134 l 808 141 q 843 101 843 141 q 831 25 843 41 q 776 -9 810 -5 q 689 -12 741 -12 l 405 -6 l 165 -13 "},"Ă":{"x_min":-23.0625,"x_max":1354.40625,"ha":1275,"o":"m 802 -27 q 576 122 576 -27 q 684 464 576 208 q 792 819 792 720 q 751 898 792 874 q 632 921 710 921 q 474 908 554 921 q 372 894 394 894 q 349 914 349 894 q 444 984 349 941 q 849 1068 628 1068 q 1111 1005 1024 1068 q 1199 800 1199 942 q 1169 590 1199 716 q 1109 352 1139 463 q 1080 200 1080 241 q 1096 142 1080 158 q 1171 122 1115 122 q 1210 114 1206 122 q 1215 99 1215 107 q 1186 48 1215 67 q 802 -27 1079 -27 m 407 463 l 581 467 q 628 440 628 467 q 606 408 628 420 q 335 358 527 368 q 280 167 280 249 q 289 100 280 130 q 299 55 299 69 q 253 7 299 19 q 120 -5 208 -5 q 4 10 32 -5 q -23 67 -23 26 q 21 234 -23 143 q 134 409 65 326 q 288 574 204 493 q 451 713 372 655 q 691 844 628 844 q 720 826 720 844 q 692 787 720 809 q 548 653 632 743 q 398 463 463 562 l 407 463 m 670 1341 q 716 1386 670 1386 q 800 1355 743 1386 q 1012 1296 910 1296 q 1245 1355 1146 1296 q 1320 1387 1300 1387 q 1354 1361 1354 1387 q 1337 1310 1354 1335 q 1287 1253 1320 1285 q 982 1115 1150 1115 q 695 1266 792 1115 q 670 1341 670 1305 "},"D":{"x_min":-53.578125,"x_max":1378.15625,"ha":1388,"o":"m 706 922 q 522 905 619 922 q 358 868 425 889 q 238 831 292 848 q 172 815 183 815 q 135 841 135 815 q 176 894 135 867 q 473 1025 307 982 q 790 1068 638 1068 q 1038 1043 942 1068 q 1198 975 1135 1018 q 1302 869 1261 931 q 1378 579 1378 753 q 1277 242 1378 396 q 985 8 1167 73 q 773 -27 886 -27 q 491 29 592 -27 q 421 -5 462 2 q 309 -13 381 -13 q 171 -2 237 -13 q 57 27 106 9 q -22 67 8 45 q -53 107 -53 89 q -39 134 -53 124 q -8 144 -25 144 q 81 163 52 144 q 140 236 110 183 q 196 358 170 290 q 245 490 222 427 q 297 617 267 553 q 455 804 360 759 q 574 837 501 826 q 720 849 647 849 q 793 815 793 849 q 762 741 793 790 q 696 590 731 692 q 618 345 661 487 q 551 138 575 204 l 539 108 q 605 106 560 106 q 705 125 650 106 q 801 177 760 144 q 875 255 842 210 q 929 350 908 299 q 965 457 950 400 q 991 679 991 560 q 706 922 991 922 "},"ł":{"x_min":44.765625,"x_max":956.296875,"ha":694,"o":"m 257 1106 q 210 1140 210 1106 q 225 1181 210 1158 q 278 1233 240 1204 q 465 1307 375 1307 q 620 1278 524 1307 q 751 1249 716 1249 q 836 1270 786 1249 q 908 1290 887 1290 q 943 1281 929 1290 q 956 1257 956 1273 q 905 1177 956 1228 q 737 1095 822 1095 q 583 1124 677 1095 q 447 1152 489 1152 q 341 1129 406 1152 q 257 1106 276 1106 m 360 999 l 693 1006 q 719 995 710 1006 q 728 972 728 985 q 598 561 728 901 q 468 161 468 221 q 478 123 468 136 q 514 111 489 111 q 765 185 595 111 q 797 193 781 193 q 825 171 825 193 q 797 133 825 153 q 720 90 769 113 q 602 38 672 66 q 443 -8 532 10 q 258 -27 355 -27 q 103 -1 161 -27 q 44 94 44 25 q 170 478 44 143 q 256 737 217 602 q 295 939 295 872 l 295 965 q 360 999 295 999 "},"ĺ":{"x_min":44.765625,"x_max":864.0625,"ha":694,"o":"m 360 999 l 693 1006 q 719 995 710 1006 q 728 972 728 985 q 598 561 728 901 q 468 161 468 221 q 478 123 468 136 q 514 111 489 111 q 765 185 595 111 q 797 193 781 193 q 825 171 825 193 q 797 133 825 153 q 720 90 769 113 q 602 38 672 66 q 443 -8 532 10 q 258 -27 355 -27 q 103 -1 161 -27 q 44 94 44 25 q 170 478 44 143 q 256 737 217 602 q 295 939 295 872 l 295 965 q 360 999 295 999 m 599 1365 q 720 1390 666 1390 q 819 1356 775 1390 q 864 1279 864 1323 q 845 1229 864 1252 q 787 1201 827 1207 q 741 1195 781 1201 q 681 1187 702 1190 q 619 1178 661 1184 q 547 1167 577 1172 q 479 1154 517 1161 q 408 1138 442 1146 q 346 1121 375 1130 q 295 1112 318 1112 q 273 1139 273 1112 q 371 1247 273 1178 q 599 1365 470 1316 "},"ÿ":{"x_min":0,"x_max":1404.59375,"ha":1273,"o":"m 1379 193 q 1404 170 1404 193 q 1230 52 1404 124 q 992 -21 1122 6 q 963 -101 975 -66 q 915 -179 950 -136 q 835 -252 881 -223 q 735 -301 788 -281 q 615 -332 682 -321 q 334 -352 495 -352 q 86 -316 173 -352 q 0 -212 0 -280 q 33 -141 0 -173 q 122 -88 67 -109 q 261 -48 177 -66 q 624 0 406 -19 q 651 100 642 59 q 288 27 453 27 q 68 172 68 27 q 129 426 68 275 q 191 638 191 577 l 190 663 q 256 697 190 697 l 414 695 l 557 705 q 583 694 575 705 q 592 658 592 684 q 572 567 592 632 q 529 446 552 502 q 464 242 464 295 q 486 197 464 212 q 543 181 507 181 q 682 223 617 181 q 815 659 754 419 q 851 684 822 684 q 1062 694 950 684 q 1191 705 1175 705 q 1218 697 1208 705 q 1227 681 1227 689 q 1024 70 1227 652 q 1211 127 1125 94 q 1329 176 1298 160 q 1379 193 1361 193 m 566 -171 q 600 -78 585 -122 q 295 -219 295 -116 q 322 -268 295 -245 q 377 -292 349 -292 q 493 -260 439 -292 q 566 -171 546 -229 m 716 981 q 646 871 716 918 q 498 824 575 824 q 377 856 420 824 q 334 933 334 887 q 367 1015 334 978 q 453 1073 400 1052 q 568 1095 505 1095 q 673 1062 630 1095 q 716 981 716 1029 m 1171 902 q 1086 845 1138 866 q 971 824 1033 824 q 865 856 908 824 q 822 933 822 887 q 855 1015 822 978 q 941 1073 889 1052 q 1056 1095 994 1095 q 1161 1062 1118 1095 q 1204 984 1204 1029 q 1171 902 1204 939 "},"Ł":{"x_min":8.140625,"x_max":1225.546875,"ha":1273,"o":"m 939 615 q 962 599 952 615 q 971 551 971 583 q 957 499 971 520 q 912 473 942 478 q 699 442 882 468 q 465 408 517 417 q 266 370 413 399 q 82 335 119 341 q 54 348 66 335 q 42 396 42 362 q 57 450 42 429 q 100 476 73 472 q 285 498 126 480 q 491 523 444 515 q 721 570 537 531 q 939 615 904 610 m 345 -5 l 75 -12 q 8 33 8 -12 q 26 70 8 54 q 73 106 44 86 q 126 159 102 126 q 178 270 149 191 q 225 423 207 348 q 309 731 284 659 q 348 835 335 803 q 377 896 361 868 q 408 945 393 924 q 443 983 423 966 q 482 1010 463 999 q 528 1030 501 1022 q 580 1043 555 1039 q 642 1051 605 1048 q 792 1055 699 1055 q 931 1046 886 1055 q 977 1009 977 1037 q 925 954 977 986 q 822 837 866 918 q 746 672 773 749 q 703 548 719 595 q 666 433 688 501 q 628 319 643 364 q 453 88 564 137 q 736 149 624 97 q 841 201 797 177 q 939 274 885 225 q 1066 395 1010 337 q 1126 458 1121 453 q 1169 476 1144 476 q 1209 464 1194 476 q 1225 432 1225 452 q 1175 193 1225 354 q 1140 102 1157 137 q 1094 39 1122 67 q 924 -13 1041 -13 q 345 -5 924 -13 "},"$":{"x_min":54.9375,"x_max":1285.90625,"ha":1273,"o":"m 1011 1159 q 1002 1101 1011 1135 q 990 1061 992 1066 q 1265 1001 1159 1047 q 1285 965 1285 992 q 1261 881 1285 937 q 1203 777 1237 824 q 1145 730 1169 730 q 1124 739 1133 730 q 945 890 1034 837 q 862 583 895 700 q 995 478 976 497 q 1038 436 1014 459 q 1073 393 1061 412 q 1098 349 1085 373 q 1122 243 1122 305 q 1089 131 1122 182 q 996 48 1056 80 q 697 -23 882 -11 l 663 -143 q 626 -184 652 -184 q 593 -142 593 -184 q 613 -27 593 -119 l 588 -27 q 435 -19 514 -27 q 420 -74 428 -45 q 407 -119 412 -103 q 401 -143 403 -136 q 364 -184 389 -184 q 330 -142 330 -184 q 354 -10 330 -118 q 178 19 257 1 q 77 49 99 37 q 54 86 54 61 q 96 197 54 112 q 161 281 137 281 q 207 259 175 281 q 388 145 343 168 q 442 379 422 295 q 240 602 280 512 q 222 685 222 644 q 331 913 222 817 q 618 1047 440 1010 q 659 1162 646 1139 q 712 1203 679 1203 q 749 1159 749 1203 q 729 1064 749 1132 q 809 1068 775 1068 q 886 1067 843 1068 q 921 1162 908 1138 q 974 1203 942 1203 q 1011 1159 1011 1203 m 666 811 q 694 733 666 771 q 772 652 721 695 q 846 931 815 822 q 795 935 828 935 q 725 914 763 935 q 674 855 688 893 l 669 838 q 666 811 666 821 m 526 311 l 472 113 q 549 101 518 101 q 600 107 580 101 q 637 127 621 112 q 653 167 653 142 q 620 226 653 191 q 526 311 588 261 "},"w":{"x_min":76.640625,"x_max":1970.921875,"ha":1705,"o":"m 239 697 l 598 705 q 624 678 624 705 q 608 642 624 663 q 510 476 550 569 q 470 287 470 383 q 502 160 470 186 q 537 149 516 149 q 620 184 581 149 q 686 271 659 219 q 736 394 714 324 q 790 652 773 513 q 802 683 792 668 q 836 697 813 697 l 1195 705 q 1221 682 1221 705 q 1205 642 1221 665 q 1067 273 1067 451 q 1136 156 1067 156 q 1233 200 1188 156 q 1306 316 1277 244 q 1369 652 1369 467 q 1414 697 1369 691 q 1539 702 1429 699 q 1679 705 1648 705 q 1711 676 1711 705 q 1654 472 1711 575 q 1717 465 1686 465 q 1911 514 1824 465 q 1943 525 1930 525 q 1970 500 1970 525 q 1941 453 1970 476 q 1678 379 1844 379 q 1599 385 1634 379 l 1569 344 q 1376 149 1490 239 q 1145 7 1262 59 q 935 -44 1027 -44 q 820 7 876 -44 q 729 138 763 59 q 518 1 625 52 q 332 -50 412 -50 q 148 46 220 -50 q 76 299 76 143 q 104 479 76 366 q 170 655 132 592 q 200 689 186 680 q 239 697 213 697 "},"∫":{"x_min":109.875,"x_max":1226.234375,"ha":1273,"o":"m 541 80 l 636 758 q 763 1066 669 981 q 965 1134 838 1134 q 1138 1102 1053 1134 q 1209 1072 1167 1091 q 1226 1040 1226 1065 q 1184 934 1226 1014 q 1119 853 1142 853 q 1088 876 1097 853 q 1024 988 1054 960 q 959 1017 993 1017 q 863 932 910 1017 q 794 695 816 848 l 699 17 q 486 -337 660 -264 q 378 -358 434 -358 q 275 -348 323 -358 q 126 -296 211 -334 q 109 -262 109 -289 q 125 -189 109 -234 q 167 -106 141 -143 q 217 -68 193 -68 q 247 -90 240 -68 q 324 -214 271 -166 q 382 -241 353 -241 q 477 -160 436 -241 q 541 80 518 -78 "},"\\":{"x_min":215.671875,"x_max":542.578125,"ha":706,"o":"m 315 1064 l 541 -87 q 542 -107 542 -95 q 530 -134 542 -120 q 496 -148 517 -148 q 460 -135 475 -148 q 442 -104 446 -123 l 217 1047 q 215 1067 215 1056 q 228 1094 215 1079 q 261 1108 240 1108 q 297 1096 282 1108 q 315 1064 311 1083 "},"Ì":{"x_min":48.828125,"x_max":933.90625,"ha":926,"o":"m 316 402 q 151 666 151 504 q 187 800 151 737 q 282 906 223 862 q 416 980 341 949 q 729 1041 564 1041 q 869 998 832 1041 q 902 897 902 959 q 872 736 902 835 q 779 459 843 636 q 683 180 716 282 q 581 32 651 79 q 388 -13 512 -13 q 157 17 265 -13 q 48 88 48 48 q 94 123 48 118 q 191 153 161 131 q 248 230 221 174 q 316 402 274 286 m 439 828 q 429 854 439 844 q 404 864 419 864 q 373 853 389 864 q 337 819 356 842 q 292 667 292 764 q 344 486 292 570 q 439 828 439 768 m 933 1135 q 906 1109 933 1109 q 804 1132 879 1109 q 493 1190 671 1172 q 429 1220 455 1193 q 403 1291 403 1246 q 440 1362 403 1335 q 536 1390 476 1390 q 670 1357 595 1390 q 800 1281 744 1325 q 895 1196 857 1238 q 933 1135 933 1155 "},"Ç":{"x_min":78,"x_max":1302.859375,"ha":1273,"o":"m 583 218 q 786 141 648 141 q 1053 184 914 141 q 1120 198 1098 198 q 1159 176 1159 198 q 1108 106 1159 143 q 978 40 1056 69 q 799 -7 899 11 q 611 -27 700 -27 q 331 22 452 -27 q 144 163 210 71 q 78 364 78 255 q 114 565 78 473 q 213 733 151 658 q 360 871 276 807 q 537 978 444 935 q 918 1068 735 1068 q 1201 993 1100 1068 q 1302 810 1302 918 q 1233 603 1302 692 q 1144 534 1199 560 q 1020 508 1089 508 q 941 521 973 508 q 879 591 879 545 q 915 679 879 607 q 986 829 950 752 q 1022 934 1022 906 q 998 974 1022 963 q 928 985 973 985 q 826 951 883 985 q 716 857 769 916 q 619 725 663 798 q 549 568 575 653 q 522 417 522 484 q 538 302 522 349 q 583 218 553 255 m 740 -75 q 861 -116 816 -75 q 907 -221 907 -156 q 876 -328 907 -286 q 684 -406 817 -406 q 435 -338 551 -406 q 383 -298 400 -317 q 365 -260 365 -280 q 401 -220 365 -220 q 445 -237 416 -220 q 532 -272 474 -254 q 629 -291 590 -291 q 689 -274 668 -291 q 709 -229 709 -257 q 690 -184 709 -201 q 625 -168 670 -168 q 557 -161 581 -168 q 534 -128 534 -153 q 566 -36 534 -103 q 638 67 598 29 l 687 44 l 648 -86 q 740 -75 700 -75 "},"Ŝ":{"x_min":63.078125,"x_max":1360.953125,"ha":1273,"o":"m 80 52 q 63 86 63 61 q 104 197 63 112 q 169 281 145 281 q 211 262 183 281 q 277 217 240 244 q 359 165 315 191 q 567 101 466 101 q 639 122 617 101 q 661 163 661 142 q 638 209 661 183 q 578 263 615 236 q 496 322 541 291 q 406 387 451 353 q 325 457 362 422 q 242 610 242 535 q 270 706 242 663 q 342 775 298 748 q 441 819 385 801 q 647 851 541 851 q 690 843 676 851 q 704 822 704 834 q 694 787 704 811 q 684 746 684 764 q 709 699 684 727 q 773 640 733 670 q 859 577 812 611 q 954 505 907 543 q 1041 427 1002 467 q 1130 256 1130 339 q 1087 117 1130 172 q 967 31 1044 61 q 799 -13 891 0 q 576 -27 708 -27 q 286 0 444 -27 q 80 52 128 27 m 1203 716 q 983 874 1114 822 q 709 926 851 926 q 206 828 448 926 q 160 815 173 815 q 132 841 132 815 q 169 891 132 862 q 273 951 205 920 q 427 1008 341 982 q 849 1068 624 1068 q 1352 975 1182 1068 q 1360 943 1361 969 q 1336 860 1359 916 q 1278 757 1312 805 q 1221 710 1245 710 q 1203 716 1215 716 m 881 1208 q 562 1103 607 1103 q 539 1111 548 1103 q 529 1133 529 1119 q 602 1219 529 1162 q 811 1361 676 1275 q 858 1383 838 1378 q 912 1389 878 1389 q 967 1379 946 1389 q 1006 1350 987 1369 q 1141 1207 1095 1262 q 1186 1125 1186 1152 q 1154 1098 1186 1098 q 1066 1121 1122 1098 q 881 1208 971 1159 "},"C":{"x_min":78,"x_max":1302.859375,"ha":1273,"o":"m 583 218 q 786 141 648 141 q 1053 184 914 141 q 1120 198 1098 198 q 1159 176 1159 198 q 1108 106 1159 143 q 978 40 1056 69 q 799 -7 899 11 q 611 -27 700 -27 q 331 22 452 -27 q 144 163 210 71 q 78 364 78 255 q 114 565 78 473 q 213 733 151 658 q 360 871 276 807 q 537 978 444 935 q 918 1068 735 1068 q 1201 993 1100 1068 q 1302 810 1302 918 q 1233 603 1302 692 q 1144 534 1199 560 q 1020 508 1089 508 q 941 521 973 508 q 879 591 879 545 q 915 679 879 607 q 986 829 950 752 q 1022 934 1022 906 q 998 974 1022 963 q 928 985 973 985 q 826 951 883 985 q 716 857 769 916 q 619 725 663 798 q 549 568 575 653 q 522 417 522 484 q 538 302 522 349 q 583 218 553 255 "},"Ḋ":{"x_min":-53.578125,"x_max":1378.15625,"ha":1388,"o":"m 706 922 q 522 905 619 922 q 358 868 425 889 q 238 831 292 848 q 172 815 183 815 q 135 841 135 815 q 176 894 135 867 q 473 1025 307 982 q 790 1068 638 1068 q 1038 1043 942 1068 q 1198 975 1135 1018 q 1302 869 1261 931 q 1378 579 1378 753 q 1277 242 1378 396 q 985 8 1167 73 q 773 -27 886 -27 q 491 29 592 -27 q 421 -5 462 2 q 309 -13 381 -13 q 171 -2 237 -13 q 57 27 106 9 q -22 67 8 45 q -53 107 -53 89 q -39 134 -53 124 q -8 144 -25 144 q 81 163 52 144 q 140 236 110 183 q 196 358 170 290 q 245 490 222 427 q 297 617 267 553 q 455 804 360 759 q 574 837 501 826 q 720 849 647 849 q 793 815 793 849 q 762 741 793 790 q 696 590 731 692 q 618 345 661 487 q 551 138 575 204 l 539 108 q 605 106 560 106 q 705 125 650 106 q 801 177 760 144 q 875 255 842 210 q 929 350 908 299 q 965 457 950 400 q 991 679 991 560 q 706 922 991 922 m 720 1315 q 931 1386 798 1386 q 1053 1355 1007 1386 q 1100 1278 1100 1325 q 1062 1196 1100 1230 q 968 1144 1025 1162 q 844 1126 912 1126 q 729 1156 775 1126 q 682 1234 682 1186 q 720 1315 682 1281 "}}}
